<?xml version="1.0" encoding="utf-8"?>
<!-- Generator: Adobe Illustrator 27.2.0, SVG Export Plug-In . SVG Version: 6.00 Build 0)  -->
<svg version="1.1" id="Layer_1" xmlns="http://www.w3.org/2000/svg" xmlns:xlink="http://www.w3.org/1999/xlink" x="0px" y="0px"
	 viewBox="0 0 100 100" style="enable-background:new 0 0 100 100;" xml:space="preserve">
<style type="text/css">
	.st0{fill-rule:evenodd;clip-rule:evenodd;fill:#22242F;}
	.st1{fill:#60FBD0;}
	.st2{fill:#607D8B;}
	.st3{fill:#FEFEFE;}
</style>
<rect x="0" y="0" class="st0" width="100" height="100"/>
<g id="kuji">
	<circle id="Oval" class="st0" cx="50" cy="50" r="50"/>
	<path id="Oval_00000005962537176861037640000002521105083078250939_" class="st1" d="M50,2c26.5,0,48,21.5,48,48S76.5,98,50,98
		S2,76.5,2,50S23.5,2,50,2z M50,5.4C25.4,5.4,5.4,25.4,5.4,50s20,44.6,44.6,44.6s44.6-20,44.6-44.6S74.6,5.4,50,5.4z"/>
</g>
<g>
	<path class="st2" d="M23.6,36.6c0-2.6,0-5.2,0-7.7c0-0.2,0.1-0.2,0.2-0.2c0.7,0,1.5,0,2.2,0c0.2,0,0.2-0.1,0.2-0.2
		c0-0.7,0-1.4,0-2.2c0-0.2,0.1-0.3,0.3-0.3c0.7,0,1.4,0,2.1,0c0.2,0,0.3-0.1,0.3-0.3c0-0.7,0-1.4,0-2.1c0-0.2,0.1-0.3,0.3-0.3
		c3.5,0,6.9,0,10.4,0c1.7,0,3.3,0,5,0c0.2,0,0.3,0.1,0.3,0.3c0,0.7,0,1.4,0,2.1c0,0.2,0,0.2,0.2,0.2c0.7,0,1.5,0,2.2,0
		c0.2,0,0.2,0.1,0.2,0.2c0,0.7,0,1.4,0,2.2c0,0.2,0.1,0.3,0.3,0.3c0.7,0,1.4,0,2.1,0c0.2,0,0.3,0.1,0.3,0.3c0,0.7,0,1.4,0,2.2
		c0,0.2,0.1,0.2,0.2,0.2c0.7,0,1.4,0,2.2,0c0.2,0,0.3,0.1,0.3,0.3c0,0.7,0,1.4,0,2.1c0,0.3,0.1,0.3,0.3,0.3c0.7,0,1.4,0,2.1,0
		c0.2,0,0.3,0.1,0.3,0.3c0,0.7,0,1.4,0,2.1c0,0.2,0,0.3,0.2,0.3c4.3,0,8.6,0,12.8,0c0.2,0,0.2-0.1,0.2-0.2c0-0.7,0-1.5,0-2.2
		c0-0.2,0-0.2-0.2-0.2c-0.7,0-1.5,0-2.2,0c-0.2,0-0.2-0.1-0.2-0.2c0-0.7,0-1.4,0-2.2c0-0.2-0.1-0.3-0.3-0.3c-1.6,0-3.2,0-4.8,0
		c-0.2,0-0.3-0.1-0.3-0.3c0-0.7,0-1.4,0-2.1c0-0.2,0.1-0.2,0.2-0.2c2.5,0,5,0,7.5,0c0.2,0,0.2,0.1,0.2,0.2c0,0.7,0,1.5,0,2.2
		c0,0.2,0.1,0.2,0.2,0.2c0.7,0,1.5,0,2.2,0c0.2,0,0.2-0.1,0.2-0.2c0-0.7,0-1.5,0-2.2c0-0.2,0.1-0.2,0.2-0.2c2.5,0,5,0,7.5,0
		c0.2,0,0.2,0.1,0.2,0.2c0,0.7,0,1.4,0,2.2c0,0.2-0.1,0.3-0.3,0.3c-1.6,0-3.2,0-4.8,0c-0.2,0-0.3,0.1-0.3,0.3c0,0.7,0,1.4,0,2.1
		c0,0.2,0,0.2-0.2,0.2c-0.7,0-1.4,0-2.1,0c-0.3,0-0.3,0.1-0.3,0.3c0,3.3,0,6.7,0,10c0,0.3-0.1,0.3-0.3,0.3c-0.7,0-1.4,0-2.1,0
		c-0.2,0-0.2,0-0.2,0.2c0,0.7,0,1.5,0,2.2c0,0.2,0,0.2-0.2,0.2c-0.7,0-1.5,0-2.2,0c-0.2,0-0.2,0-0.2,0.2c0,0.7,0,1.4,0,2.2
		c0,0.2-0.1,0.3-0.3,0.3c-1.7,0-3.4,0-5.1,0c-1.7,0-3.4,0-5.1,0c-0.2,0-0.2,0.1-0.2,0.2c0,0.7,0,1.4,0,2.2c0,0.2,0,0.3,0.3,0.3
		c0.8,0,1.6,0,2.4,0c0,1.7,0,3.4,0,5.1c0,0.2-0.1,0.3-0.3,0.3c-1.6,0-3.2,0-4.8,0c-0.2,0-0.3-0.1-0.3-0.3c0-0.7,0-1.4,0-2.1
		c0-0.2-0.1-0.3-0.3-0.3c-0.7,0-1.4,0-2.1,0c-0.2,0-0.3-0.1-0.3-0.3c0-0.7,0-1.4,0-2.1c0-0.2-0.1-0.3-0.3-0.3c-0.7,0-1.4,0-2.1,0
		c-0.2,0-0.3-0.1-0.3-0.3c0-0.7,0-1.4,0-2.1c0-0.2-0.1-0.3-0.3-0.3c-0.8,0-1.6,0-2.4,0c0-0.8,0-1.6,0-2.4c0-0.2-0.1-0.3-0.3-0.3
		c-0.7,0-1.4,0-2.2,0c-0.2,0-0.2-0.1-0.2-0.2c0-0.7,0-1.4,0-2.1c0-0.3-0.1-0.3-0.3-0.3c-0.7,0-1.3,0-2,0c-0.2,0-0.3,0-0.3-0.3
		c0-0.7,0-1.3,0-2c0-0.3-0.1-0.3-0.3-0.3c-1.6,0-3.1,0-4.7,0c-0.2,0-0.3-0.1-0.3-0.3c0-0.7,0-1.4,0-2.1c0-0.3-0.1-0.3-0.3-0.3
		c-1.6,0-3.1,0-4.7,0c-0.3,0-0.3-0.1-0.3-0.3c0-0.6,0-1.3,0-1.9c0-0.3,0-0.4-0.4-0.4C26.9,36.6,25.3,36.6,23.6,36.6z M38.2,36.6
		c0.4,0,0.8,0,1.2,0c0.1,0,0.2,0,0.2-0.2c0-0.8,0-1.5,0-2.3c0-0.1,0-0.2-0.2-0.2c-0.8,0-1.5,0-2.3,0c-0.1,0-0.2,0-0.2,0.2
		c0,0.8,0,1.5,0,2.3c0,0.1,0,0.2,0.2,0.2C37.5,36.6,37.9,36.6,38.2,36.6z"/>
	<path class="st1" d="M23.6,36.6c1.6,0,3.3,0.1,4.9,0.1c0.4,0,0.4,0.1,0.4,0.4c0,0.6,0,1.3,0,1.9c0,0.2,0,0.3,0.3,0.3
		c1.6,0,3.1,0,4.7,0c0.3,0,0.3,0.1,0.3,0.3c0,0.7,0,1.4,0,2.1c0,0.2,0.1,0.3,0.3,0.3c1.6,0,3.1,0,4.7,0c0.3,0,0.3,0.1,0.3,0.3
		c0,0.7,0,1.3,0,2c0,0.3,0.1,0.3,0.3,0.3c0.7,0,1.3,0,2,0c0.2,0,0.3,0,0.3,0.3c0,0.7,0,1.4,0,2.1c0,0.2,0,0.2,0.2,0.2
		c0.7,0,1.4,0,2.2,0c0.2,0,0.3,0.1,0.3,0.3c0,0.8,0,1.6,0,2.4l0,0c-1.8,0-3.5,0-5.3,0c-0.8,0-1.5,0-2.3,0c-0.4,0-0.4-0.1-0.4-0.4
		c0-0.6,0-1.3,0-1.9c0-0.2-0.1-0.3-0.3-0.3c-1.5,0-3.1,0-4.7,0c-0.3,0-0.4-0.1-0.4-0.4c0-0.7,0-1.3,0-2c0-0.3-0.1-0.3-0.3-0.3
		c-0.7,0-1.4,0-2.1,0c-0.2,0-0.3-0.1-0.3-0.3c0-0.7,0-1.4,0-2c0-0.3-0.1-0.4-0.4-0.4c-0.7,0-1.3,0-2,0c-0.2,0-0.3-0.1-0.3-0.3
		c0-0.7,0-1.4,0-2.1c0-0.2-0.1-0.3-0.3-0.3c-0.7,0-1.2,0-1.9,0c-0.2,0-0.3,0-0.3-0.3C23.6,38,23.6,37.4,23.6,36.6z"/>
	<path class="st2" d="M39.6,49.9c1.8,0,3.5,0,5.3,0c0,1.7,0,3.3,0,5c0,0.2,0,0.3-0.3,0.3c-0.7,0-1.4,0-2.1,0c-0.2,0-0.3,0-0.3-0.3
		c0-0.7,0-1.4,0-2.1c0-0.2,0-0.3-0.3-0.3c-0.7,0-1.4,0-2.1,0c-0.2,0-0.3,0-0.3-0.3C39.6,51.5,39.6,50.7,39.6,49.9z"/>
	<path class="st1" d="M58,52.7c-0.8,0-1.6,0-2.4,0c-0.2,0-0.3-0.1-0.3-0.3c0-0.7,0-1.4,0-2.2c0-0.2,0-0.2,0.2-0.2c1.7,0,3.4,0,5.1,0
		c0,0.8,0,1.5,0,2.3c0,0.3-0.1,0.3-0.4,0.3C59.5,52.6,58.8,52.7,58,52.7z"/>
	<path class="st3" d="M38.2,36.6c-0.4,0-0.8,0-1.1,0c-0.1,0-0.2,0-0.2-0.2c0-0.8,0-1.5,0-2.3c0-0.1,0-0.2,0.2-0.2c0.8,0,1.5,0,2.3,0
		c0.1,0,0.2,0,0.2,0.2c0,0.8,0,1.5,0,2.3c0,0.1,0,0.2-0.2,0.2C39,36.6,38.6,36.6,38.2,36.6z"/>
</g>
<g>
	<path class="st1" d="M24.1,70.3v-1.7h1.7v1.7H24.1z M34.1,73.6V67h-6.6v1.7h-1.7v-3.3h10v8.3L34.1,73.6L34.1,73.6z M25.8,76.9v-1.7
		h6.6v1.7H25.8z M32.4,75.3v-1.7h1.7v1.7H32.4z"/>
	<path class="st1" d="M37.4,70.3v-1.7h1.7v1.7H37.4z M37.4,75.3v-1.7h5v1.7H37.4z M39.1,67v-1.7h1.7V67H39.1z M39.1,72v-1.7h1.7V72
		H39.1z M40.7,68.6V67h1.7v1.7L40.7,68.6L40.7,68.6z M42.4,73.6V72h1.7v1.7L42.4,73.6L42.4,73.6z M44.1,72v-1.7h1.7V72H44.1z
		 M45.7,70.3V67h1.7v3.3H45.7z M47.4,65.3v-1.7h1.7v1.7H47.4z M49.1,67v-1.7h1.7V67H49.1z M50.7,65.3v-1.7h1.7v1.7H50.7z M52.4,67
		v-1.7H54V67H52.4z"/>
	<path class="st1" d="M65.7,72v-1.7h-10v-1.7h11.6V72H65.7L65.7,72z M57.4,67v-1.7h8.3V67H57.4z M59,76.9v-1.7h3.3v1.7H59z
		 M62.3,75.3v-1.7H64v1.7H62.3z M64,73.6V72h1.7v1.7L64,73.6L64,73.6z"/>
	<path class="st1" d="M69,67v-1.7h1.7V67H69z M69,76.9v-1.7h3.3v1.7H69z M70.7,68.6V67h1.7v1.7L70.7,68.6L70.7,68.6z M72.3,75.3
		v-1.7H74v1.7H72.3z M74,73.6V72h1.7v1.7L74,73.6L74,73.6z M75.6,72v-1.7h1.7V72H75.6z M77.3,70.3V67H79v3.3H77.3z"/>
</g>
</svg>
