<?xml version="1.0" encoding="utf-8"?>
<!-- Generator: Adobe Illustrator 27.2.0, SVG Export Plug-In . SVG Version: 6.00 Build 0)  -->
<svg version="1.1" id="Layer_1" xmlns="http://www.w3.org/2000/svg" xmlns:xlink="http://www.w3.org/1999/xlink" x="0px" y="0px"
	 viewBox="0 0 100 100" style="enable-background:new 0 0 100 100;" xml:space="preserve">
<style type="text/css">
	.st0{fill-rule:evenodd;clip-rule:evenodd;fill:#22242F;}
	.st1{fill:#60FBD0;}
	.st2{fill:#607D8B;}
	.st3{fill:#FEFEFE;}
</style>
<rect x="0" y="0" class="st0" width="100" height="100"/>
<g id="kuji">
	<circle id="Oval" class="st0" cx="50" cy="50" r="50"/>
	<path id="Oval_00000005962537176861037640000002521105083078250939_" class="st1" d="M50,2c26.5,0,48,21.5,48,48S76.5,98,50,98
		S2,76.5,2,50S23.5,2,50,2z M50,5.4C25.4,5.4,5.4,25.4,5.4,50s20,44.6,44.6,44.6s44.6-20,44.6-44.6S74.6,5.4,50,5.4z"/>
</g>
<g>
	<path class="st2" d="M22.7,46.8c0-2.8,0-5.7,0-8.5c0-0.2,0.1-0.3,0.3-0.3c0.8,0,1.6,0,2.4,0c0.2,0,0.3-0.1,0.3-0.3
		c0-0.8,0-1.6,0-2.4c0-0.2,0.1-0.3,0.3-0.3c0.8,0,1.6,0,2.3,0c0.2,0,0.3-0.1,0.3-0.3c0-0.8,0-1.6,0-2.3c0-0.2,0.1-0.3,0.3-0.3
		c3.8,0,7.6,0,11.4,0c1.8,0,3.7,0,5.5,0c0.3,0,0.3,0.1,0.3,0.3c0,0.8,0,1.6,0,2.3c0,0.2,0.1,0.3,0.3,0.3c0.8,0,1.6,0,2.4,0
		c0.2,0,0.3,0.1,0.3,0.3c0,0.8,0,1.6,0,2.4c0,0.3,0.1,0.3,0.3,0.3c0.8,0,1.6,0,2.3,0c0.2,0,0.3,0.1,0.3,0.3c0,0.8,0,1.6,0,2.4
		c0,0.2,0.1,0.3,0.3,0.3c0.8,0,1.6,0,2.4,0c0.3,0,0.3,0.1,0.3,0.3c0,0.8,0,1.5,0,2.3c0,0.3,0.1,0.4,0.4,0.4c0.8,0,1.5,0,2.3,0
		c0.3,0,0.3,0.1,0.3,0.3c0,0.8,0,1.6,0,2.3c0,0.2,0,0.3,0.3,0.3c4.7,0,9.4,0,14.1,0c0.2,0,0.3-0.1,0.3-0.3c0-0.8,0-1.6,0-2.4
		c0-0.2-0.1-0.3-0.3-0.3c-0.8,0-1.6,0-2.4,0c-0.2,0-0.3-0.1-0.3-0.3c0-0.8,0-1.6,0-2.4c0-0.2-0.1-0.3-0.3-0.3c-1.7,0-3.5,0-5.2,0
		c-0.3,0-0.3-0.1-0.3-0.3c0-0.8,0-1.6,0-2.3c0-0.2,0.1-0.3,0.3-0.3c2.7,0,5.5,0,8.2,0c0.2,0,0.3,0.1,0.3,0.3c0,0.8,0,1.6,0,2.4
		c0,0.2,0.1,0.3,0.3,0.3c0.8,0,1.6,0,2.4,0c0.2,0,0.3-0.1,0.3-0.3c0-0.8,0-1.6,0-2.4c0-0.2,0.1-0.3,0.3-0.3c2.7,0,5.5,0,8.2,0
		c0.2,0,0.3,0.1,0.3,0.3c0,0.8,0,1.6,0,2.4c0,0.2-0.1,0.3-0.3,0.3c-1.7,0-3.5,0-5.2,0c-0.3,0-0.3,0.1-0.3,0.3c0,0.8,0,1.6,0,2.3
		c0,0.2-0.1,0.3-0.3,0.3c-0.8,0-1.6,0-2.3,0c-0.3,0-0.3,0.1-0.3,0.3c0,3.7,0,7.3,0,11c0,0.3-0.1,0.4-0.4,0.4c-0.8,0-1.5,0-2.3,0
		c-0.2,0-0.3,0.1-0.3,0.3c0,0.8,0,1.6,0,2.4c0,0.2-0.1,0.3-0.3,0.3c-0.8,0-1.6,0-2.4,0c-0.2,0-0.3,0.1-0.3,0.3c0,0.8,0,1.6,0,2.4
		c0,0.2-0.1,0.3-0.3,0.3c-1.9,0-3.7,0-5.5,0c-1.9,0-3.7,0-5.6,0c-0.2,0-0.2,0.1-0.2,0.3c0,0.8,0,1.6,0,2.4c0,0.2,0.1,0.3,0.3,0.3
		c0.9,0,1.7,0,2.6,0c0,1.9,0,3.7,0,5.5c0,0.3-0.1,0.3-0.3,0.3c-1.7,0-3.5,0-5.2,0c-0.2,0-0.3-0.1-0.3-0.3c0-0.8,0-1.6,0-2.3
		c0-0.2-0.1-0.3-0.3-0.3c-0.8,0-1.6,0-2.3,0c-0.2,0-0.3-0.1-0.3-0.3c0-0.8,0-1.6,0-2.3c0-0.2-0.1-0.3-0.3-0.3c-0.8,0-1.6,0-2.3,0
		c-0.2,0-0.3-0.1-0.3-0.3c0-0.8,0-1.6,0-2.3c0-0.2-0.1-0.3-0.3-0.3c-0.9,0-1.7,0-2.6,0c0-0.9,0-1.7,0-2.6c0-0.2-0.1-0.3-0.3-0.3
		c-0.8,0-1.6,0-2.4,0c-0.2,0-0.3-0.1-0.3-0.3c0-0.8,0-1.6,0-2.3c0-0.3-0.1-0.3-0.3-0.3c-0.7,0-1.5,0-2.2,0c-0.3,0-0.4,0-0.4-0.4
		c0-0.7,0-1.5,0-2.2c0-0.3-0.1-0.4-0.4-0.4c-1.7,0-3.4,0-5.2,0c-0.3,0-0.3-0.1-0.3-0.3c0-0.8,0-1.5,0-2.3c0-0.3-0.1-0.4-0.4-0.4
		c-1.7,0-3.4,0-5.1,0c-0.3,0-0.4-0.1-0.4-0.4c0-0.7,0-1.4,0-2.1c0-0.3-0.1-0.5-0.4-0.5C26.2,46.8,24.4,46.8,22.7,46.8z M38.7,46.8
		c0.4,0,0.9,0,1.3,0c0.2,0,0.2-0.1,0.2-0.2c0-0.8,0-1.7,0-2.5c0-0.2-0.1-0.2-0.2-0.2c-0.8,0-1.7,0-2.5,0c-0.2,0-0.2,0.1-0.2,0.2
		c0,0.8,0,1.7,0,2.5c0,0.2,0.1,0.2,0.2,0.2C37.8,46.8,38.3,46.8,38.7,46.8z"/>
	<path class="st1" d="M22.7,46.8c1.8,0,4.1,0,5.9,0c0.4,0,0.5,0.1,0.4,0.5c0,0.7,0,1.4,0,2.1c0,0.3,0.1,0.4,0.4,0.4
		c1.7,0,3.4,0,5.1,0c0.3,0,0.4,0.1,0.4,0.4c0,0.8,0,1.5,0,2.3c0,0.3,0.1,0.3,0.3,0.3c1.7,0,3.4,0,5.2,0c0.3,0,0.4,0.1,0.4,0.4
		c0,0.7,0,1.5,0,2.2c0,0.3,0.1,0.4,0.4,0.4c0.7,0,1.5,0,2.2,0c0.3,0,0.4,0,0.3,0.3c0,0.8,0,1.6,0,2.3c0,0.2,0.1,0.3,0.3,0.3
		c0.8,0,1.6,0,2.4,0c0.2,0,0.3,0.1,0.3,0.3c0,0.9,0,1.7,0,2.6l0,0c-2,0-3.9,0-5.8,0c-0.8,0-1.7,0-2.5,0c-0.4,0-0.5-0.1-0.5-0.5
		c0-0.7,0-1.4,0-2.1c0-0.3-0.1-0.4-0.3-0.4c-1.7,0-3.4,0-5.1,0c-0.3,0-0.4-0.1-0.4-0.4c0-0.7,0-1.4,0-2.2c0-0.3-0.1-0.4-0.4-0.4
		c-0.8,0-1.5,0-2.3,0c-0.2,0-0.3-0.1-0.3-0.3c0-0.7,0-1.5,0-2.2c0-0.3-0.1-0.4-0.4-0.4c-0.7,0-1.5,0-2.2,0c-0.3,0-0.3-0.1-0.3-0.3
		c0-0.8,0-1.5,0-2.3c0-0.2-0.1-0.3-0.3-0.3c-0.8,0-2,0-2.8,0c-0.2,0-0.3-0.1-0.3-0.3C22.7,48.5,22.6,47.7,22.7,46.8z"/>
	<path class="st2" d="M40.9,61.6c2,0,3.9,0,5.8,0c0,1.8,0,3.7,0,5.5c0,0.3-0.1,0.4-0.3,0.3c-0.8,0-1.5,0-2.3,0c-0.2,0-0.3,0-0.3-0.3
		c0-0.8,0-1.6,0-2.3c0-0.2,0-0.3-0.3-0.3c-0.8,0-1.6,0-2.3,0c-0.2,0-0.3,0-0.3-0.3C41,63.3,40.9,62.5,40.9,61.6z"/>
	<path class="st1" d="M61.1,64.6c-0.9,0-1.7,0-2.6,0c-0.2,0-0.3-0.1-0.3-0.3c0-0.8,0-1.6,0-2.4c0-0.2,0-0.3,0.2-0.3
		c1.9,0,3.7,0,5.6,0c0,0.8,0,1.7,0,2.5c0,0.3-0.1,0.4-0.4,0.4C62.8,64.6,61.9,64.6,61.1,64.6z"/>
	<path class="st3" d="M38.7,46.8c-0.4,0-0.8,0-1.2,0c-0.2,0-0.2,0-0.2-0.2c0-0.8,0-1.7,0-2.5c0-0.2,0-0.2,0.2-0.2c0.8,0,1.7,0,2.5,0
		c0.2,0,0.2,0,0.2,0.2c0,0.8,0,1.7,0,2.5c0,0.2,0,0.2-0.2,0.2C39.5,46.8,39.1,46.8,38.7,46.8z"/>
</g>
</svg>
