<?xml version="1.0" encoding="UTF-8"?>
<svg id="Layer_1" xmlns="http://www.w3.org/2000/svg" viewBox="0 0 2560 2560">
    <defs>
        <style>.cls-1{fill:#fdb321;}.cls-2{fill:#cc4928;}.cls-3{fill:#1f2128;}.cls-4{fill:#349ad5;}</style>
    </defs>
    <path class="cls-1" d="M1906.22,2441.5h-8.55c-168.74,0-305.52-136.79-305.52-305.52s136.79-305.52,305.52-305.52h8.55c168.74,0,305.52,136.79,305.52,305.52s-136.79,305.52-305.52,305.52Z" />
    <path class="cls-3" d="M1203.61,2441.5H654.68c-168.74,0-305.52-136.79-305.52-305.52s136.79-305.52,305.52-305.52h548.93c168.74,0,305.52,136.79,305.52,305.52s-136.79,305.52-305.52,305.52Z" />
    <path class="cls-4" d="M662.32,729.55h-8.55c-168.74,0-305.52-136.79-305.52-305.52S485.04,118.5,653.78,118.5h8.55c168.74,0,305.52,136.79,305.52,305.52s-136.79,305.52-305.52,305.52Z" />
    <path class="cls-3" d="M1905.32,729.55h-548.93c-168.74,0-305.52-136.79-305.52-305.52s136.79-305.52,305.52-305.52h548.93c168.74,0,305.52,136.79,305.52,305.52s-136.79,305.52-305.52,305.52Z" />
    <path class="cls-2" d="M1203.48,1587.96H654.54c-168.74,0-305.52-136.79-305.52-305.52s136.79-305.52,305.52-305.52h548.93c168.74,0,305.52,136.79,305.52,305.52s-136.79,305.52-305.52,305.52Z" />
</svg>