<?xml version="1.0" encoding="UTF-8"?><svg id="Layer_1" xmlns="http://www.w3.org/2000/svg" viewBox="0 0 468.44 382.47"><defs><style>.cls-1{fill:#60fbd0;}</style></defs><path class="cls-1" d="m419.74,0c-26.9,0-48.71,21.81-48.71,48.71,0,14.13,6.02,26.85,15.63,35.75l-22.31,106.21h-20.8v-108c0-18.83-15.32-34.15-34.15-34.15H34.15C15.32,48.51,0,63.83,0,82.66v265.66c0,18.83,15.32,34.15,34.15,34.15h275.24c18.83,0,34.15-15.32,34.15-34.15v-111.2h58.51l29.66-141.19c21.11-5.34,36.73-24.45,36.73-47.22,0-26.9-21.81-48.71-48.71-48.71ZM110.01,267.46c0,6.01-4.92,10.93-10.93,10.93h-48.83c-6.01,0-10.93-4.92-10.93-10.93v-107.8c0-6.01,4.92-10.93,10.93-10.93h48.83c6.01,0,10.93,4.92,10.93,10.93v107.8Zm97.63,0c0,6.01-4.92,10.93-10.93,10.93h-48.83c-6.01,0-10.93-4.92-10.93-10.93v-107.8c0-6.01,4.92-10.93,10.93-10.93h48.83c6.01,0,10.93,4.92,10.93,10.93v107.8Zm97.63,0c0,6.01-4.92,10.93-10.93,10.93h-48.83c-6.01,0-10.93-4.92-10.93-10.93v-107.8c0-6.01,4.92-10.93,10.93-10.93h48.83c6.01,0,10.93,4.92,10.93,10.93v107.8Z"/></svg>