<?xml version="1.0" standalone="no"?>
<!DOCTYPE svg PUBLIC "-//W3C//DTD SVG 20010904//EN"
 "http://www.w3.org/TR/2001/REC-SVG-20010904/DTD/svg10.dtd">
<svg version="1.0" xmlns="http://www.w3.org/2000/svg"
 width="511.000000pt" height="511.000000pt" viewBox="0 0 511.000000 511.000000"
 preserveAspectRatio="xMidYMid meet">

<g transform="translate(0.000000,511.000000) scale(0.100000,-0.100000)"
fill="#000000" stroke="none">
<path d="M1970 4590 c0 -5 5 -10 10 -10 6 0 10 5 10 10 0 6 -4 10 -10 10 -5 0
-10 -4 -10 -10z"/>
<path d="M3110 4590 c0 -5 5 -10 10 -10 6 0 10 5 10 10 0 6 -4 10 -10 10 -5 0
-10 -4 -10 -10z"/>
<path d="M1946 4501 c-4 -5 -2 -12 3 -15 5 -4 12 -2 15 3 4 5 2 12 -3 15 -5 4
-12 2 -15 -3z"/>
<path d="M3130 4499 c0 -6 -6 -17 -14 -25 -8 -8 -19 -14 -25 -14 -6 0 -11 -7
-11 -16 0 -8 -4 -12 -10 -9 -6 4 -10 -20 -10 -65 0 -70 12 -100 39 -100 6 0
11 -5 11 -11 0 -14 25 -39 39 -39 6 0 11 -7 11 -16 0 -8 5 -12 10 -9 12 8 13
82 1 89 -5 3 -11 -1 -15 -9 -3 -8 -10 -15 -16 -15 -14 0 -13 27 3 34 10 5 10
7 0 12 -7 3 -13 12 -13 19 0 7 6 16 13 19 10 5 10 7 0 12 -7 3 -13 12 -13 19
0 7 6 16 13 19 10 5 10 7 0 12 -7 3 -13 12 -13 19 0 7 6 16 13 18 9 4 8 8 -3
16 -8 5 -11 13 -7 17 4 4 13 2 19 -4 15 -15 28 -16 28 -2 0 6 -7 10 -15 10 -8
0 -15 7 -15 15 0 8 -4 15 -10 15 -5 0 -10 -5 -10 -11z"/>
<path d="M1920 4470 c0 -5 5 -10 10 -10 6 0 10 5 10 10 0 6 -4 10 -10 10 -5 0
-10 -4 -10 -10z"/>
<path d="M1962 4464 c-11 -12 -11 -18 -1 -30 10 -13 10 -17 -2 -26 -11 -7 -11
-11 -1 -15 6 -2 12 -11 12 -18 0 -7 -6 -16 -12 -19 -10 -5 -10 -7 0 -12 6 -3
12 -12 12 -19 0 -7 -6 -16 -12 -19 -10 -5 -10 -7 0 -12 15 -7 16 -34 2 -34 -6
0 -13 7 -16 15 -12 31 -24 13 -24 -34 0 -30 -5 -51 -12 -54 -7 -2 -10 -8 -6
-12 8 -9 38 18 38 34 0 6 7 11 16 11 8 0 12 5 9 10 -3 6 1 10 9 10 9 0 16 5
16 11 0 14 25 39 39 39 7 0 11 26 11 66 0 59 -3 68 -29 95 -34 33 -32 33 -49
13z"/>
<path d="M1920 4420 c0 -5 5 -10 10 -10 6 0 10 5 10 10 0 6 -4 10 -10 10 -5 0
-10 -4 -10 -10z"/>
<path d="M3155 4420 c4 -6 11 -8 16 -5 14 9 11 15 -7 15 -8 0 -12 -5 -9 -10z"/>
<path d="M1926 4381 c-4 -7 -5 -15 -2 -18 9 -9 19 4 14 18 -4 11 -6 11 -12 0z"/>
<path d="M3156 4381 c-4 -5 -2 -12 3 -15 5 -4 12 -2 15 3 4 5 2 12 -3 15 -5 4
-12 2 -15 -3z"/>
<path d="M1920 4331 c0 -6 5 -13 10 -16 6 -3 10 1 10 9 0 9 -4 16 -10 16 -5 0
-10 -4 -10 -9z"/>
<path d="M3156 4331 c-4 -5 -2 -12 3 -15 5 -4 12 -2 15 3 4 5 2 12 -3 15 -5 4
-12 2 -15 -3z"/>
<path d="M3180 4180 c0 -5 5 -10 10 -10 6 0 10 5 10 10 0 6 -4 10 -10 10 -5 0
-10 -4 -10 -10z"/>
<path d="M1900 4130 c0 -5 5 -10 10 -10 6 0 10 5 10 10 0 6 -4 10 -10 10 -5 0
-10 -4 -10 -10z"/>
<path d="M2525 4130 c3 -5 15 -10 25 -10 10 0 22 5 25 10 4 6 -7 10 -25 10
-18 0 -29 -4 -25 -10z"/>
<path d="M3180 4130 c0 -5 5 -10 10 -10 6 0 10 5 10 10 0 6 -4 10 -10 10 -5 0
-10 -4 -10 -10z"/>
<path d="M1900 4086 c0 -9 5 -16 10 -16 6 0 10 4 10 9 0 6 -4 13 -10 16 -5 3
-10 -1 -10 -9z"/>
<path d="M3180 4086 c0 -9 5 -16 10 -16 6 0 10 4 10 9 0 6 -4 13 -10 16 -5 3
-10 -1 -10 -9z"/>
<path d="M1983 4055 c-7 -8 -13 -19 -13 -25 0 -5 -4 -10 -10 -10 -20 0 -9 -19
13 -22 16 -2 21 -9 19 -23 -2 -11 -8 -21 -13 -23 -5 -2 -9 -8 -9 -13 0 -14 47
-11 54 4 5 10 7 10 12 0 3 -7 14 -13 25 -13 11 0 22 -7 25 -15 4 -8 13 -15 21
-15 8 0 11 -4 8 -10 -3 -6 5 -10 18 -10 14 0 28 -7 32 -17 6 -17 7 -17 21 1
14 20 14 20 29 0 13 -17 14 -17 15 -1 0 21 30 23 30 2 0 -8 5 -15 10 -15 6 0
10 7 10 15 0 8 7 15 15 15 8 0 15 -6 15 -12 0 -21 58 -13 79 10 21 25 37 28
45 10 5 -10 7 -10 12 0 7 14 34 16 34 2 0 -5 5 -10 10 -10 6 0 10 11 10 25 0
16 6 25 16 25 13 0 11 5 -7 25 -18 18 -25 21 -27 10 -2 -8 -10 -15 -18 -15 -8
0 -14 -6 -14 -13 0 -21 -37 -13 -58 11 -11 12 -29 22 -41 22 -12 0 -21 6 -21
15 0 10 -11 15 -35 15 -19 0 -35 5 -35 10 0 6 -11 10 -25 10 -14 0 -25 5 -25
10 0 6 -16 10 -35 10 -22 0 -38 6 -41 15 -8 21 -133 21 -151 0z m517 -113 c0
-13 -12 -22 -22 -16 -10 6 -1 24 13 24 5 0 9 -4 9 -8z"/>
<path d="M2460 4060 c0 -5 9 -10 20 -10 11 0 20 5 20 10 0 6 -9 10 -20 10 -11
0 -20 -4 -20 -10z"/>
<path d="M2600 4060 c0 -5 9 -10 20 -10 11 0 20 5 20 10 0 6 -9 10 -20 10 -11
0 -20 -4 -20 -10z"/>
<path d="M2960 4055 c0 -10 -11 -15 -35 -15 -19 0 -35 -4 -35 -10 0 -5 -11
-10 -25 -10 -14 0 -25 -4 -25 -10 0 -5 -15 -10 -34 -10 -21 0 -36 -6 -40 -15
-3 -8 -13 -15 -23 -15 -10 0 -26 -10 -36 -23 -22 -29 -50 -28 -78 4 -14 16
-23 20 -26 12 -5 -14 -33 -18 -33 -6 0 4 12 18 27 30 14 13 23 26 18 31 -4 4
-10 1 -12 -5 -5 -15 -33 -18 -33 -4 0 5 8 12 18 16 15 6 14 8 -8 17 -28 11
-66 3 -87 -17 -12 -13 -10 -19 17 -45 17 -16 37 -30 45 -30 8 0 15 -4 15 -10
0 -14 28 -12 33 3 2 7 8 8 13 3 5 -5 4 -11 -3 -13 -15 -5 -18 -53 -3 -53 6 0
10 5 10 10 0 17 22 11 41 -12 11 -11 22 -18 27 -13 4 4 1 10 -5 12 -16 6 -17
23 -2 23 13 0 39 -25 39 -38 0 -6 -6 -12 -12 -15 -7 -2 -10 -8 -6 -12 4 -4 15
0 24 10 9 9 26 14 36 12 11 -3 22 1 25 9 7 20 33 17 33 -3 1 -16 2 -16 15 1
15 19 15 19 29 1 13 -18 13 -18 24 1 11 19 11 19 26 -1 13 -19 15 -19 21 -2 4
9 16 17 26 17 10 0 19 5 19 10 0 6 7 10 15 10 8 0 15 7 15 15 0 9 9 15 24 15
13 0 27 6 30 13 5 10 7 10 12 0 6 -13 54 -19 54 -7 0 3 -7 12 -15 20 -23 24
-18 44 10 44 14 0 25 5 25 10 0 6 -4 10 -10 10 -5 0 -10 7 -10 15 0 8 -7 15
-15 15 -8 0 -15 5 -15 10 0 6 -30 10 -70 10 -56 0 -70 -3 -70 -15z m-430 -45
c0 -5 -7 -10 -15 -10 -8 0 -15 5 -15 10 0 6 7 10 15 10 8 0 15 -4 15 -10z"/>
<path d="M905 3990 c-3 -5 1 -10 9 -10 9 0 16 5 16 10 0 6 -4 10 -9 10 -6 0
-13 -4 -16 -10z"/>
<path d="M4170 3990 c0 -5 5 -10 10 -10 6 0 10 5 10 10 0 6 -4 10 -10 10 -5 0
-10 -4 -10 -10z"/>
<path d="M785 3960 c4 -6 11 -8 16 -5 14 9 11 15 -7 15 -8 0 -12 -5 -9 -10z"/>
<path d="M4290 3960 c0 -5 5 -10 10 -10 6 0 10 5 10 10 0 6 -4 10 -10 10 -5 0
-10 -4 -10 -10z"/>
<path d="M740 3940 c0 -5 5 -10 10 -10 6 0 10 5 10 10 0 6 -4 10 -10 10 -5 0
-10 -4 -10 -10z"/>
<path d="M830 3940 c0 -5 5 -10 10 -10 6 0 10 5 10 10 0 6 -4 10 -10 10 -5 0
-10 -4 -10 -10z"/>
<path d="M4240 3940 c0 -5 7 -10 16 -10 8 0 12 5 9 10 -3 6 -10 10 -16 10 -5
0 -9 -4 -9 -10z"/>
<path d="M4340 3940 c0 -5 5 -10 10 -10 6 0 10 5 10 10 0 6 -4 10 -10 10 -5 0
-10 -4 -10 -10z"/>
<path d="M860 3910 c0 -5 5 -10 10 -10 6 0 10 5 10 10 0 6 -4 10 -10 10 -5 0
-10 -4 -10 -10z"/>
<path d="M4200 3900 c-21 -21 -50 -27 -50 -10 0 17 -20 11 -46 -15 -14 -14
-31 -25 -39 -25 -9 0 -15 -10 -15 -25 0 -29 15 -33 29 -8 8 14 10 11 16 -20 7
-37 25 -52 25 -21 0 9 13 30 30 45 35 34 70 39 70 9 0 -15 -7 -20 -25 -20 -20
0 -25 -5 -25 -25 0 -26 24 -35 33 -12 4 9 8 8 16 -3 5 -8 14 -11 18 -6 4 5 2
11 -4 13 -15 5 -17 33 -3 33 6 0 10 11 10 25 0 14 -4 25 -10 25 -5 0 -10 9
-10 20 0 11 5 20 10 20 6 0 10 5 10 10 0 16 -18 12 -40 -10z m-80 -60 c0 -5
-4 -10 -10 -10 -5 0 -10 5 -10 10 0 6 5 10 10 10 6 0 10 -4 10 -10z"/>
<path d="M888 3904 c-5 -4 -8 -14 -8 -22 0 -8 -7 -20 -16 -26 -15 -12 -10 -46
7 -46 5 0 9 -7 9 -15 0 -8 -7 -15 -15 -15 -8 0 -15 -4 -15 -10 0 -14 27 -12
34 3 5 10 7 10 12 0 10 -23 34 -14 34 12 0 20 -5 25 -25 25 -18 0 -25 5 -25
20 0 30 35 25 70 -9 20 -18 28 -34 24 -45 -4 -11 -1 -16 10 -16 22 0 22 65 0
74 -8 3 -12 11 -8 17 4 7 16 0 33 -20 28 -32 41 -32 41 1 0 10 -7 18 -15 18
-8 0 -25 11 -39 25 -26 26 -46 32 -46 15 0 -17 -48 -11 -52 6 -2 9 -6 12 -10
8z"/>
<path d="M740 3890 c0 -5 5 -10 10 -10 6 0 10 5 10 10 0 6 -4 10 -10 10 -5 0
-10 -4 -10 -10z"/>
<path d="M780 3892 c0 -10 33 -42 43 -42 12 0 8 21 -7 36 -16 15 -36 19 -36 6z"/>
<path d="M4283 3885 c-13 -14 -17 -35 -8 -35 8 0 45 34 45 42 0 13 -24 8 -37
-7z"/>
<path d="M4340 3890 c0 -5 5 -10 10 -10 6 0 10 5 10 10 0 6 -4 10 -10 10 -5 0
-10 -4 -10 -10z"/>
<path d="M2405 3870 c-3 -5 1 -10 10 -10 9 0 13 5 10 10 -3 6 -8 10 -10 10 -2
0 -7 -4 -10 -10z"/>
<path d="M2455 3870 c-3 -5 -1 -10 4 -10 6 0 11 5 11 10 0 6 -2 10 -4 10 -3 0
-8 -4 -11 -10z"/>
<path d="M2530 3865 c0 -8 -5 -15 -11 -15 -14 0 -39 -25 -39 -39 0 -6 -5 -11
-11 -11 -6 0 -17 -7 -25 -15 -13 -13 -13 -17 -2 -29 23 -22 53 -27 74 -11 23
17 51 19 56 3 6 -17 64 -14 82 5 20 20 20 27 0 27 -8 0 -12 5 -9 10 3 6 -1 10
-9 10 -9 0 -16 5 -16 11 0 6 -6 17 -14 25 -8 8 -19 14 -25 14 -6 0 -11 7 -11
15 0 8 -9 15 -20 15 -11 0 -20 -7 -20 -15z"/>
<path d="M2625 3870 c-3 -5 -1 -10 4 -10 6 0 11 5 11 10 0 6 -2 10 -4 10 -3 0
-8 -4 -11 -10z"/>
<path d="M2380 3840 c0 -5 5 -10 10 -10 6 0 10 5 10 10 0 6 -4 10 -10 10 -5 0
-10 -4 -10 -10z"/>
<path d="M2430 3840 c0 -5 5 -10 10 -10 6 0 10 5 10 10 0 6 -4 10 -10 10 -5 0
-10 -4 -10 -10z"/>
<path d="M2650 3840 c0 -5 5 -10 10 -10 6 0 10 5 10 10 0 6 -4 10 -10 10 -5 0
-10 -4 -10 -10z"/>
<path d="M760 3820 c0 -5 5 -10 10 -10 6 0 10 5 10 10 0 6 -4 10 -10 10 -5 0
-10 -4 -10 -10z"/>
<path d="M1870 3820 c0 -5 5 -10 10 -10 6 0 10 5 10 10 0 6 -4 10 -10 10 -5 0
-10 -4 -10 -10z"/>
<path d="M3210 3820 c0 -5 5 -10 11 -10 5 0 7 5 4 10 -3 6 -8 10 -11 10 -2 0
-4 -4 -4 -10z"/>
<path d="M4320 3820 c0 -5 5 -10 10 -10 6 0 10 5 10 10 0 6 -4 10 -10 10 -5 0
-10 -4 -10 -10z"/>
<path d="M2020 3793 c0 -7 -6 -13 -14 -13 -8 0 -17 -6 -19 -12 -4 -10 -8 -10
-15 1 -9 13 -13 13 -27 1 -14 -12 -18 -12 -25 0 -5 8 -12 11 -15 8 -4 -4 2
-17 14 -29 17 -19 21 -20 21 -6 0 9 7 17 15 17 9 0 15 -9 15 -25 0 -22 4 -25
34 -25 21 0 36 6 40 15 8 22 59 19 79 -5 12 -14 17 -38 17 -75 0 -30 5 -55 10
-55 6 0 10 15 10 34 0 19 6 37 13 40 10 5 10 7 0 12 -7 3 -13 12 -13 20 0 8
-4 14 -10 14 -5 0 -10 16 -10 35 0 35 -22 50 -33 23 -4 -10 -8 -9 -17 2 -9 11
-13 12 -17 3 -2 -7 -16 -13 -29 -13 -15 0 -24 -6 -24 -15 0 -8 -7 -15 -15 -15
-8 0 -15 7 -15 15 0 8 7 15 15 15 8 0 15 4 15 9 0 5 10 11 23 13 12 2 20 7 17
13 -8 14 -40 13 -40 -2z"/>
<path d="M3019 3779 c-20 -27 -25 -29 -35 -15 -17 24 -24 19 -24 -15 0 -21 -9
-40 -26 -55 -21 -20 -23 -25 -10 -30 10 -4 16 -19 16 -40 0 -19 5 -34 10 -34
6 0 10 25 10 55 0 37 5 61 17 75 20 24 71 27 79 5 4 -9 19 -15 40 -15 29 0 34
3 34 24 0 13 6 26 13 29 6 2 9 8 5 12 -8 9 -38 -18 -38 -34 0 -6 -7 -11 -15
-11 -18 0 -20 27 -3 32 10 4 9 8 -2 19 -30 30 -47 29 -71 -2z m61 -9 c0 -5
-11 -10 -25 -10 -14 0 -25 5 -25 10 0 6 11 10 25 10 14 0 25 -4 25 -10z"/>
<path d="M810 3790 c0 -5 5 -10 10 -10 6 0 10 5 10 10 0 6 -4 10 -10 10 -5 0
-10 -4 -10 -10z"/>
<path d="M1070 3790 c0 -5 4 -10 9 -10 6 0 13 5 16 10 3 6 -1 10 -9 10 -9 0
-16 -4 -16 -10z"/>
<path d="M4000 3790 c0 -5 7 -10 15 -10 8 0 15 5 15 10 0 6 -7 10 -15 10 -8 0
-15 -4 -15 -10z"/>
<path d="M4260 3790 c0 -5 7 -10 15 -10 8 0 15 5 15 10 0 6 -7 10 -15 10 -8 0
-15 -4 -15 -10z"/>
<path d="M3180 3770 c0 -5 5 -10 10 -10 6 0 10 5 10 10 0 6 -4 10 -10 10 -5 0
-10 -4 -10 -10z"/>
<path d="M1070 3745 c0 -8 -9 -15 -20 -15 -24 0 -25 -6 -6 -26 21 -20 35 -17
29 6 -4 14 0 20 11 20 9 0 16 7 16 15 0 8 -7 15 -15 15 -8 0 -15 -7 -15 -15z"/>
<path d="M3156 3751 c-4 -5 -2 -12 3 -15 5 -4 12 -2 15 3 4 5 2 12 -3 15 -5 4
-12 2 -15 -3z"/>
<path d="M4000 3745 c0 -8 7 -15 16 -15 11 0 14 -6 9 -20 -7 -24 10 -27 31 -6
19 20 18 26 -6 26 -11 0 -20 7 -20 15 0 8 -7 15 -15 15 -8 0 -15 -7 -15 -15z"/>
<path d="M1150 3726 c0 -8 -3 -21 -6 -30 -4 -11 -1 -16 10 -16 11 0 16 9 16
30 0 17 -4 30 -10 30 -5 0 -10 -6 -10 -14z"/>
<path d="M3930 3710 c0 -16 5 -30 10 -30 6 0 10 14 10 30 0 17 -4 30 -10 30
-5 0 -10 -13 -10 -30z"/>
<path d="M2190 3700 c0 -5 5 -10 11 -10 5 0 7 5 4 10 -3 6 -8 10 -11 10 -2 0
-4 -4 -4 -10z"/>
<path d="M2235 3701 c-6 -11 9 -23 19 -14 9 9 7 23 -3 23 -6 0 -12 -4 -16 -9z"/>
<path d="M2840 3701 c0 -6 5 -13 10 -16 6 -3 10 1 10 9 0 9 -4 16 -10 16 -5 0
-10 -4 -10 -9z"/>
<path d="M2890 3700 c0 -5 5 -10 10 -10 6 0 10 5 10 10 0 6 -4 10 -10 10 -5 0
-10 -4 -10 -10z"/>
<path d="M1186 3669 c-10 -12 -14 -24 -10 -27 4 -4 9 -1 11 6 3 6 11 12 19 12
15 0 19 16 6 24 -5 3 -16 -4 -26 -15z"/>
<path d="M3880 3679 c0 -6 6 -17 14 -25 14 -13 36 -19 36 -9 0 8 -34 45 -42
45 -5 0 -8 -5 -8 -11z"/>
<path d="M2260 3671 c0 -5 6 -12 13 -15 10 -5 10 -7 0 -12 -19 -8 -16 -51 3
-58 12 -4 15 -15 12 -36 -3 -20 0 -30 8 -30 9 0 11 10 8 33 -5 37 5 57 32 61
10 2 17 7 14 12 -5 11 -34 6 -38 -7 -2 -5 -10 -9 -18 -9 -17 0 -19 27 -2 32 9
3 8 9 -4 21 -19 19 -28 22 -28 8z"/>
<path d="M2815 3670 c3 -5 10 -10 16 -10 5 0 9 5 9 10 0 6 -7 10 -16 10 -8 0
-12 -4 -9 -10z"/>
<path d="M1229 3642 c-8 -9 -13 -25 -11 -35 4 -22 28 -17 24 5 -1 9 4 18 13
22 8 3 15 10 15 16 0 15 -23 11 -41 -8z"/>
<path d="M2790 3650 c0 -5 5 -10 10 -10 6 0 10 5 10 10 0 6 -4 10 -10 10 -5 0
-10 -4 -10 -10z"/>
<path d="M3830 3650 c0 -6 7 -13 15 -16 10 -4 13 -13 10 -25 -4 -13 -1 -19 9
-19 19 0 20 29 2 53 -14 19 -36 23 -36 7z"/>
<path d="M1316 3618 c-7 -27 5 -41 27 -32 18 7 23 24 7 24 -5 0 -10 7 -10 15
0 23 -17 18 -24 -7z"/>
<path d="M2387 3632 c-9 -13 14 -42 32 -42 6 0 11 -20 11 -46 0 -49 16 -74 49
-74 23 0 29 -25 9 -34 -10 -5 -10 -7 0 -12 7 -3 12 -25 12 -54 l0 -47 50 0 50
0 -2 44 c-1 29 4 48 13 55 11 7 11 11 2 15 -21 8 -15 33 7 33 11 0 20 5 20 10
0 6 -16 10 -35 10 l-35 0 0 50 0 50 40 0 40 0 0 -50 c0 -27 5 -50 10 -50 6 0
10 22 10 49 0 30 5 51 12 53 8 3 5 12 -10 28 -17 18 -22 20 -22 8 0 -9 6 -18
13 -21 6 -2 9 -8 4 -12 -4 -5 -13 -3 -19 3 -7 7 -27 12 -45 12 -20 0 -33 5
-33 13 0 7 -9 13 -20 13 -11 0 -20 -6 -20 -13 0 -8 -14 -13 -40 -13 -29 0 -40
4 -40 15 0 8 -4 15 -10 15 -5 0 -10 -7 -10 -15 0 -21 -28 -19 -32 3 -3 12 -6
14 -11 4z m63 -32 c0 -5 18 -10 40 -10 l40 0 0 -50 0 -50 -40 0 -40 0 0 50 c0
28 -4 50 -10 50 -5 0 -10 5 -10 10 0 6 5 10 10 10 6 0 10 -4 10 -10z m125
-170 c-3 -5 -17 -10 -31 -10 -13 0 -24 5 -24 10 0 6 14 10 31 10 17 0 28 -4
24 -10z m0 -60 c0 -18 -7 -26 -23 -28 -24 -4 -38 18 -28 44 3 9 15 14 28 12
16 -2 23 -10 23 -28z"/>
<path d="M2696 3631 c-4 -5 -2 -12 3 -15 5 -4 12 -2 15 3 4 5 2 12 -3 15 -5 4
-12 2 -15 -3z"/>
<path d="M2746 3633 c-10 -10 5 -23 25 -23 16 0 19 -7 19 -45 0 -25 5 -45 10
-45 6 0 10 16 10 35 0 24 5 35 15 35 17 0 21 35 5 45 -5 3 -10 -1 -10 -9 0 -9
-7 -16 -15 -16 -8 0 -15 4 -15 9 0 10 -36 21 -44 14z"/>
<path d="M3760 3625 c0 -8 -7 -15 -15 -15 -8 0 -15 -4 -15 -10 0 -5 4 -10 9
-10 5 0 16 -3 25 -6 13 -5 16 1 16 25 0 17 -4 31 -10 31 -5 0 -10 -7 -10 -15z"/>
<path d="M1410 3600 c0 -5 7 -10 15 -10 8 0 15 -6 15 -14 0 -8 6 -16 13 -19 7
-3 2 -12 -16 -27 -28 -22 -28 -22 -8 -41 22 -20 51 -25 51 -9 0 6 -4 10 -10
10 -5 0 -10 11 -10 25 0 20 5 25 24 25 13 0 26 -6 29 -12 2 -7 8 -10 12 -6 9
8 -18 38 -34 38 -6 0 -11 5 -11 11 0 17 -27 39 -49 39 -12 0 -21 -4 -21 -10z"/>
<path d="M3607 3568 c-21 -22 -35 -43 -31 -46 3 -4 9 -1 11 6 6 17 53 15 53
-2 0 -8 -7 -21 -15 -30 -20 -20 -19 -26 6 -26 20 0 49 21 49 36 0 3 -10 16
-22 27 -16 13 -19 21 -10 24 6 3 12 11 12 19 0 8 7 14 15 14 8 0 15 5 15 10 0
24 -48 5 -83 -32z"/>
<path d="M2165 3580 c-3 -5 1 -10 10 -10 9 0 13 5 10 10 -3 6 -8 10 -10 10 -2
0 -7 -4 -10 -10z"/>
<path d="M2915 3580 c-3 -5 -1 -10 4 -10 6 0 11 5 11 10 0 6 -2 10 -4 10 -3 0
-8 -4 -11 -10z"/>
<path d="M2238 3573 c7 -3 16 -2 19 1 4 3 -2 6 -13 5 -11 0 -14 -3 -6 -6z"/>
<path d="M1340 3550 c0 -5 5 -10 10 -10 6 0 10 5 10 10 0 6 -4 10 -10 10 -5 0
-10 -4 -10 -10z"/>
<path d="M2190 3550 c0 -5 9 -10 20 -10 11 0 20 5 20 10 0 6 -9 10 -20 10 -11
0 -20 -4 -20 -10z"/>
<path d="M2870 3550 c0 -5 9 -10 20 -10 11 0 20 5 20 10 0 6 -9 10 -20 10 -11
0 -20 -4 -20 -10z"/>
<path d="M3730 3550 c0 -5 7 -10 15 -10 8 0 15 5 15 10 0 6 -7 10 -15 10 -8 0
-15 -4 -15 -10z"/>
<path d="M1530 3500 c0 -5 4 -10 9 -10 5 0 12 -16 15 -35 4 -19 11 -35 16 -35
15 0 12 60 -4 76 -17 16 -36 19 -36 4z"/>
<path d="M2310 3500 c0 -5 20 -10 45 -10 25 0 45 5 45 10 0 6 -20 10 -45 10
-25 0 -45 -4 -45 -10z"/>
<path d="M2700 3500 c0 -5 20 -10 45 -10 25 0 45 5 45 10 0 6 -20 10 -45 10
-25 0 -45 -4 -45 -10z"/>
<path d="M3532 3495 c-7 -8 -15 -28 -18 -45 -5 -23 -3 -30 10 -30 12 0 16 9
16 35 0 19 5 35 10 35 6 0 10 5 10 10 0 14 -13 12 -28 -5z"/>
<path d="M1610 3410 c0 -5 5 -10 10 -10 6 0 10 -7 10 -15 0 -9 9 -15 23 -15
12 0 31 -11 41 -25 10 -14 27 -25 37 -25 14 0 19 7 19 25 0 26 -25 35 -33 13
-3 -9 -13 -3 -28 15 -14 15 -32 27 -42 27 -9 0 -17 5 -17 10 0 6 -4 10 -10 10
-5 0 -10 -4 -10 -10z"/>
<path d="M3470 3410 c0 -5 -11 -10 -25 -10 -16 0 -25 -6 -25 -15 0 -8 -6 -15
-14 -15 -8 0 -17 -6 -19 -12 -4 -10 -8 -10 -15 1 -13 19 -31 5 -25 -19 6 -23
43 -27 43 -5 0 8 7 15 15 15 8 0 15 5 15 10 0 6 11 10 25 10 16 0 25 6 25 15
0 8 5 15 10 15 6 0 10 5 10 10 0 6 -4 10 -10 10 -5 0 -10 -4 -10 -10z"/>
<path d="M1780 3315 c0 -3 9 -15 20 -27 11 -13 20 -16 20 -9 0 7 -6 19 -14 27
-15 14 -26 18 -26 9z"/>
<path d="M3293 3305 c-21 -24 -14 -40 7 -17 11 12 20 24 20 27 0 10 -15 4 -27
-10z"/>
<path d="M1970 3276 c0 -14 -5 -26 -11 -26 -14 0 -39 -25 -39 -39 0 -17 40
-13 47 4 3 9 13 15 22 14 37 -3 51 2 51 19 0 16 -13 26 -62 50 -5 2 -8 -8 -8
-22z"/>
<path d="M2403 3293 c-31 -6 -29 -23 2 -23 14 0 25 -4 25 -10 0 -14 -47 -13
-52 1 -5 16 -88 18 -88 2 0 -7 9 -13 20 -13 11 0 20 -4 20 -10 0 -5 23 -10 50
-10 38 0 50 -4 50 -15 0 -8 3 -15 6 -15 3 0 12 7 20 15 9 8 23 15 33 15 14 0
17 6 13 25 -3 19 0 25 12 25 10 0 15 4 12 8 -5 8 -88 12 -123 5z"/>
<path d="M2573 3288 c-2 -5 3 -8 13 -8 12 0 15 -6 12 -25 -4 -20 0 -25 23 -30
16 -4 29 -11 29 -16 0 -5 5 -9 10 -9 6 0 10 7 10 15 0 11 12 15 45 15 25 0 45
5 45 10 0 6 11 10 25 10 14 0 25 6 25 13 0 16 -83 14 -88 -2 -5 -14 -52 -15
-52 -1 0 6 11 10 25 10 42 0 28 18 -17 23 -55 7 -99 4 -105 -5z"/>
<path d="M3073 3275 c-29 -32 -12 -51 40 -46 9 1 17 -4 17 -13 0 -9 8 -16 19
-16 31 0 33 17 6 38 -14 11 -25 27 -25 36 0 20 -40 21 -57 1z"/>
<path d="M671 3234 c0 -11 3 -14 6 -6 3 7 2 16 -1 19 -3 4 -6 -2 -5 -13z"/>
<path d="M1850 3240 c0 -5 12 -10 26 -10 14 0 23 4 19 10 -3 6 -15 10 -26 10
-10 0 -19 -4 -19 -10z"/>
<path d="M2120 3239 c0 -5 -18 -12 -40 -15 -44 -7 -55 -24 -15 -24 29 0 33
-15 8 -25 -17 -6 -17 -7 0 -19 21 -16 22 -26 2 -26 -8 0 -15 -5 -15 -11 0 -16
-30 -43 -38 -34 -4 4 -1 10 6 12 6 3 12 11 12 18 0 7 6 15 13 18 6 2 8 8 4 13
-4 5 -12 2 -18 -6 -8 -13 -10 -13 -18 0 -6 8 -14 11 -18 6 -4 -5 -2 -11 5 -13
6 -3 12 -11 12 -19 0 -17 -27 -19 -32 -2 -3 9 -9 8 -22 -5 -17 -16 -17 -18 0
-34 13 -13 19 -14 22 -5 2 6 10 12 18 12 20 0 20 -89 -1 -96 -8 -4 -15 -10
-15 -15 0 -5 7 -9 15 -9 12 0 15 -13 15 -60 0 -33 4 -60 10 -60 6 0 10 -7 10
-15 0 -8 -4 -15 -10 -15 -6 0 -10 -27 -10 -60 0 -33 4 -60 10 -60 6 0 10 23
10 50 0 29 5 50 11 50 20 0 39 -28 39 -58 0 -30 14 -42 51 -42 10 0 19 4 19
10 0 5 11 12 25 16 14 3 25 10 25 15 0 5 9 9 19 9 11 0 23 5 26 10 4 6 -8 10
-29 10 -20 0 -36 -4 -36 -10 0 -5 -7 -10 -15 -10 -8 0 -15 -4 -15 -10 0 -5
-11 -10 -25 -10 -18 0 -25 5 -25 20 0 17 7 20 40 20 29 0 40 4 40 15 0 10 11
15 35 15 19 0 35 -4 35 -10 0 -5 8 -10 18 -10 16 1 16 1 0 14 -25 18 -22 26 7
26 16 0 25 6 25 15 0 9 9 15 24 15 13 0 27 6 29 13 4 9 8 8 17 -3 9 -11 13
-12 17 -2 2 6 9 12 14 12 13 0 46 27 77 64 14 18 16 56 2 56 -5 0 -10 -4 -10
-9 0 -5 -11 -12 -25 -15 -14 -4 -25 -11 -25 -16 0 -6 -10 -10 -23 -10 -12 0
-31 -11 -41 -25 -10 -14 -27 -25 -37 -25 -11 0 -19 -4 -19 -10 0 -5 -11 -10
-25 -10 -16 0 -25 -6 -25 -16 0 -12 -6 -15 -24 -10 -16 4 -30 0 -40 -9 -21
-21 -136 -21 -136 0 0 8 -4 15 -10 15 -6 0 -10 27 -10 60 0 57 1 60 25 60 19
0 25 -5 25 -21 0 -11 6 -27 14 -35 17 -16 106 -20 106 -4 0 6 -16 10 -35 10
-19 0 -35 5 -35 10 0 15 117 13 123 -2 2 -8 8 -9 13 -4 5 5 4 11 -3 13 -7 3
-13 11 -13 19 0 11 16 14 69 14 52 0 70 4 75 15 3 8 15 15 26 15 11 0 20 5 20
10 0 6 7 10 15 10 8 0 15 9 15 20 0 11 -7 20 -15 20 -8 0 -15 -4 -15 -10 0 -5
-16 -10 -35 -10 -19 0 -35 -4 -35 -9 0 -5 -16 -12 -35 -15 -19 -4 -35 -11 -35
-16 0 -6 -11 -10 -25 -10 -14 0 -25 -4 -25 -10 0 -6 -29 -10 -66 -10 -41 0
-63 4 -59 10 3 6 1 10 -4 10 -6 0 -11 -4 -11 -10 0 -5 -7 -10 -15 -10 -8 0
-15 5 -15 10 0 6 -5 10 -11 10 -18 0 -39 27 -39 50 0 22 21 50 38 50 6 0 13 7
16 16 3 8 10 13 15 9 6 -3 8 -12 5 -20 -11 -27 56 -70 71 -45 8 13 105 13 105
0 0 -5 9 -10 20 -10 11 0 20 7 20 15 0 11 12 15 50 15 28 0 50 4 50 9 0 5 10
11 23 13 14 2 22 10 22 22 0 25 -19 31 -37 13 -8 -9 -35 -14 -68 -14 -31 0
-56 -5 -58 -12 -2 -7 -30 -11 -74 -11 -87 0 -106 15 -100 83 3 25 29 21 56 -8
19 -21 32 -25 79 -25 39 0 56 4 61 15 4 10 20 15 52 15 58 0 54 9 -5 12 -25 1
-45 7 -48 15 -3 7 -16 13 -29 13 -13 0 -24 5 -24 10 0 6 -27 10 -60 10 -33 0
-60 4 -60 9 0 5 -9 11 -20 14 -11 3 -20 1 -20 -4z m160 -74 c0 -10 -11 -15
-35 -15 -24 0 -35 5 -35 15 0 10 11 15 35 15 24 0 35 -5 35 -15z m-290 -75 c0
-5 -4 -10 -10 -10 -5 0 -10 5 -10 10 0 6 5 10 10 10 6 0 10 -4 10 -10z m410
-215 c0 -8 -4 -15 -10 -15 -5 0 -10 7 -10 15 0 8 5 15 10 15 6 0 10 -7 10 -15z"/>
<path d="M2942 3234 c-16 -11 -39 -15 -73 -12 -34 2 -49 -1 -49 -9 0 -7 -11
-13 -24 -13 -13 0 -26 -6 -29 -14 -4 -9 -24 -16 -54 -19 l-48 -3 48 -2 c32 -1
50 -7 53 -17 5 -11 22 -15 63 -15 48 0 59 3 75 25 10 14 27 25 37 25 15 0 19
-8 19 -36 0 -53 -17 -64 -98 -64 -44 0 -72 4 -74 11 -2 7 -27 12 -58 12 -30 0
-57 3 -60 7 -3 5 -14 10 -25 12 -14 2 -21 -3 -23 -19 -3 -19 1 -23 22 -23 14
0 26 -4 26 -10 0 -5 20 -10 45 -10 31 0 47 -5 51 -15 7 -17 44 -21 44 -5 0 6
23 10 50 10 28 0 50 -4 50 -10 0 -5 6 -10 13 -10 20 0 57 35 57 53 0 22 19 31
26 13 3 -9 10 -16 16 -16 17 0 38 -28 38 -50 0 -23 -21 -50 -39 -50 -6 0 -11
-4 -11 -10 0 -14 -27 -12 -34 3 -5 10 -7 10 -12 0 -7 -16 -124 -18 -124 -3 0
6 -11 10 -25 10 -14 0 -25 4 -25 10 0 5 -16 12 -35 16 -19 3 -35 10 -35 15 0
5 -16 9 -35 9 -19 0 -35 5 -35 10 0 6 -7 10 -15 10 -8 0 -15 -9 -15 -20 0 -11
7 -20 15 -20 8 0 15 -4 15 -10 0 -5 9 -10 20 -10 11 0 23 -7 26 -15 5 -11 23
-15 75 -15 53 0 69 -3 69 -14 0 -8 -6 -16 -12 -19 -8 -2 -9 -8 -4 -13 5 -5 11
-4 13 4 6 15 123 17 123 2 0 -5 -16 -10 -35 -10 -19 0 -35 -4 -35 -10 0 -5 23
-10 51 -10 31 0 48 4 44 10 -3 6 1 10 9 10 10 0 16 9 16 25 0 20 5 25 25 25
24 0 25 -3 25 -60 0 -33 4 -60 10 -60 6 0 10 26 10 59 0 38 5 61 13 65 10 5
10 7 0 12 -8 3 -13 25 -13 54 0 29 5 51 13 54 10 5 10 7 0 12 -7 3 -13 12 -13
19 0 7 6 15 13 18 6 2 8 8 4 13 -4 5 -13 2 -18 -6 -8 -11 -12 -12 -16 -2 -6
14 -33 16 -33 2 0 -5 7 -10 15 -10 8 0 15 -6 15 -14 0 -8 6 -16 13 -19 6 -2 9
-8 5 -12 -4 -4 -22 7 -40 25 -21 21 -28 35 -20 38 6 2 12 10 12 18 0 9 -4 12
-10 9 -5 -3 -10 1 -10 9 0 10 9 16 25 16 40 0 29 17 -15 24 -22 3 -40 11 -40
16 0 14 -12 12 -38 -6z m-54 -71 c2 -9 -8 -13 -32 -13 -34 0 -52 11 -39 24 11
11 66 2 71 -11z"/>
<path d="M3200 3240 c0 -5 11 -10 25 -10 14 0 25 5 25 10 0 6 -11 10 -25 10
-14 0 -25 -4 -25 -10z"/>
<path d="M4421 3234 c0 -11 3 -14 6 -6 3 7 2 16 -1 19 -3 4 -6 -2 -5 -13z"/>
<path d="M690 3210 c0 -5 9 -10 20 -10 11 0 20 5 20 10 0 6 -9 10 -20 10 -11
0 -20 -4 -20 -10z"/>
<path d="M4370 3210 c0 -5 9 -10 20 -10 11 0 20 5 20 10 0 6 -9 10 -20 10 -11
0 -20 -4 -20 -10z"/>
<path d="M740 3190 c0 -5 5 -10 10 -10 6 0 10 5 10 10 0 6 -4 10 -10 10 -5 0
-10 -4 -10 -10z"/>
<path d="M835 3190 c-3 -5 -1 -10 4 -10 6 0 11 5 11 10 0 6 -2 10 -4 10 -3 0
-8 -4 -11 -10z"/>
<path d="M1370 3190 c0 -5 5 -10 10 -10 6 0 10 5 10 10 0 6 -4 10 -10 10 -5 0
-10 -4 -10 -10z"/>
<path d="M1435 3191 c-6 -11 9 -23 19 -14 9 9 7 23 -3 23 -6 0 -12 -4 -16 -9z"/>
<path d="M3640 3190 c0 -5 5 -10 10 -10 6 0 10 5 10 10 0 6 -4 10 -10 10 -5 0
-10 -4 -10 -10z"/>
<path d="M3710 3190 c0 -5 5 -10 10 -10 6 0 10 5 10 10 0 6 -4 10 -10 10 -5 0
-10 -4 -10 -10z"/>
<path d="M4245 3190 c-3 -5 -1 -10 4 -10 6 0 11 5 11 10 0 6 -2 10 -4 10 -3 0
-8 -4 -11 -10z"/>
<path d="M4340 3190 c0 -5 5 -10 10 -10 6 0 10 5 10 10 0 6 -4 10 -10 10 -5 0
-10 -4 -10 -10z"/>
<path d="M570 3164 c0 -8 5 -12 10 -9 6 4 8 11 5 16 -9 14 -15 11 -15 -7z"/>
<path d="M715 3171 c-3 -5 -1 -12 5 -16 5 -3 10 1 10 9 0 18 -6 21 -15 7z"/>
<path d="M765 3170 c-3 -5 -1 -10 4 -10 6 0 11 5 11 10 0 6 -2 10 -4 10 -3 0
-8 -4 -11 -10z"/>
<path d="M1970 3170 c0 -5 5 -10 10 -10 6 0 10 5 10 10 0 6 -4 10 -10 10 -5 0
-10 -4 -10 -10z"/>
<path d="M3106 3171 c-4 -5 -2 -12 3 -15 5 -4 12 -2 15 3 4 5 2 12 -3 15 -5 4
-12 2 -15 -3z"/>
<path d="M4315 3170 c-3 -5 1 -10 10 -10 9 0 13 5 10 10 -3 6 -8 10 -10 10 -2
0 -7 -4 -10 -10z"/>
<path d="M4370 3164 c0 -8 5 -12 10 -9 6 4 8 11 5 16 -9 14 -15 11 -15 -7z"/>
<path d="M4440 3164 c0 -8 5 -12 10 -9 6 4 8 11 5 16 -9 14 -15 11 -15 -7z"/>
<path d="M640 3160 c0 -5 5 -10 10 -10 6 0 10 5 10 10 0 6 -4 10 -10 10 -5 0
-10 -4 -10 -10z"/>
<path d="M860 3161 c0 -6 9 -9 20 -8 11 1 20 5 20 9 0 4 -9 8 -20 8 -11 0 -20
-4 -20 -9z"/>
<path d="M1244 3161 c3 -5 15 -7 26 -4 28 7 25 13 -6 13 -14 0 -23 -4 -20 -9z"/>
<path d="M1340 3164 c0 -10 28 -34 39 -34 6 0 11 5 11 10 0 6 -7 10 -15 10 -8
0 -15 5 -15 10 0 6 -4 10 -10 10 -5 0 -10 -3 -10 -6z"/>
<path d="M1460 3160 c0 -5 5 -10 10 -10 6 0 10 5 10 10 0 6 -4 10 -10 10 -5 0
-10 -4 -10 -10z"/>
<path d="M3615 3160 c4 -6 11 -8 16 -5 14 9 11 15 -7 15 -8 0 -12 -5 -9 -10z"/>
<path d="M3740 3159 c0 -5 5 -7 10 -4 6 3 10 8 10 11 0 2 -4 4 -10 4 -5 0 -10
-5 -10 -11z"/>
<path d="M3810 3166 c0 -9 40 -13 46 -5 3 5 -6 9 -20 9 -14 0 -26 -2 -26 -4z"/>
<path d="M4205 3160 c27 -12 35 -12 35 0 0 6 -12 10 -27 9 -25 0 -26 -1 -8 -9z"/>
<path d="M4510 3160 c0 -5 5 -10 10 -10 6 0 10 5 10 10 0 6 -4 10 -10 10 -5 0
-10 -4 -10 -10z"/>
<path d="M690 3140 c0 -5 5 -10 10 -10 6 0 10 5 10 10 0 6 -4 10 -10 10 -5 0
-10 -4 -10 -10z"/>
<path d="M740 3140 c0 -5 5 -10 11 -10 5 0 7 5 4 10 -3 6 -8 10 -11 10 -2 0
-4 -4 -4 -10z"/>
<path d="M1950 3140 c0 -5 5 -10 11 -10 5 0 7 5 4 10 -3 6 -8 10 -11 10 -2 0
-4 -4 -4 -10z"/>
<path d="M3130 3140 c0 -5 5 -10 10 -10 6 0 10 5 10 10 0 6 -4 10 -10 10 -5 0
-10 -4 -10 -10z"/>
<path d="M3710 3140 c0 -5 5 -10 10 -10 6 0 10 5 10 10 0 6 -4 10 -10 10 -5 0
-10 -4 -10 -10z"/>
<path d="M4290 3140 c0 -5 5 -10 10 -10 6 0 10 5 10 10 0 6 -4 10 -10 10 -5 0
-10 -4 -10 -10z"/>
<path d="M4340 3140 c0 -5 5 -10 10 -10 6 0 10 5 10 10 0 6 -4 10 -10 10 -5 0
-10 -4 -10 -10z"/>
<path d="M4390 3140 c0 -5 5 -10 10 -10 6 0 10 5 10 10 0 6 -4 10 -10 10 -5 0
-10 -4 -10 -10z"/>
<path d="M570 3114 c0 -8 5 -12 10 -9 6 4 8 11 5 16 -9 14 -15 11 -15 -7z"/>
<path d="M640 3115 c0 -8 5 -15 10 -15 6 0 10 7 10 15 0 8 -4 15 -10 15 -5 0
-10 -7 -10 -15z"/>
<path d="M826 3121 c-19 -7 -19 -8 2 -13 15 -4 22 -2 22 8 0 8 -1 14 -2 13 -2
0 -12 -4 -22 -8z"/>
<path d="M4150 3114 c0 -8 5 -12 10 -9 6 4 8 11 5 16 -9 14 -15 11 -15 -7z"/>
<path d="M4245 3120 c-8 -13 8 -18 29 -10 19 6 19 7 -2 12 -12 4 -24 2 -27 -2z"/>
<path d="M4440 3114 c0 -8 5 -12 10 -9 6 4 8 11 5 16 -9 14 -15 11 -15 -7z"/>
<path d="M4510 3120 c0 -5 5 -10 10 -10 6 0 10 5 10 10 0 6 -4 10 -10 10 -5 0
-10 -4 -10 -10z"/>
<path d="M1228 3113 c7 -3 16 -2 19 1 4 3 -2 6 -13 5 -11 0 -14 -3 -6 -6z"/>
<path d="M3110 3111 c0 -5 6 -12 13 -14 9 -4 8 -8 -3 -16 -8 -5 -11 -13 -8
-17 4 -3 14 1 23 10 15 14 15 18 1 31 -17 17 -26 19 -26 6z"/>
<path d="M3858 3113 c7 -3 16 -2 19 1 4 3 -2 6 -13 5 -11 0 -14 -3 -6 -6z"/>
<path d="M4318 3113 c7 -3 16 -2 19 1 4 3 -2 6 -13 5 -11 0 -14 -3 -6 -6z"/>
<path d="M740 3089 c0 -5 5 -7 10 -4 6 3 10 8 10 11 0 2 -4 4 -10 4 -5 0 -10
-5 -10 -11z"/>
<path d="M4295 3090 c3 -5 8 -10 11 -10 2 0 4 5 4 10 0 6 -5 10 -11 10 -5 0
-7 -4 -4 -10z"/>
<path d="M4340 3090 c0 -5 5 -10 10 -10 6 0 10 5 10 10 0 6 -4 10 -10 10 -5 0
-10 -4 -10 -10z"/>
<path d="M570 3064 c0 -8 5 -12 10 -9 6 4 8 11 5 16 -9 14 -15 11 -15 -7z"/>
<path d="M640 3070 c0 -5 5 -10 10 -10 6 0 10 5 10 10 0 6 -4 10 -10 10 -5 0
-10 -4 -10 -10z"/>
<path d="M715 3070 c-3 -5 -1 -10 4 -10 6 0 11 5 11 10 0 6 -2 10 -4 10 -3 0
-8 -4 -11 -10z"/>
<path d="M760 3070 c0 -5 5 -10 10 -10 6 0 10 5 10 10 0 6 -4 10 -10 10 -5 0
-10 -4 -10 -10z"/>
<path d="M860 3070 c0 -5 5 -10 11 -10 5 0 7 5 4 10 -3 6 -8 10 -11 10 -2 0
-4 -4 -4 -10z"/>
<path d="M1365 3070 c-3 -5 1 -10 9 -10 9 0 16 5 16 10 0 6 -4 10 -9 10 -6 0
-13 -4 -16 -10z"/>
<path d="M1460 3070 c0 -5 12 -10 26 -10 14 0 23 4 19 10 -3 6 -15 10 -26 10
-10 0 -19 -4 -19 -10z"/>
<path d="M1535 3070 c-3 -5 1 -10 10 -10 9 0 13 5 10 10 -3 6 -8 10 -10 10 -2
0 -7 -4 -10 -10z"/>
<path d="M1585 3070 c-3 -5 1 -10 10 -10 9 0 13 5 10 10 -3 6 -8 10 -10 10 -2
0 -7 -4 -10 -10z"/>
<path d="M1630 3070 c0 -5 5 -10 10 -10 6 0 10 5 10 10 0 6 -4 10 -10 10 -5 0
-10 -4 -10 -10z"/>
<path d="M1680 3070 c0 -5 5 -10 10 -10 6 0 10 5 10 10 0 6 -4 10 -10 10 -5 0
-10 -4 -10 -10z"/>
<path d="M1730 3070 c0 -5 5 -10 10 -10 6 0 10 5 10 10 0 6 -4 10 -10 10 -5 0
-10 -4 -10 -10z"/>
<path d="M1780 3070 c0 -5 5 -10 11 -10 5 0 7 5 4 10 -3 6 -8 10 -11 10 -2 0
-4 -4 -4 -10z"/>
<path d="M1825 3070 c-3 -5 1 -10 10 -10 9 0 13 5 10 10 -3 6 -8 10 -10 10 -2
0 -7 -4 -10 -10z"/>
<path d="M1920 3070 c0 -5 5 -10 10 -10 6 0 10 5 10 10 0 6 -4 10 -10 10 -5 0
-10 -4 -10 -10z"/>
<path d="M3155 3070 c-3 -5 1 -10 10 -10 9 0 13 5 10 10 -3 6 -8 10 -10 10 -2
0 -7 -4 -10 -10z"/>
<path d="M3255 3070 c-3 -5 -1 -10 4 -10 6 0 11 5 11 10 0 6 -2 10 -4 10 -3 0
-8 -4 -11 -10z"/>
<path d="M3300 3070 c0 -5 5 -10 10 -10 6 0 10 5 10 10 0 6 -4 10 -10 10 -5 0
-10 -4 -10 -10z"/>
<path d="M3350 3070 c0 -5 5 -10 10 -10 6 0 10 5 10 10 0 6 -4 10 -10 10 -5 0
-10 -4 -10 -10z"/>
<path d="M3400 3070 c0 -5 5 -10 10 -10 6 0 10 5 10 10 0 6 -4 10 -10 10 -5 0
-10 -4 -10 -10z"/>
<path d="M3445 3070 c-3 -5 1 -10 10 -10 9 0 13 5 10 10 -3 6 -8 10 -10 10 -2
0 -7 -4 -10 -10z"/>
<path d="M3495 3070 c-3 -5 1 -10 10 -10 9 0 13 5 10 10 -3 6 -8 10 -10 10 -2
0 -7 -4 -10 -10z"/>
<path d="M3540 3070 c0 -5 5 -10 10 -10 6 0 10 5 10 10 0 6 -4 10 -10 10 -5 0
-10 -4 -10 -10z"/>
<path d="M3590 3070 c0 -5 11 -10 25 -10 14 0 25 5 25 10 0 6 -11 10 -25 10
-14 0 -25 -4 -25 -10z"/>
<path d="M3710 3070 c0 -5 5 -10 10 -10 6 0 10 5 10 10 0 6 -4 10 -10 10 -5 0
-10 -4 -10 -10z"/>
<path d="M4220 3070 c0 -5 5 -10 10 -10 6 0 10 5 10 10 0 6 -4 10 -10 10 -5 0
-10 -4 -10 -10z"/>
<path d="M4320 3070 c0 -5 5 -10 11 -10 5 0 7 5 4 10 -3 6 -8 10 -11 10 -2 0
-4 -4 -4 -10z"/>
<path d="M4370 3070 c0 -5 5 -10 11 -10 5 0 7 5 4 10 -3 6 -8 10 -11 10 -2 0
-4 -4 -4 -10z"/>
<path d="M4440 3064 c0 -8 5 -12 10 -9 6 3 10 10 10 16 0 5 -4 9 -10 9 -5 0
-10 -7 -10 -16z"/>
<path d="M4510 3071 c0 -6 5 -13 10 -16 6 -3 10 1 10 9 0 9 -4 16 -10 16 -5 0
-10 -4 -10 -9z"/>
<path d="M740 3039 c0 -5 5 -7 10 -4 6 3 10 8 10 11 0 2 -4 4 -10 4 -5 0 -10
-5 -10 -11z"/>
<path d="M810 3040 c0 -5 9 -10 20 -10 11 0 20 5 20 10 0 6 -9 10 -20 10 -11
0 -20 -4 -20 -10z"/>
<path d="M1245 3040 c3 -5 26 -10 51 -10 24 0 44 5 44 10 0 6 -23 10 -51 10
-31 0 -48 -4 -44 -10z"/>
<path d="M1390 3040 c0 -5 16 -10 35 -10 19 0 35 5 35 10 0 6 -16 10 -35 10
-19 0 -35 -4 -35 -10z"/>
<path d="M1850 3040 c0 -5 16 -10 35 -10 19 0 35 5 35 10 0 6 -16 10 -35 10
-19 0 -35 -4 -35 -10z"/>
<path d="M3180 3040 c0 -5 16 -10 35 -10 19 0 35 5 35 10 0 6 -16 10 -35 10
-19 0 -35 -4 -35 -10z"/>
<path d="M3640 3040 c0 -5 16 -10 35 -10 19 0 35 5 35 10 0 6 -16 10 -35 10
-19 0 -35 -4 -35 -10z"/>
<path d="M3760 3040 c0 -5 20 -10 45 -10 25 0 45 5 45 10 0 6 -20 10 -45 10
-25 0 -45 -4 -45 -10z"/>
<path d="M4245 3040 c3 -5 15 -10 26 -10 10 0 19 -4 19 -10 0 -5 9 -10 21 -10
23 0 55 27 44 38 -4 4 -10 1 -12 -5 -5 -15 -53 -18 -53 -3 0 6 -12 10 -26 10
-14 0 -23 -4 -19 -10z"/>
<path d="M690 3020 c0 -5 5 -10 10 -10 6 0 10 5 10 10 0 6 -4 10 -10 10 -5 0
-10 -4 -10 -10z"/>
<path d="M760 3020 c0 -5 12 -10 26 -10 14 0 23 4 19 10 -3 6 -15 10 -26 10
-10 0 -19 -4 -19 -10z"/>
<path d="M1970 3020 c0 -5 5 -10 10 -10 6 0 10 5 10 10 0 6 -4 10 -10 10 -5 0
-10 -4 -10 -10z"/>
<path d="M3110 3020 c0 -5 5 -10 10 -10 6 0 10 5 10 10 0 6 -4 10 -10 10 -5 0
-10 -4 -10 -10z"/>
<path d="M4390 3020 c0 -5 5 -10 10 -10 6 0 10 5 10 10 0 6 -4 10 -10 10 -5 0
-10 -4 -10 -10z"/>
<path d="M4460 3020 c0 -5 5 -10 10 -10 6 0 10 5 10 10 0 6 -4 10 -10 10 -5 0
-10 -4 -10 -10z"/>
<path d="M2597 2959 c-3 -12 0 -22 9 -26 8 -3 14 -14 14 -24 0 -10 6 -19 14
-19 8 0 22 -7 31 -16 15 -15 17 -15 29 1 10 13 15 15 20 6 5 -7 0 -18 -10 -26
-17 -13 -17 -14 -2 -15 9 0 19 6 22 13 5 10 7 10 12 0 3 -7 17 -13 30 -13 15
0 24 -6 24 -15 0 -9 9 -15 25 -15 29 0 32 -8 8 -26 -17 -13 -17 -13 0 -14 9 0
17 5 17 10 0 6 16 10 35 10 24 0 35 -5 35 -15 0 -11 11 -15 38 -15 31 0 38 -4
38 -20 0 -14 -7 -20 -23 -20 -13 0 -23 5 -23 10 0 6 -7 10 -15 10 -8 0 -15 5
-15 10 0 6 -16 10 -35 10 -19 0 -35 -4 -35 -10 0 -5 12 -10 26 -10 14 0 23 -4
19 -10 -3 -6 5 -10 18 -10 14 0 27 -7 31 -15 3 -8 14 -15 25 -15 37 0 51 12
51 42 0 30 19 58 39 58 6 0 11 -21 11 -50 0 -27 5 -50 10 -50 6 0 10 25 10 55
0 42 -5 60 -20 75 -16 16 -20 17 -20 5 0 -12 -14 -15 -64 -15 -40 0 -66 4 -68
12 -2 6 -18 11 -36 10 -22 0 -32 4 -32 14 0 8 -10 14 -25 14 -14 0 -25 5 -25
10 0 6 -8 10 -19 10 -10 0 -27 11 -37 25 -10 14 -29 25 -41 25 -13 0 -23 4
-23 9 0 5 -11 12 -25 15 -14 4 -25 11 -25 16 0 18 -18 10 -23 -11z"/>
<path d="M2454 2825 c-4 -8 -17 -15 -31 -15 -13 0 -21 -4 -18 -10 4 -6 -5 -10
-19 -10 -16 0 -26 -6 -26 -15 0 -8 -5 -15 -11 -15 -12 0 -39 -25 -39 -36 0
-11 -34 -33 -51 -34 -9 0 -20 -7 -23 -16 -4 -10 -13 -13 -25 -9 -12 3 -21 0
-25 -10 -4 -11 -20 -15 -61 -15 l-55 0 0 -35 c0 -19 5 -35 10 -35 6 0 10 11
10 25 0 14 2 25 5 25 13 0 45 -37 45 -52 0 -15 9 -18 55 -18 l55 0 125 125
c123 124 149 165 105 165 -11 0 -23 -7 -26 -15z m-54 -66 c0 -16 -178 -189
-195 -189 -8 0 -15 3 -15 8 1 16 28 42 44 42 19 0 46 23 46 39 0 6 5 11 11 11
14 0 39 25 39 39 0 6 5 11 11 11 14 0 39 25 39 39 0 6 5 11 10 11 6 0 10 -5
10 -11z"/>
<path d="M2600 2820 c0 -12 42 -62 105 -125 58 -58 105 -109 105 -115 0 -5 7
-10 15 -10 8 0 15 -4 15 -10 0 -6 27 -10 60 -10 54 0 60 2 60 21 0 22 22 49
39 49 6 0 11 -11 11 -25 0 -14 5 -25 10 -25 6 0 10 16 10 35 l0 35 -60 0 c-48
0 -60 3 -60 16 0 11 -6 14 -20 9 -13 -4 -22 -1 -26 9 -3 9 -15 16 -26 16 -19
0 -48 21 -48 35 0 10 -28 35 -39 35 -6 0 -11 7 -11 15 0 9 -10 15 -26 15 -14
0 -23 4 -19 10 4 6 -5 10 -20 10 -14 0 -28 7 -31 15 -9 23 -44 19 -44 -5z
m120 -60 c0 -18 130 -140 150 -140 11 0 20 -7 20 -15 0 -8 5 -15 10 -15 6 0
10 -4 10 -10 0 -5 -11 -10 -25 -10 -14 0 -25 5 -25 11 0 12 -50 59 -62 59 -5
0 -8 5 -8 11 0 14 -25 39 -39 39 -6 0 -11 5 -11 11 0 6 -6 17 -14 25 -8 8 -19
14 -25 14 -12 0 -15 13 -4 23 10 10 23 8 23 -3z"/>
<path d="M2430 2655 c0 -8 -5 -15 -11 -15 -11 0 -39 -25 -39 -35 0 -8 -27 -35
-35 -35 -10 0 -35 -28 -35 -39 0 -6 -5 -11 -11 -11 -6 0 -16 -6 -24 -13 -9 -9
-36 -13 -84 -12 -39 2 -74 -1 -77 -6 -3 -5 2 -9 10 -9 9 0 16 -7 16 -15 0 -9
9 -15 24 -15 13 0 27 -6 30 -12 5 -10 7 -10 12 0 3 6 19 12 36 12 24 0 43 14
98 70 41 43 76 70 89 70 18 0 21 6 21 40 0 22 -4 40 -10 40 -5 0 -10 -7 -10
-15z"/>
<path d="M2645 2640 c-8 -35 0 -50 23 -50 20 0 72 -42 72 -59 0 -6 5 -11 11
-11 14 0 39 -25 39 -39 0 -6 7 -11 15 -11 8 0 15 -4 15 -10 0 -5 15 -10 34
-10 19 0 37 -6 40 -12 5 -10 7 -10 12 0 3 6 17 12 30 12 15 0 24 6 24 15 0 8
5 15 10 15 6 0 10 4 10 8 0 4 -35 8 -79 8 -78 0 -111 13 -111 43 0 6 -6 10
-12 9 -7 -2 -12 3 -10 10 1 6 -3 12 -9 12 -14 0 -39 25 -39 39 0 6 -5 11 -11
11 -6 0 -17 6 -25 14 -8 8 -14 19 -14 25 0 24 -19 9 -25 -19z"/>
<path d="M2048 2653 c7 -3 16 -2 19 1 4 3 -2 6 -13 5 -11 0 -14 -3 -6 -6z"/>
<path d="M3038 2653 c7 -3 16 -2 19 1 4 3 -2 6 -13 5 -11 0 -14 -3 -6 -6z"/>
<path d="M2497 2580 c-17 -20 -16 -21 2 -41 16 -17 19 -18 24 -5 8 21 43 20
51 -1 6 -14 9 -14 27 5 l20 22 -20 22 c-18 19 -21 19 -27 5 -8 -21 -51 -22
-56 -2 -2 13 -6 12 -21 -5z"/>
<path d="M2455 2541 c-3 -5 -1 -12 5 -16 5 -3 10 1 10 9 0 18 -6 21 -15 7z"/>
<path d="M2626 2541 c-4 -5 -2 -12 3 -15 5 -4 12 -2 15 3 4 5 2 12 -3 15 -5 4
-12 2 -15 -3z"/>
<path d="M2090 2510 c0 -5 5 -10 10 -10 6 0 10 5 10 10 0 6 -4 10 -10 10 -5 0
-10 -4 -10 -10z"/>
<path d="M2416 2499 c-12 -11 -15 -19 -7 -19 13 0 41 24 41 34 0 11 -15 5 -34
-15z"/>
<path d="M2650 2514 c0 -10 31 -36 37 -31 3 3 -2 13 -10 22 -16 15 -27 19 -27
9z"/>
<path d="M2985 2510 c3 -5 10 -10 16 -10 5 0 9 5 9 10 0 6 -7 10 -16 10 -8 0
-12 -4 -9 -10z"/>
<path d="M2508 2494 c-5 -4 -8 -15 -8 -25 0 -9 -6 -19 -12 -22 -8 -2 -9 -8 -4
-13 5 -5 11 -4 13 4 3 7 23 12 53 12 30 0 50 -5 53 -12 2 -7 8 -10 12 -6 4 4
0 14 -9 23 -9 9 -14 20 -11 25 3 5 1 11 -5 15 -5 3 -10 -1 -10 -9 0 -22 -57
-22 -62 0 -2 9 -6 12 -10 8z"/>
<path d="M2371 2454 c-18 -21 -6 -30 14 -11 8 9 15 18 15 21 0 11 -15 5 -29
-10z"/>
<path d="M2700 2464 c0 -10 31 -36 37 -31 3 3 -2 13 -10 22 -16 15 -27 19 -27
9z"/>
<path d="M2146 2422 c-8 -14 21 -48 32 -38 3 4 2 10 -4 14 -6 4 -13 14 -16 22
-3 10 -6 11 -12 2z"/>
<path d="M2506 2421 c-4 -7 -5 -15 -2 -18 9 -9 19 4 14 18 -4 11 -6 11 -12 0z"/>
<path d="M2576 2421 c-4 -5 -2 -12 3 -15 5 -4 12 -2 15 3 4 5 2 12 -3 15 -5 4
-12 2 -15 -3z"/>
<path d="M2746 2421 c-4 -5 -2 -12 3 -15 5 -4 12 -2 15 3 4 5 2 12 -3 15 -5 4
-12 2 -15 -3z"/>
<path d="M2940 2416 c0 -9 5 -16 10 -16 6 0 10 4 10 9 0 6 -4 13 -10 16 -5 3
-10 -1 -10 -9z"/>
<path d="M2321 2404 c-18 -21 -6 -30 14 -11 8 9 15 18 15 21 0 11 -15 5 -29
-10z"/>
<path d="M2530 2390 c0 -5 9 -10 20 -10 11 0 20 5 20 10 0 6 -9 10 -20 10 -11
0 -20 -4 -20 -10z"/>
<path d="M2770 2394 c0 -21 34 -34 87 -33 l58 2 -59 6 c-33 4 -61 12 -64 19
-4 12 -22 17 -22 6z"/>
<path d="M2240 2370 l-55 -7 63 -1 c40 -1 61 2 57 8 -3 6 -7 9 -8 8 -1 -1 -27
-4 -57 -8z"/>
<path d="M2505 2371 c-3 -5 -1 -12 5 -16 5 -3 10 1 10 9 0 18 -6 21 -15 7z"/>
<path d="M2575 2371 c-3 -5 -1 -12 5 -16 5 -3 10 1 10 9 0 18 -6 21 -15 7z"/>
<path d="M2480 2344 c0 -10 31 -36 37 -31 3 3 -2 13 -10 22 -16 15 -27 19 -27
9z"/>
<path d="M2600 2340 c0 -5 5 -10 10 -10 6 0 10 5 10 10 0 6 -4 10 -10 10 -5 0
-10 -4 -10 -10z"/>
<path d="M2575 2320 c-3 -5 1 -10 10 -10 9 0 13 5 10 10 -3 6 -8 10 -10 10 -2
0 -7 -4 -10 -10z"/>
<path d="M2530 2290 c0 -5 9 -10 19 -10 11 0 21 -6 24 -12 2 -7 8 -10 12 -6
10 9 -19 38 -39 38 -9 0 -16 -4 -16 -10z"/>
<path d="M2502 2271 c2 -7 7 -12 11 -12 12 1 9 15 -3 20 -7 2 -11 -2 -8 -8z"/>
<path d="M2480 2244 c0 -10 31 -36 37 -31 3 3 -2 13 -10 22 -16 15 -27 19 -27
9z"/>
<path d="M2600 2240 c0 -5 5 -10 10 -10 6 0 10 5 10 10 0 6 -4 10 -10 10 -5 0
-10 -4 -10 -10z"/>
<path d="M2570 2220 c0 -5 -9 -10 -20 -10 -22 0 -27 -15 -8 -26 6 -4 16 0 23
9 7 10 18 17 24 17 7 0 9 5 6 10 -3 6 -10 10 -16 10 -5 0 -9 -4 -9 -10z"/>
<path d="M2500 2170 c0 -5 5 -10 10 -10 6 0 10 5 10 10 0 6 -4 10 -10 10 -5 0
-10 -4 -10 -10z"/>
<path d="M2570 2170 c0 -5 5 -10 10 -10 6 0 10 5 10 10 0 6 -4 10 -10 10 -5 0
-10 -4 -10 -10z"/>
<path d="M2360 2150 c0 -5 5 -10 10 -10 14 0 12 -28 -2 -33 -7 -2 -10 -8 -6
-12 11 -11 38 21 38 44 0 14 -6 21 -20 21 -11 0 -20 -4 -20 -10z"/>
<path d="M2455 2150 c-3 -5 1 -10 10 -10 9 0 13 5 10 10 -3 6 -8 10 -10 10 -2
0 -7 -4 -10 -10z"/>
<path d="M2620 2150 c0 -5 5 -10 10 -10 6 0 10 5 10 10 0 6 -4 10 -10 10 -5 0
-10 -4 -10 -10z"/>
<path d="M2700 2139 c0 -11 7 -27 15 -35 13 -13 17 -13 37 5 18 18 19 21 5 21
-9 0 -17 -4 -17 -10 0 -5 -4 -10 -10 -10 -5 0 -10 7 -10 15 0 8 5 15 10 15 6
0 10 5 10 10 0 6 -9 10 -20 10 -14 0 -20 -7 -20 -21z"/>
<path d="M2271 2114 c-7 -8 -10 -18 -6 -22 4 -4 10 -1 12 6 6 16 30 16 35 0 3
-9 10 -8 22 5 10 10 15 21 12 25 -4 3 -12 0 -17 -8 -8 -11 -12 -12 -16 -2 -6
16 -25 15 -42 -4z"/>
<path d="M2416 2109 c-17 -17 -18 -19 -3 -19 9 0 17 -7 17 -15 0 -8 -7 -15
-16 -15 -8 0 -12 -4 -9 -10 3 -5 0 -10 -9 -10 -8 0 -16 6 -19 13 -2 7 -8 8
-13 3 -5 -5 -4 -11 4 -13 6 -3 12 -11 12 -18 0 -7 -6 -16 -12 -19 -10 -5 -10
-7 0 -12 6 -3 12 -12 12 -19 0 -7 -6 -16 -12 -18 -10 -4 -9 -8 2 -17 11 -9 12
-13 3 -17 -7 -2 -13 -11 -13 -18 0 -7 6 -16 13 -18 9 -4 8 -8 -3 -16 -8 -5
-11 -13 -8 -17 4 -3 15 2 25 12 13 12 14 19 5 22 -13 4 -17 32 -4 32 4 0 16
-9 25 -21 18 -20 18 -21 0 -35 -16 -12 -16 -13 -1 -14 9 0 18 6 20 12 3 9 9 8
22 -5 21 -21 65 -22 72 -2 4 8 15 15 25 15 10 0 19 -7 19 -15 0 -20 39 -19 69
1 19 14 25 14 32 3 4 -7 11 -10 16 -6 4 5 1 12 -7 17 -12 7 -9 14 15 36 25 23
27 27 12 36 -10 5 -15 14 -11 19 4 6 15 1 27 -12 14 -15 17 -24 9 -27 -7 -2
-12 -10 -12 -17 0 -7 -6 -15 -12 -17 -9 -3 -8 -9 5 -22 16 -17 18 -17 34 0 13
13 14 19 5 22 -6 2 -12 10 -12 18 0 17 27 19 32 2 3 -9 9 -8 22 5 17 16 17 18
0 34 -13 13 -19 14 -22 5 -5 -16 -20 -15 -38 2 -16 17 -19 36 -4 36 6 0 10 -4
10 -10 0 -14 27 -12 34 3 5 10 7 10 12 0 3 -7 17 -13 30 -13 17 0 24 6 24 20
0 11 -4 20 -10 20 -5 0 -10 -4 -10 -10 0 -14 -27 -12 -34 3 -5 10 -7 10 -12 0
-3 -7 -10 -13 -16 -13 -13 0 -38 26 -38 39 0 17 17 13 24 -5 3 -8 11 -12 17
-9 7 5 2 15 -12 28 -15 14 -24 17 -27 9 -5 -16 -20 -15 -38 2 -17 18 -18 33
-2 38 9 3 8 9 -4 21 -25 25 -28 22 -28 -31 0 -35 -6 -56 -20 -72 -20 -23 -21
-23 -34 -4 -14 18 -15 18 -21 2 -4 -10 -16 -18 -26 -18 -10 0 -19 -4 -19 -10
0 -5 9 -10 20 -10 11 0 20 5 20 10 0 15 19 12 36 -4 16 -17 19 -36 4 -36 -5 0
-10 5 -10 10 0 6 -8 10 -17 10 -16 -1 -16 -2 2 -16 19 -15 19 -15 1 -26 -15
-8 -16 -12 -5 -19 24 -15 39 -10 39 15 0 13 7 26 15 30 9 3 15 18 15 36 0 23
4 30 20 30 13 0 20 -7 20 -20 0 -11 -4 -20 -10 -20 -5 0 -10 -9 -10 -21 0 -27
-52 -79 -79 -79 -12 0 -21 5 -21 10 0 6 -9 10 -20 10 -11 0 -20 -4 -20 -10 0
-5 -11 -10 -25 -10 -14 0 -25 5 -25 10 0 6 -7 10 -15 10 -8 0 -15 7 -15 15 0
8 -4 15 -9 15 -5 0 -11 10 -13 22 -4 25 -28 37 -28 14 0 -9 -4 -16 -10 -16 -5
0 -10 4 -10 9 0 6 5 13 10 16 6 3 10 15 10 26 0 14 7 19 25 19 22 0 25 -4 25
-35 0 -24 5 -35 15 -35 9 0 15 -9 15 -25 0 -18 5 -25 20 -25 22 0 28 25 8 33
-10 4 -9 8 2 16 8 5 11 14 6 18 -5 4 -11 2 -13 -4 -6 -17 -23 -17 -23 0 0 7
11 21 25 31 13 10 22 23 18 29 -4 6 -11 3 -19 -7 -12 -17 -14 -16 -33 3 -16
16 -21 34 -21 71 0 54 -5 59 -34 29z m374 -179 c0 -5 -4 -10 -10 -10 -5 0 -10
5 -10 10 0 6 5 10 10 10 6 0 10 -4 10 -10z m-50 -50 c0 -5 -4 -10 -10 -10 -5
0 -10 5 -10 10 0 6 5 10 10 10 6 0 10 -4 10 -10z"/>
<path d="M2480 2124 c0 -17 34 -34 70 -34 40 0 80 23 65 38 -4 4 -10 1 -12 -5
-6 -16 -103 -18 -103 -3 0 6 -4 10 -10 10 -5 0 -10 -3 -10 -6z"/>
<path d="M2781 2114 c-18 -21 -6 -30 14 -11 8 9 15 18 15 21 0 11 -15 5 -29
-10z"/>
<path d="M2820 2100 c0 -5 5 -10 10 -10 14 0 12 -28 -2 -32 -8 -3 -5 -12 10
-28 17 -18 22 -20 22 -8 0 9 -6 19 -12 22 -10 5 -10 7 0 12 16 8 15 22 -2 40
-17 16 -26 18 -26 4z"/>
<path d="M2235 2081 c-3 -5 3 -15 12 -21 13 -8 14 -13 6 -16 -7 -3 -13 -13
-13 -22 1 -15 3 -14 15 2 15 19 15 19 28 1 8 -10 16 -14 19 -9 3 5 -9 24 -27
42 -19 18 -36 28 -40 23z"/>
<path d="M2286 2081 c-4 -5 -2 -12 3 -15 5 -4 12 -2 15 3 4 5 2 12 -3 15 -5 4
-12 2 -15 -3z"/>
<path d="M2327 2070 c-17 -20 -16 -21 3 -42 16 -18 20 -19 20 -6 0 9 -6 19
-12 21 -10 4 -10 8 1 15 7 5 12 15 10 21 -3 7 -11 3 -22 -9z"/>
<path d="M2746 2081 c-4 -5 -2 -12 3 -15 5 -4 12 -2 15 3 4 5 2 12 -3 15 -5 4
-12 2 -15 -3z"/>
<path d="M2787 2070 c-17 -20 -16 -21 3 -42 16 -18 20 -19 20 -6 0 9 -6 19
-12 21 -10 4 -10 8 1 15 7 5 12 15 10 21 -3 7 -11 3 -22 -9z"/>
<path d="M2165 2031 c-3 -5 -1 -12 5 -16 5 -3 10 1 10 9 0 18 -6 21 -15 7z"/>
<path d="M2916 2031 c-4 -5 -2 -12 3 -15 5 -4 12 -2 15 3 4 5 2 12 -3 15 -5 4
-12 2 -15 -3z"/>
<path d="M2260 1990 c0 -14 7 -20 24 -20 13 0 27 6 29 13 4 9 8 8 16 -3 5 -8
13 -11 17 -8 3 4 -2 15 -12 25 -12 13 -19 14 -22 5 -4 -14 -32 -16 -32 -2 0 6
-4 10 -10 10 -5 0 -10 -9 -10 -20z"/>
<path d="M2190 1961 c0 -15 29 -45 36 -38 4 3 -3 16 -15 28 -12 13 -21 17 -21
10z"/>
<path d="M2890 1957 c0 -9 -5 -17 -11 -17 -16 0 -43 -30 -34 -38 4 -4 10 -1
12 6 3 6 9 12 15 12 5 0 16 7 25 16 12 11 13 18 4 27 -8 8 -11 7 -11 -6z"/>
<path d="M2302 1944 c-11 -12 -10 -17 2 -30 15 -14 17 -14 32 0 14 14 14 18 0
31 -18 18 -18 18 -34 -1z m28 -14 c0 -5 -4 -10 -10 -10 -5 0 -10 5 -10 10 0 6
5 10 10 10 6 0 10 -4 10 -10z"/>
<path d="M2530 1930 c0 -5 9 -10 20 -10 11 0 20 5 20 10 0 6 -9 10 -20 10 -11
0 -20 -4 -20 -10z"/>
<path d="M2240 1904 c0 -8 5 -12 10 -9 6 4 8 11 5 16 -9 14 -15 11 -15 -7z"/>
<path d="M2330 1880 c0 -5 5 -10 10 -10 6 0 10 5 10 10 0 6 -4 10 -10 10 -5 0
-10 -4 -10 -10z"/>
<path d="M2260 1849 c0 -12 -8 -28 -17 -35 -13 -10 -14 -13 -4 -14 14 0 61 48
61 63 0 4 -9 7 -20 7 -14 0 -20 -7 -20 -21z"/>
<path d="M2798 1864 c-3 -3 7 -19 24 -36 16 -16 32 -27 36 -23 4 4 1 10 -5 12
-7 3 -13 16 -13 29 0 17 -6 24 -18 24 -10 0 -21 -3 -24 -6z"/>
<path d="M2310 1834 c0 -10 31 -36 37 -31 3 3 -2 13 -10 22 -16 15 -27 19 -27
9z"/>
<path d="M2380 1830 c0 -5 5 -10 10 -10 6 0 10 5 10 10 0 6 -4 10 -10 10 -5 0
-10 -4 -10 -10z"/>
<path d="M2430 1830 c0 -5 5 -10 10 -10 6 0 10 5 10 10 0 6 -4 10 -10 10 -5 0
-10 -4 -10 -10z"/>
<path d="M2650 1830 c0 -5 5 -10 10 -10 6 0 10 5 10 10 0 6 -4 10 -10 10 -5 0
-10 -4 -10 -10z"/>
<path d="M2695 1830 c3 -5 8 -10 11 -10 2 0 4 5 4 10 0 6 -5 10 -11 10 -5 0
-7 -4 -4 -10z"/>
<path d="M2770 1830 c0 -5 5 -10 10 -10 6 0 10 5 10 10 0 6 -4 10 -10 10 -5 0
-10 -4 -10 -10z"/>
<path d="M2162 1798 c2 -13 11 -24 23 -27 11 -2 23 -8 27 -14 4 -6 11 -8 15
-3 4 5 2 11 -4 13 -7 3 -13 11 -13 19 0 8 -7 14 -16 14 -8 0 -12 5 -9 10 3 6
-1 10 -10 10 -11 0 -15 -7 -13 -22z"/>
<path d="M2530 1810 c0 -5 9 -10 20 -10 11 0 20 5 20 10 0 6 -9 10 -20 10 -11
0 -20 -4 -20 -10z"/>
<path d="M2750 1804 c0 -8 5 -12 10 -9 6 4 8 11 5 16 -9 14 -15 11 -15 -7z"/>
<path d="M2903 1805 c-7 -8 -13 -19 -13 -25 0 -5 -5 -10 -11 -10 -14 0 -39
-25 -39 -39 0 -6 -8 -11 -17 -11 -13 0 -14 -3 -6 -11 9 -9 16 -8 27 4 9 9 16
20 16 26 0 6 5 11 11 11 6 0 17 7 26 15 8 8 19 13 24 10 5 -4 9 5 9 19 0 29
-9 32 -27 11z"/>
<path d="M2360 1773 c0 -10 -12 -28 -27 -40 -14 -13 -23 -26 -19 -30 4 -4 12
-1 17 7 8 11 12 12 16 3 2 -7 11 -13 18 -13 7 0 15 -6 18 -12 2 -7 8 -9 13 -5
5 4 2 12 -6 18 -13 8 -13 10 0 19 8 5 20 10 27 10 7 0 -1 14 -17 30 -34 35
-40 37 -40 13z"/>
<path d="M2698 1759 c-15 -16 -22 -29 -15 -29 7 0 19 -5 27 -10 13 -9 13 -11
0 -19 -8 -6 -11 -13 -7 -17 4 -4 17 4 28 17 15 16 23 20 26 12 6 -15 33 -17
33 -3 0 6 -7 10 -15 10 -8 0 -15 7 -15 16 0 8 -4 12 -10 9 -6 -4 -10 5 -10 19
0 33 -8 32 -42 -5z"/>
<path d="M2526 1754 c-4 -10 -13 -13 -26 -9 -16 5 -20 2 -20 -19 0 -29 14 -35
24 -10 3 8 10 12 16 9 6 -4 8 -11 5 -16 -4 -5 5 -9 18 -9 14 0 28 7 32 18 6
16 7 16 19 0 18 -25 26 -22 26 8 0 21 -4 24 -20 19 -13 -4 -22 -1 -26 9 -3 9
-14 16 -24 16 -10 0 -21 -7 -24 -16z"/>
<path d="M2236 1741 c-4 -5 -2 -12 3 -15 5 -4 12 -2 15 3 4 5 2 12 -3 15 -5 4
-12 2 -15 -3z"/>
<path d="M2090 1711 c0 -6 5 -13 10 -16 6 -3 10 1 10 9 0 9 -4 16 -10 16 -5 0
-10 -4 -10 -9z"/>
<path d="M2260 1710 c0 -5 5 -10 10 -10 6 0 10 5 10 10 0 6 -4 10 -10 10 -5 0
-10 -4 -10 -10z"/>
<path d="M2990 1704 c0 -8 5 -12 10 -9 6 3 10 10 10 16 0 5 -4 9 -10 9 -5 0
-10 -7 -10 -16z"/>
<path d="M2067 1673 c-12 -11 -8 -23 8 -23 8 0 15 -7 15 -16 0 -11 5 -14 16
-10 10 4 14 1 11 -6 -2 -7 -14 -13 -27 -13 -13 0 -25 -6 -28 -13 -2 -6 -12
-12 -23 -12 -10 0 -19 -7 -19 -15 0 -8 9 -15 20 -15 11 0 20 -4 20 -10 0 -5 7
-10 15 -10 8 0 15 5 15 11 0 14 26 39 40 39 7 0 9 8 4 23 -5 12 -7 36 -6 52 1
27 0 28 -12 13 -16 -22 -26 -23 -26 -3 0 16 -12 20 -23 8z"/>
<path d="M2967 1673 c-4 -7 0 -21 9 -32 17 -20 18 -20 40 2 22 21 23 37 3 37
-5 0 -9 -7 -9 -15 0 -21 -28 -19 -32 3 -2 12 -6 13 -11 5z"/>
<path d="M2410 1660 c0 -5 5 -10 10 -10 6 0 10 5 10 10 0 6 -4 10 -10 10 -5 0
-10 -4 -10 -10z"/>
<path d="M2670 1660 c0 -5 5 -10 10 -10 6 0 10 5 10 10 0 6 -4 10 -10 10 -5 0
-10 -4 -10 -10z"/>
<path d="M2020 1641 c0 -6 5 -13 10 -16 6 -3 10 1 10 9 0 9 -4 16 -10 16 -5 0
-10 -4 -10 -9z"/>
<path d="M2273 1635 c-7 -8 -13 -19 -13 -25 0 -5 -8 -10 -17 -10 -13 0 -14 -3
-6 -11 9 -9 16 -8 27 4 9 9 16 20 16 26 0 6 7 11 16 11 8 0 12 5 9 10 -8 13
-18 12 -32 -5z"/>
<path d="M2790 1640 c0 -5 5 -10 10 -10 6 0 10 5 10 10 0 6 -4 10 -10 10 -5 0
-10 -4 -10 -10z"/>
<path d="M3050 1640 c0 -6 7 -13 15 -16 8 -4 15 -15 15 -25 0 -14 -7 -19 -26
-19 -14 0 -23 4 -19 10 3 6 -5 11 -19 12 -14 0 -31 1 -38 2 -6 1 -13 -5 -15
-11 -3 -7 1 -13 7 -13 12 0 40 -24 40 -35 0 -10 28 -35 39 -35 6 0 11 -5 11
-11 0 -14 25 -39 39 -39 6 0 11 -7 11 -15 0 -8 4 -15 9 -15 5 0 11 -10 13 -22
2 -12 9 -24 17 -26 11 -4 13 3 8 34 -4 21 -11 40 -17 42 -5 2 -10 15 -10 28 0
13 -4 24 -10 24 -5 0 -10 9 -10 20 0 28 37 26 45 -1 6 -17 9 -19 16 -8 13 20
11 29 -6 29 -8 0 -15 7 -15 15 0 8 -9 15 -19 15 -11 0 -23 9 -26 20 -3 11 -11
20 -16 20 -5 0 -9 7 -9 15 0 8 -7 15 -15 15 -8 0 -15 -5 -15 -10z m60 -75 c0
-8 -7 -15 -15 -15 -8 0 -15 -9 -15 -20 0 -11 -4 -20 -10 -20 -5 0 -10 5 -10
10 0 6 -7 10 -15 10 -8 0 -15 5 -15 10 0 6 11 10 25 10 16 0 25 6 25 15 0 8 7
15 15 15 8 0 15 -7 15 -15z"/>
<path d="M2820 1614 c0 -8 5 -12 10 -9 6 4 8 11 5 16 -9 14 -15 11 -15 -7z"/>
<path d="M1990 1600 c0 -13 -7 -20 -20 -20 -11 0 -20 -7 -20 -15 0 -8 -7 -15
-15 -15 -17 0 -19 -9 -6 -29 7 -11 10 -9 16 8 8 26 45 29 45 3 0 -11 -10 -24
-22 -30 -13 -6 -17 -11 -10 -11 17 -1 15 -28 -3 -35 -19 -7 -21 -80 -2 -74 6
3 13 14 15 26 2 12 8 22 13 22 5 0 9 7 9 15 0 8 7 15 16 15 8 0 12 5 9 10 -3
6 1 10 9 10 9 0 16 7 16 15 0 8 8 15 17 15 14 0 15 2 4 13 -11 10 -14 10 -18
0 -7 -20 -23 -15 -23 7 0 11 -7 20 -15 20 -8 0 -15 5 -15 11 0 6 7 17 15 25 8
9 15 20 15 25 0 5 -7 9 -15 9 -8 0 -15 -9 -15 -20z"/>
<path d="M2840 1590 c0 -5 5 -10 10 -10 6 0 10 5 10 10 0 6 -4 10 -10 10 -5 0
-10 -4 -10 -10z"/>
<path d="M2235 1540 c3 -5 10 -10 16 -10 5 0 9 5 9 10 0 6 -7 10 -16 10 -8 0
-12 -4 -9 -10z"/>
<path d="M2840 1540 c0 -5 5 -10 10 -10 6 0 10 5 10 10 0 6 -4 10 -10 10 -5 0
-10 -4 -10 -10z"/>
<path d="M2236 1502 c-3 -6 -1 -14 5 -17 15 -10 25 3 12 16 -7 7 -13 7 -17 1z"/>
<path d="M2846 1501 c-4 -7 -5 -15 -2 -18 9 -9 19 4 14 18 -4 11 -6 11 -12 0z"/>
<path d="M1778 1454 c-12 -11 5 -44 23 -44 16 0 19 -8 19 -50 0 -38 4 -50 15
-50 8 0 15 7 15 15 0 10 11 15 35 15 35 0 47 13 21 23 -9 4 -12 15 -8 32 7 37
-26 65 -76 65 -21 0 -41 -3 -44 -6z"/>
<path d="M2236 1451 c-4 -5 -2 -12 3 -15 5 -4 12 -2 15 3 4 5 2 12 -3 15 -5 4
-12 2 -15 -3z"/>
<path d="M2840 1445 c0 -8 5 -15 10 -15 6 0 10 7 10 15 0 8 -4 15 -10 15 -5 0
-10 -7 -10 -15z"/>
<path d="M3217 1440 c-9 -11 -17 -34 -17 -50 0 -17 -4 -30 -10 -30 -5 0 -10
-4 -10 -10 0 -5 16 -10 35 -10 24 0 35 -5 35 -15 0 -8 7 -15 15 -15 11 0 15
12 15 50 0 43 3 50 20 50 15 0 20 7 20 25 0 23 -4 25 -43 25 -30 0 -48 -6 -60
-20z"/>
<path d="M2235 1401 c-6 -11 9 -23 19 -14 9 9 7 23 -3 23 -6 0 -12 -4 -16 -9z"/>
<path d="M2840 1401 c0 -6 5 -13 10 -16 6 -3 10 1 10 9 0 9 -4 16 -10 16 -5 0
-10 -4 -10 -9z"/>
<path d="M1700 1350 c0 -5 7 -10 15 -10 9 0 15 -9 15 -24 0 -25 4 -27 63 -40
25 -6 28 -4 25 16 -2 17 -11 24 -33 26 -16 2 -37 12 -46 23 -18 20 -39 25 -39
9z"/>
<path d="M2235 1350 c-3 -5 1 -10 9 -10 9 0 16 5 16 10 0 6 -4 10 -9 10 -6 0
-13 -4 -16 -10z"/>
<path d="M2840 1350 c0 -5 5 -10 10 -10 6 0 10 5 10 10 0 6 -4 10 -10 10 -5 0
-10 -4 -10 -10z"/>
<path d="M3356 1340 c-10 -10 -30 -20 -45 -22 -19 -2 -27 -10 -29 -26 -3 -19
0 -23 15 -19 10 3 30 8 46 11 20 5 27 12 27 31 0 14 5 25 10 25 6 0 10 5 10
10 0 15 -13 11 -34 -10z"/>
<path d="M2235 1300 c3 -5 10 -10 16 -10 5 0 9 5 9 10 0 6 -7 10 -16 10 -8 0
-12 -4 -9 -10z"/>
<path d="M2840 1300 c0 -5 5 -10 10 -10 6 0 10 5 10 10 0 6 -4 10 -10 10 -5 0
-10 -4 -10 -10z"/>
<path d="M1700 1280 c0 -5 -9 -10 -20 -10 -11 0 -23 -7 -26 -15 -4 -8 -15 -15
-25 -15 -10 0 -19 -7 -19 -15 0 -8 -7 -15 -15 -15 -8 0 -15 -9 -15 -19 0 -12
-9 -21 -25 -25 -29 -7 -34 -26 -6 -26 10 0 27 12 37 26 10 15 25 32 32 38 7 6
19 17 27 24 14 13 35 16 35 6 0 -4 -27 -33 -60 -65 -33 -32 -60 -63 -60 -69 0
-5 -6 -10 -14 -10 -8 0 -17 -6 -20 -12 -3 -9 -8 -8 -16 5 -6 9 -15 15 -21 12
-14 -9 -11 -25 6 -25 8 0 15 -5 15 -11 0 -11 -24 -39 -34 -39 -13 0 -116 -112
-116 -126 0 -8 7 -17 16 -21 13 -5 12 -8 -5 -24 -11 -11 -27 -19 -35 -19 -21
0 -30 33 -12 46 20 14 20 24 1 24 -8 0 -15 -4 -15 -10 0 -5 -9 -10 -20 -10
-11 0 -20 5 -20 10 0 6 -7 10 -15 10 -8 0 -15 -7 -15 -15 0 -27 -19 -17 -89
48 -17 15 -26 18 -28 10 -3 -7 -13 -13 -23 -13 -28 0 -31 -14 -8 -34 16 -14
22 -15 29 -5 4 7 5 17 3 21 -3 4 0 8 5 8 6 0 11 -9 11 -20 0 -11 -4 -20 -10
-20 -5 0 -10 -7 -10 -15 0 -8 7 -15 15 -15 8 0 15 5 15 10 0 6 5 10 11 10 8 0
8 -5 -1 -15 -11 -13 -9 -19 11 -36 13 -12 23 -25 21 -30 -1 -5 9 -9 23 -9 14
0 25 -4 25 -10 0 -20 46 -9 64 15 10 14 27 25 37 25 11 0 19 5 19 10 0 6 5 10
11 10 20 0 39 29 39 59 0 19 5 31 13 31 16 0 57 33 57 46 1 16 36 52 56 56 10
2 20 12 22 22 5 22 26 46 40 46 14 0 52 36 52 49 0 6 11 17 25 23 14 6 25 15
25 20 0 4 11 8 25 8 26 0 35 24 13 34 -10 5 -10 7 0 12 16 8 15 22 -2 40 -17
16 -36 19 -36 4z m-480 -440 c0 -5 -4 -10 -10 -10 -5 0 -10 5 -10 10 0 6 5 10
10 10 6 0 10 -4 10 -10z m40 0 c0 -5 -4 -10 -10 -10 -5 0 -10 5 -10 10 0 6 5
10 10 10 6 0 10 -4 10 -10z m30 -50 c0 -5 -4 -10 -10 -10 -5 0 -10 5 -10 10 0
6 5 10 10 10 6 0 10 -4 10 -10z"/>
<path d="M3363 1275 c-7 -8 -13 -18 -13 -24 0 -5 6 -12 13 -15 10 -5 10 -7 0
-12 -21 -9 -15 -34 7 -34 20 0 38 -11 63 -38 49 -53 83 -82 96 -82 5 0 11 -10
13 -22 2 -15 11 -24 26 -26 12 -2 22 -8 22 -13 0 -14 41 -61 85 -97 8 -7 15
-24 15 -37 0 -29 3 -30 29 -9 18 16 18 54 0 54 -5 0 -9 5 -9 11 0 14 -25 39
-39 39 -6 0 -11 5 -11 11 0 11 -25 39 -35 39 -10 0 -35 28 -35 39 0 6 7 11 16
11 17 0 14 22 -4 28 -7 2 -12 -3 -12 -12 0 -9 -5 -16 -11 -16 -11 0 -39 25
-39 35 0 10 -28 35 -39 35 -6 0 -11 7 -11 15 0 8 6 15 14 15 8 0 16 -7 20 -15
3 -8 12 -15 21 -15 8 0 15 -4 15 -10 0 -5 7 -10 15 -10 8 0 15 5 15 10 0 6 -5
10 -11 10 -6 0 -17 6 -24 13 -8 6 -21 18 -30 25 -8 7 -13 17 -10 23 4 5 -1 9
-9 9 -9 0 -16 7 -16 15 0 8 -9 15 -19 15 -10 0 -21 7 -25 15 -3 8 -15 15 -26
15 -11 0 -20 5 -20 10 0 15 -23 12 -37 -5z m93 -47 c43 -37 45 -41 33 -52 -8
-8 -13 -8 -16 2 -3 6 -9 12 -15 12 -13 0 -38 26 -38 39 0 15 17 14 36 -1z"/>
<path d="M2140 1180 c0 -5 11 -10 25 -10 14 0 25 -5 25 -11 0 -16 26 -39 45
-39 19 0 45 23 45 39 0 6 -4 11 -10 11 -5 0 -10 -7 -10 -15 0 -9 -9 -15 -25
-15 -14 0 -25 5 -25 11 0 16 -31 38 -52 39 -10 0 -18 -4 -18 -10z"/>
<path d="M2903 1175 c-7 -8 -13 -19 -13 -25 0 -5 -11 -10 -25 -10 -14 0 -25
-4 -25 -10 0 -5 9 -10 21 -10 22 0 49 22 49 39 0 6 11 11 25 11 16 0 25 -6 25
-16 0 -10 7 -14 23 -12 12 2 22 8 22 13 0 6 -10 11 -22 13 -13 2 -23 8 -23 13
0 14 -44 10 -57 -6z"/>
<path d="M2092 1158 c5 -15 37 -18 41 -3 1 6 -9 12 -22 13 -16 3 -22 -1 -19
-10z"/>
<path d="M2820 1154 c0 -8 5 -12 10 -9 6 4 8 11 5 16 -9 14 -15 11 -15 -7z"/>
<path d="M1510 1130 c0 -5 7 -10 16 -10 8 0 12 5 9 10 -3 6 -10 10 -16 10 -5
0 -9 -4 -9 -10z"/>
<path d="M2203 1075 c-7 -8 -13 -19 -13 -25 0 -5 -7 -10 -16 -10 -11 0 -14 -5
-10 -16 3 -9 6 -17 6 -20 0 -2 9 4 20 13 11 10 20 25 20 35 0 13 8 18 25 18
22 0 25 -4 25 -39 0 -22 -5 -41 -12 -44 -7 -2 -10 -8 -6 -12 18 -19 38 6 38
45 0 61 -45 92 -77 55z"/>
<path d="M2832 1074 c-20 -22 -12 -98 11 -102 10 -2 17 3 17 13 0 9 -4 13 -10
10 -6 -4 -10 10 -10 34 0 34 3 41 20 41 11 0 20 5 20 10 0 15 -33 11 -48 -6z"/>
<path d="M1440 1055 c0 -8 -7 -15 -15 -15 -8 0 -15 -9 -15 -20 0 -13 -7 -20
-20 -20 -11 0 -20 -7 -20 -15 0 -29 26 -13 78 49 15 18 16 36 2 36 -5 0 -10
-7 -10 -15z"/>
<path d="M2115 1060 c-3 -5 1 -10 10 -10 9 0 13 5 10 10 -3 6 -8 10 -10 10 -2
0 -7 -4 -10 -10z"/>
<path d="M2890 1044 c0 -14 4 -23 9 -19 6 3 14 -2 19 -11 8 -14 10 -14 15 5 3
14 0 21 -9 21 -8 0 -14 7 -14 15 0 8 -4 15 -10 15 -5 0 -10 -12 -10 -26z"/>
<path d="M2960 1060 c0 -5 5 -10 10 -10 6 0 10 5 10 10 0 6 -4 10 -10 10 -5 0
-10 -4 -10 -10z"/>
<path d="M3640 1055 c0 -8 5 -15 10 -15 6 0 10 -9 10 -20 0 -11 7 -20 15 -20
8 0 15 -4 15 -9 0 -5 9 -12 19 -16 11 -3 23 -15 26 -26 8 -25 25 -25 25 1 0
11 -7 20 -15 20 -8 0 -15 7 -15 15 0 8 -9 15 -19 15 -11 0 -23 9 -26 20 -3 11
-11 20 -16 20 -5 0 -9 7 -9 15 0 8 -4 15 -10 15 -5 0 -10 -7 -10 -15z"/>
<path d="M2115 980 c4 -6 11 -8 16 -5 14 9 11 15 -7 15 -8 0 -12 -5 -9 -10z"/>
<path d="M2190 979 c0 -5 5 -7 10 -4 6 3 10 8 10 11 0 2 -4 4 -10 4 -5 0 -10
-5 -10 -11z"/>
<path d="M2890 980 c0 -5 5 -10 10 -10 6 0 10 5 10 10 0 6 -4 10 -10 10 -5 0
-10 -4 -10 -10z"/>
<path d="M2960 980 c0 -5 5 -10 10 -10 6 0 10 5 10 10 0 6 -4 10 -10 10 -5 0
-10 -4 -10 -10z"/>
<path d="M1340 950 c0 -11 5 -20 10 -20 6 0 10 9 10 20 0 11 -4 20 -10 20 -5
0 -10 -9 -10 -20z"/>
<path d="M1292 941 c2 -7 7 -12 11 -12 12 1 9 15 -3 20 -7 2 -11 -2 -8 -8z"/>
<path d="M2190 940 c0 -5 5 -10 10 -10 6 0 10 5 10 10 0 6 -4 10 -10 10 -5 0
-10 -4 -10 -10z"/>
<path d="M2235 941 c-6 -11 9 -23 19 -14 9 9 7 23 -3 23 -6 0 -12 -4 -16 -9z"/>
<path d="M2840 941 c0 -6 5 -13 10 -16 6 -3 10 1 10 9 0 9 -4 16 -10 16 -5 0
-10 -4 -10 -9z"/>
<path d="M2890 934 c0 -8 5 -12 10 -9 6 3 10 10 10 16 0 5 -4 9 -10 9 -5 0
-10 -7 -10 -16z"/>
<path d="M3780 935 c0 -9 5 -15 11 -13 6 2 11 8 11 13 0 5 -5 11 -11 13 -6 2
-11 -4 -11 -13z"/>
<path d="M3950 935 c0 -8 5 -15 10 -15 6 0 10 -6 10 -14 0 -23 19 -29 35 -12
21 20 19 36 -5 36 -11 0 -20 5 -20 10 0 6 -7 10 -15 10 -8 0 -15 -7 -15 -15z"/>
<path d="M3902 894 c-23 -25 -49 -28 -44 -5 1 6 -5 11 -13 11 -8 0 -15 -4 -15
-10 0 -15 -47 -12 -53 3 -4 10 -7 10 -18 0 -11 -11 -10 -13 4 -13 11 0 17 -8
17 -25 0 -29 -34 -36 -44 -9 -3 8 -10 12 -16 9 -15 -9 -12 -25 5 -25 8 0 15
-4 15 -10 0 -5 9 -10 20 -10 11 0 20 -7 20 -15 0 -18 27 -20 33 -2 2 7 8 8 13
3 5 -5 4 -11 -3 -13 -22 -8 -14 -23 13 -23 14 0 23 4 19 10 -3 6 3 10 14 10
11 0 34 14 51 30 26 25 29 34 20 45 -8 9 -8 15 -2 15 6 0 12 -5 14 -12 2 -6
10 -8 16 -4 16 10 15 26 -2 26 -8 0 -13 8 -12 17 2 27 -26 25 -52 -3z m-52
-54 c0 -5 -4 -10 -10 -10 -5 0 -10 5 -10 10 0 6 5 10 10 10 6 0 10 -4 10 -10z
m50 0 c0 -5 -4 -10 -10 -10 -5 0 -10 5 -10 10 0 6 5 10 10 10 6 0 10 -4 10
-10z"/>
<path d="M2190 890 c0 -5 5 -10 10 -10 6 0 10 5 10 10 0 6 -4 10 -10 10 -5 0
-10 -4 -10 -10z"/>
<path d="M2235 890 c-3 -5 1 -10 9 -10 9 0 16 5 16 10 0 6 -4 10 -9 10 -6 0
-13 -4 -16 -10z"/>
<path d="M2840 890 c0 -5 5 -10 10 -10 6 0 10 5 10 10 0 6 -4 10 -10 10 -5 0
-10 -4 -10 -10z"/>
<path d="M2890 890 c0 -5 5 -10 10 -10 6 0 10 5 10 10 0 6 -4 10 -10 10 -5 0
-10 -4 -10 -10z"/>
<path d="M2190 840 c0 -5 5 -10 10 -10 6 0 10 5 10 10 0 6 -4 10 -10 10 -5 0
-10 -4 -10 -10z"/>
<path d="M2230 840 c0 -5 7 -10 15 -10 8 0 15 5 15 10 0 6 -7 10 -15 10 -8 0
-15 -4 -15 -10z"/>
<path d="M2840 840 c0 -5 5 -10 10 -10 6 0 10 5 10 10 0 6 -4 10 -10 10 -5 0
-10 -4 -10 -10z"/>
<path d="M2890 840 c0 -5 5 -10 10 -10 6 0 10 5 10 10 0 6 -4 10 -10 10 -5 0
-10 -4 -10 -10z"/>
<path d="M2190 790 c0 -5 5 -10 10 -10 6 0 10 5 10 10 0 6 -4 10 -10 10 -5 0
-10 -4 -10 -10z"/>
<path d="M2235 790 c3 -5 10 -10 16 -10 5 0 9 5 9 10 0 6 -7 10 -16 10 -8 0
-12 -4 -9 -10z"/>
<path d="M2840 790 c0 -5 5 -10 10 -10 6 0 10 5 10 10 0 6 -4 10 -10 10 -5 0
-10 -4 -10 -10z"/>
<path d="M2890 790 c0 -5 5 -10 10 -10 6 0 10 5 10 10 0 6 -4 10 -10 10 -5 0
-10 -4 -10 -10z"/>
<path d="M2236 752 c-3 -6 -1 -14 5 -17 15 -10 25 3 12 16 -7 7 -13 7 -17 1z"/>
<path d="M2846 751 c-4 -7 -5 -15 -2 -18 9 -9 19 4 14 18 -4 11 -6 11 -12 0z"/>
<path d="M2190 740 c0 -5 5 -10 10 -10 6 0 10 5 10 10 0 6 -4 10 -10 10 -5 0
-10 -4 -10 -10z"/>
<path d="M2890 740 c0 -5 5 -10 10 -10 6 0 10 5 10 10 0 6 -4 10 -10 10 -5 0
-10 -4 -10 -10z"/>
<path d="M2190 696 c0 -9 5 -16 10 -16 6 0 10 4 10 9 0 6 -4 13 -10 16 -5 3
-10 -1 -10 -9z"/>
<path d="M2236 701 c-4 -5 -2 -12 3 -15 5 -4 12 -2 15 3 4 5 2 12 -3 15 -5 4
-12 2 -15 -3z"/>
<path d="M2840 695 c0 -8 5 -15 10 -15 6 0 10 7 10 15 0 8 -4 15 -10 15 -5 0
-10 -7 -10 -15z"/>
<path d="M2890 695 c0 -8 5 -15 10 -15 6 0 10 7 10 15 0 8 -4 15 -10 15 -5 0
-10 -7 -10 -15z"/>
<path d="M2190 644 c0 -8 5 -12 10 -9 6 3 10 10 10 16 0 5 -4 9 -10 9 -5 0
-10 -7 -10 -16z"/>
<path d="M2236 651 c-4 -5 -2 -12 3 -15 5 -4 12 -2 15 3 4 5 2 12 -3 15 -5 4
-12 2 -15 -3z"/>
<path d="M2840 651 c0 -6 5 -13 10 -16 6 -3 10 1 10 9 0 9 -4 16 -10 16 -5 0
-10 -4 -10 -9z"/>
<path d="M2890 644 c0 -8 5 -12 10 -9 6 3 10 10 10 16 0 5 -4 9 -10 9 -5 0
-10 -7 -10 -16z"/>
<path d="M2190 600 c0 -5 5 -10 10 -10 6 0 10 5 10 10 0 6 -4 10 -10 10 -5 0
-10 -4 -10 -10z"/>
<path d="M2235 600 c-3 -5 1 -10 9 -10 9 0 16 5 16 10 0 6 -4 10 -9 10 -6 0
-13 -4 -16 -10z"/>
<path d="M2840 600 c0 -5 5 -10 10 -10 6 0 10 5 10 10 0 6 -4 10 -10 10 -5 0
-10 -4 -10 -10z"/>
<path d="M2890 600 c0 -5 5 -10 10 -10 6 0 10 5 10 10 0 6 -4 10 -10 10 -5 0
-10 -4 -10 -10z"/>
<path d="M2190 550 c0 -5 5 -10 10 -10 6 0 10 5 10 10 0 6 -4 10 -10 10 -5 0
-10 -4 -10 -10z"/>
<path d="M2235 550 c-3 -5 1 -10 9 -10 9 0 16 5 16 10 0 6 -4 10 -9 10 -6 0
-13 -4 -16 -10z"/>
<path d="M2840 550 c0 -5 5 -10 10 -10 6 0 10 5 10 10 0 6 -4 10 -10 10 -5 0
-10 -4 -10 -10z"/>
<path d="M2890 550 c0 -5 5 -10 10 -10 6 0 10 5 10 10 0 6 -4 10 -10 10 -5 0
-10 -4 -10 -10z"/>
<path d="M2190 500 c0 -5 -7 -10 -15 -10 -9 0 -15 -9 -15 -25 0 -14 4 -25 9
-25 5 0 12 11 15 25 4 14 11 25 16 25 6 0 10 5 10 10 0 6 -4 10 -10 10 -5 0
-10 -4 -10 -10z"/>
<path d="M2235 500 c3 -5 10 -10 16 -10 5 0 9 5 9 10 0 6 -7 10 -16 10 -8 0
-12 -4 -9 -10z"/>
<path d="M2840 500 c0 -5 5 -10 10 -10 6 0 10 5 10 10 0 6 -4 10 -10 10 -5 0
-10 -4 -10 -10z"/>
<path d="M2890 500 c0 -5 4 -10 9 -10 5 0 12 -11 15 -25 4 -14 11 -23 16 -20
10 6 2 34 -16 53 -15 15 -24 16 -24 2z"/>
<path d="M2236 462 c-3 -6 -1 -14 5 -17 15 -10 25 3 12 16 -7 7 -13 7 -17 1z"/>
<path d="M2115 450 c4 -6 11 -8 16 -5 14 9 11 15 -7 15 -8 0 -12 -5 -9 -10z"/>
<path d="M2840 450 c0 -5 5 -10 10 -10 6 0 10 5 10 10 0 6 -4 10 -10 10 -5 0
-10 -4 -10 -10z"/>
<path d="M2960 450 c0 -5 5 -10 10 -10 6 0 10 5 10 10 0 6 -4 10 -10 10 -5 0
-10 -4 -10 -10z"/>
<path d="M2115 380 c3 -5 10 -10 16 -10 5 0 9 5 9 10 0 6 -7 10 -16 10 -8 0
-12 -4 -9 -10z"/>
<path d="M2160 380 c0 -5 4 -10 9 -10 6 0 13 5 16 10 3 6 -1 10 -9 10 -9 0
-16 -4 -16 -10z"/>
<path d="M2235 380 c3 -5 10 -10 16 -10 5 0 9 5 9 10 0 6 -7 10 -16 10 -8 0
-12 -4 -9 -10z"/>
<path d="M2840 380 c0 -5 5 -10 10 -10 6 0 10 5 10 10 0 6 -4 10 -10 10 -5 0
-10 -4 -10 -10z"/>
<path d="M2910 380 c0 -5 -9 -10 -20 -10 -11 0 -20 -6 -20 -14 0 -9 7 -12 20
-9 11 3 20 9 20 14 0 5 7 9 15 9 8 0 15 5 15 10 0 6 -7 10 -15 10 -8 0 -15 -4
-15 -10z"/>
<path d="M2960 380 c0 -5 5 -10 10 -10 6 0 10 5 10 10 0 6 -4 10 -10 10 -5 0
-10 -4 -10 -10z"/>
<path d="M2190 360 c0 -5 9 -10 20 -10 11 0 20 5 20 10 0 6 -9 10 -20 10 -11
0 -20 -4 -20 -10z"/>
<path d="M2116 341 c-4 -6 0 -14 8 -17 9 -3 16 -17 16 -30 0 -13 5 -24 10 -24
6 0 10 11 10 24 0 13 6 26 13 29 6 2 8 8 4 13 -4 5 -12 2 -17 -6 -8 -13 -11
-12 -23 4 -10 13 -16 15 -21 7z"/>
<path d="M2020 330 c0 -5 5 -10 10 -10 6 0 10 -11 10 -25 0 -14 5 -25 10 -25
15 0 12 39 -4 56 -17 16 -26 18 -26 4z"/>
<path d="M2073 326 c9 -7 17 -23 17 -35 0 -11 5 -21 10 -21 15 0 12 39 -4 56
-8 8 -21 14 -28 14 -9 -1 -7 -5 5 -14z"/>
<path d="M2240 330 c0 -5 5 -10 10 -10 6 0 10 5 10 10 0 6 -4 10 -10 10 -5 0
-10 -4 -10 -10z"/>
<path d="M2840 330 c0 -5 5 -10 10 -10 6 0 10 5 10 10 0 6 -4 10 -10 10 -5 0
-10 -4 -10 -10z"/>
<path d="M2915 330 c4 -6 11 -8 16 -5 14 9 11 15 -7 15 -8 0 -12 -5 -9 -10z"/>
<path d="M2953 325 c-15 -17 -17 -55 -3 -55 6 0 10 11 10 25 0 14 5 25 10 25
6 0 10 5 10 10 0 14 -13 12 -27 -5z"/>
<path d="M3010 330 c0 -5 5 -10 10 -10 6 0 10 5 10 10 0 6 -4 10 -10 10 -5 0
-10 -4 -10 -10z"/>
<path d="M3060 330 c0 -5 5 -10 10 -10 6 0 10 5 10 10 0 6 -4 10 -10 10 -5 0
-10 -4 -10 -10z"/>
<path d="M1998 302 c-4 -12 -2 -24 2 -27 13 -8 18 8 10 29 -6 19 -7 19 -12 -2z"/>
<path d="M2190 295 c0 -14 5 -25 10 -25 6 0 10 11 10 25 0 14 -4 25 -10 25 -5
0 -10 -11 -10 -25z"/>
<path d="M2890 295 c0 -14 5 -25 10 -25 6 0 10 11 10 25 0 14 -4 25 -10 25 -5
0 -10 -11 -10 -25z"/>
<path d="M2990 306 c0 -9 0 -19 -1 -23 0 -4 4 -9 10 -11 14 -5 14 35 1 43 -5
3 -10 -1 -10 -9z"/>
<path d="M3038 302 c-4 -12 -2 -24 2 -27 13 -8 18 8 10 29 -6 19 -7 19 -12 -2z"/>
<path d="M3086 302 c-4 -13 -5 -26 -2 -29 10 -11 18 4 14 29 l-4 23 -8 -23z"/>
</g>
</svg>
