<svg width="656" height="142" viewBox="0 0 656 142" fill="none" xmlns="http://www.w3.org/2000/svg">
<path d="M56.6659 142.002C45.504 142.002 35.6739 139.344 27.1757 134.029C18.7408 128.713 12.1451 120.808 7.38865 110.312C2.63215 99.8156 0.253906 86.7964 0.253906 71.2542C0.253906 55.6446 2.60044 42.5918 7.29352 32.0957C12.05 21.5996 18.6774 13.6939 27.1757 8.3786C35.6739 2.99599 45.504 0.304688 56.6659 0.304688C72.7746 0.304688 85.0464 4.34164 93.4812 12.4156C101.916 20.4895 106.926 30.9519 108.512 43.8029L76.1676 49.7574C74.7089 43.9711 72.3941 39.194 69.2231 35.4262C66.1155 31.5911 61.9298 29.6735 56.6659 29.6735C51.9729 29.6735 47.8189 31.1874 44.2039 34.2151C40.6524 37.1755 37.8936 41.7171 35.9276 47.8398C33.9616 53.9625 32.9786 61.7673 32.9786 71.2542C32.9786 80.5392 33.9933 88.243 36.0227 94.3657C38.0522 100.421 40.8427 104.929 44.3942 107.89C48.0091 110.85 52.0997 112.33 56.6659 112.33C63.1982 112.33 68.0815 110.514 71.3159 106.88C74.5504 103.18 76.1676 98.7055 76.1676 93.4574H108.321C108.321 103.886 106.324 112.734 102.328 120C98.3963 127.2 92.5933 132.683 84.9195 136.451C77.2457 140.152 67.8278 142.002 56.6659 142.002Z" fill="#9CCBF0"/>
<path d="M184.858 138.772L227.857 3.33241H266.575L307.195 138.772H275.136L268.192 114.954H224.147L217.202 138.772H184.858ZM231.852 91.0352H261.247L246.787 41.4816L231.852 91.0352Z" fill="#9CCBF0"/>
<path d="M421.771 3.33241V110.514H470.002V138.772H391.33V3.33241H421.771Z" fill="#9CCBF0"/>
<path d="M603.938 142.002C592.776 142.002 582.946 139.344 574.448 134.029C566.013 128.713 559.417 120.808 554.661 110.312C549.904 99.8156 547.526 86.7964 547.526 71.2542C547.526 55.6446 549.872 42.5918 554.565 32.0957C559.322 21.5996 565.949 13.6939 574.448 8.3786C582.946 2.99599 592.776 0.304688 603.938 0.304688C620.046 0.304688 632.318 4.34164 640.753 12.4156C649.188 20.4895 654.198 30.9519 655.784 43.8029L623.439 49.7574C621.981 43.9711 619.666 39.194 616.495 35.4262C613.387 31.5911 609.202 29.6735 603.938 29.6735C599.245 29.6735 595.091 31.1874 591.476 34.2151C587.924 37.1755 585.165 41.7171 583.199 47.8398C581.233 53.9625 580.25 61.7673 580.25 71.2542C580.25 80.5392 581.265 88.243 583.295 94.3657C585.324 100.421 588.115 104.929 591.666 107.89C595.281 110.85 599.372 112.33 603.938 112.33C610.47 112.33 615.353 110.514 618.588 106.88C621.822 103.18 623.439 98.7055 623.439 93.4574H655.593C655.593 103.886 653.596 112.734 649.6 120C645.668 127.2 639.865 132.683 632.191 136.451C624.518 140.152 615.1 142.002 603.938 142.002Z" fill="#9CCBF0"/>
<g clip-path="url(#clip0_1108_8046)">
<path d="M56.412 141.697C45.2501 141.697 35.42 139.039 26.9218 133.724C18.4869 128.409 11.8912 120.503 7.13474 110.007C2.37825 99.5109 0 86.4918 0 70.9495C0 55.3399 2.34654 42.2871 7.03961 31.791C11.7961 21.2949 18.4235 13.3892 26.9218 8.07391C35.42 2.6913 45.2501 0 56.412 0C72.5207 0 84.7925 4.03696 93.2273 12.1109C101.662 20.1848 106.672 30.6472 108.258 43.4982L75.9137 49.4527C74.455 43.6664 72.1402 38.8893 68.9692 35.1215C65.8616 31.2864 61.6759 29.3688 56.412 29.3688C51.719 29.3688 47.565 30.8827 43.95 33.9104C40.3985 36.8709 37.6397 41.4124 35.6737 47.5352C33.7077 53.6579 32.7247 61.4626 32.7247 70.9495C32.7247 80.2345 33.7394 87.9383 35.7688 94.0611C37.7983 100.116 40.5888 104.624 44.1403 107.585C47.7552 110.545 51.8458 112.026 56.412 112.026C62.9443 112.026 67.8276 110.209 71.062 106.576C74.2965 102.875 75.9137 98.4008 75.9137 93.1527H108.068C108.068 103.582 106.07 112.429 102.074 119.696C98.1424 126.895 92.3394 132.378 84.6656 136.146C76.9918 139.847 67.5739 141.697 56.412 141.697Z" fill="#FFB636"/>
<path d="M184.604 138.468L227.603 3.02773H266.321L306.941 138.468H274.882L267.938 114.65H223.893L216.948 138.468H184.604ZM231.598 90.7306H260.993L246.534 41.1769L231.598 90.7306Z" fill="#FFB636"/>
<path d="M421.518 3.02773V110.209H469.748V138.468H391.076V3.02773H421.518Z" fill="#FFB636"/>
<path d="M603.684 141.697C592.522 141.697 582.692 139.039 574.194 133.724C565.759 128.409 559.163 120.503 554.407 110.007C549.65 99.5109 547.272 86.4918 547.272 70.9495C547.272 55.3399 549.618 42.2871 554.312 31.791C559.068 21.2949 565.695 13.3892 574.194 8.07391C582.692 2.6913 592.522 0 603.684 0C619.793 0 632.064 4.03696 640.499 12.1109C648.934 20.1848 653.944 30.6472 655.53 43.4982L623.186 49.4527C621.727 43.6664 619.412 38.8893 616.241 35.1215C613.134 31.2864 608.948 29.3688 603.684 29.3688C598.991 29.3688 594.837 30.8827 591.222 33.9104C587.67 36.8709 584.912 41.4124 582.946 47.5352C580.98 53.6579 579.997 61.4626 579.997 70.9495C579.997 80.2345 581.011 87.9383 583.041 94.0611C585.07 100.116 587.861 104.624 591.412 107.585C595.027 110.545 599.118 112.026 603.684 112.026C610.216 112.026 615.1 110.209 618.334 106.576C621.568 102.875 623.186 98.4008 623.186 93.1527H655.34C655.34 103.582 653.342 112.429 649.346 119.696C645.414 126.895 639.611 132.378 631.938 136.146C624.264 139.847 614.846 141.697 603.684 141.697Z" fill="#FFB636"/>
</g>
<defs>
<clipPath id="clip0_1108_8046">
<rect width="656" height="69.3852" fill="white"/>
</clipPath>
</defs>
</svg>
