<?xml version="1.0" encoding="utf-8"?>
<!-- Generator: Adobe Illustrator 27.2.0, SVG Export Plug-In . SVG Version: 6.00 Build 0)  -->
<svg version="1.1" id="Layer_1" xmlns="http://www.w3.org/2000/svg" xmlns:xlink="http://www.w3.org/1999/xlink" x="0px" y="0px"
	 viewBox="0 0 100 100" style="enable-background:new 0 0 100 100;" xml:space="preserve">
<style type="text/css">
	.st0{fill-rule:evenodd;clip-rule:evenodd;fill:#22242F;}
	.st1{fill:#60FBD0;}
	.st2{fill:#607D8B;}
	.st3{fill:#FEFEFE;}
</style>
<rect x="0" y="0" class="st0" width="100" height="100"/>
<g id="kuji">
	<circle id="Oval" class="st0" cx="50" cy="50" r="50"/>
	<path id="Oval_00000005962537176861037640000002521105083078250939_" class="st1" d="M50,2c26.5,0,48,21.5,48,48S76.5,98,50,98
		S2,76.5,2,50S23.5,2,50,2z M50,5.4C25.4,5.4,5.4,25.4,5.4,50s20,44.6,44.6,44.6s44.6-20,44.6-44.6S74.6,5.4,50,5.4z"/>
</g>
<g>
	<path class="st2" d="M23.4,36.6c0-2.6,0-5.2,0-7.7c0-0.2,0.1-0.2,0.2-0.2c0.7,0,1.5,0,2.2,0c0.2,0,0.2-0.1,0.2-0.2
		c0-0.7,0-1.4,0-2.2c0-0.2,0.1-0.3,0.3-0.3c0.7,0,1.4,0,2.1,0c0.2,0,0.3-0.1,0.3-0.3c0-0.7,0-1.4,0-2.1c0-0.2,0.1-0.3,0.3-0.3
		c3.5,0,6.9,0,10.4,0c1.7,0,3.3,0,5,0c0.2,0,0.3,0.1,0.3,0.3c0,0.7,0,1.4,0,2.1c0,0.2,0,0.2,0.2,0.2c0.7,0,1.5,0,2.2,0
		c0.2,0,0.2,0.1,0.2,0.2c0,0.7,0,1.4,0,2.2c0,0.2,0.1,0.3,0.3,0.3c0.7,0,1.4,0,2.1,0c0.2,0,0.3,0.1,0.3,0.3c0,0.7,0,1.4,0,2.2
		c0,0.2,0.1,0.2,0.2,0.2c0.7,0,1.4,0,2.2,0c0.2,0,0.3,0.1,0.3,0.3c0,0.7,0,1.4,0,2.1c0,0.3,0.1,0.3,0.3,0.3c0.7,0,1.4,0,2.1,0
		c0.2,0,0.3,0.1,0.3,0.3c0,0.7,0,1.4,0,2.1c0,0.2,0,0.3,0.2,0.3c4.3,0,8.6,0,12.8,0c0.2,0,0.2-0.1,0.2-0.2c0-0.7,0-1.5,0-2.2
		c0-0.2,0-0.2-0.2-0.2c-0.7,0-1.5,0-2.2,0c-0.2,0-0.2-0.1-0.2-0.2c0-0.7,0-1.4,0-2.2c0-0.2-0.1-0.3-0.3-0.3c-1.6,0-3.2,0-4.8,0
		c-0.2,0-0.3-0.1-0.3-0.3c0-0.7,0-1.4,0-2.1c0-0.2,0.1-0.2,0.2-0.2c2.5,0,5,0,7.5,0c0.2,0,0.2,0.1,0.2,0.2c0,0.7,0,1.5,0,2.2
		c0,0.2,0.1,0.2,0.2,0.2c0.7,0,1.5,0,2.2,0c0.2,0,0.2-0.1,0.2-0.2c0-0.7,0-1.5,0-2.2c0-0.2,0.1-0.2,0.2-0.2c2.5,0,5,0,7.5,0
		c0.2,0,0.2,0.1,0.2,0.2c0,0.7,0,1.4,0,2.2c0,0.2-0.1,0.3-0.3,0.3c-1.6,0-3.2,0-4.8,0c-0.2,0-0.3,0.1-0.3,0.3c0,0.7,0,1.4,0,2.1
		c0,0.2,0,0.2-0.2,0.2c-0.7,0-1.4,0-2.1,0c-0.3,0-0.3,0.1-0.3,0.3c0,3.3,0,6.7,0,10c0,0.3-0.1,0.3-0.3,0.3c-0.7,0-1.4,0-2.1,0
		c-0.2,0-0.2,0-0.2,0.2c0,0.7,0,1.5,0,2.2c0,0.2,0,0.2-0.2,0.2c-0.7,0-1.5,0-2.2,0c-0.2,0-0.2,0-0.2,0.2c0,0.7,0,1.4,0,2.2
		c0,0.2-0.1,0.3-0.3,0.3c-1.7,0-3.4,0-5.1,0c-1.7,0-3.4,0-5.1,0c-0.2,0-0.2,0.1-0.2,0.2c0,0.7,0,1.4,0,2.2c0,0.2,0,0.3,0.3,0.3
		c0.8,0,1.6,0,2.4,0c0,1.7,0,3.4,0,5.1c0,0.2-0.1,0.3-0.3,0.3c-1.6,0-3.2,0-4.8,0c-0.2,0-0.3-0.1-0.3-0.3c0-0.7,0-1.4,0-2.1
		c0-0.2-0.1-0.3-0.3-0.3c-0.7,0-1.4,0-2.1,0C50,55.3,50,55.2,50,55c0-0.7,0-1.4,0-2.1c0-0.2-0.1-0.3-0.3-0.3c-0.7,0-1.4,0-2.1,0
		c-0.2,0-0.3-0.1-0.3-0.3c0-0.7,0-1.4,0-2.1c0-0.2-0.1-0.3-0.3-0.3c-0.8,0-1.6,0-2.4,0c0-0.8,0-1.6,0-2.4c0-0.2-0.1-0.3-0.3-0.3
		c-0.7,0-1.4,0-2.2,0c-0.2,0-0.2-0.1-0.2-0.2c0-0.7,0-1.4,0-2.1c0-0.3-0.1-0.3-0.3-0.3c-0.7,0-1.3,0-2,0c-0.2,0-0.3,0-0.3-0.3
		c0-0.7,0-1.3,0-2c0-0.3-0.1-0.3-0.3-0.3c-1.6,0-3.1,0-4.7,0c-0.2,0-0.3-0.1-0.3-0.3c0-0.7,0-1.4,0-2.1c0-0.3-0.1-0.3-0.3-0.3
		c-1.6,0-3.1,0-4.7,0c-0.3,0-0.3-0.1-0.3-0.3c0-0.6,0-1.3,0-1.9c0-0.3,0-0.4-0.4-0.4C26.7,36.6,25,36.6,23.4,36.6z M38,36.6
		c0.4,0,0.8,0,1.2,0c0.1,0,0.2,0,0.2-0.2c0-0.8,0-1.5,0-2.3c0-0.1,0-0.2-0.2-0.2c-0.8,0-1.5,0-2.3,0c-0.1,0-0.2,0-0.2,0.2
		c0,0.8,0,1.5,0,2.3c0,0.1,0,0.2,0.2,0.2C37.3,36.6,37.6,36.6,38,36.6z"/>
	<path class="st1" d="M23.4,36.6c1.6,0,3.3,0,4.9,0c0.4,0,0.4,0.1,0.4,0.4c0,0.6,0,1.3,0,1.9c0,0.2,0,0.3,0.3,0.3c1.6,0,3.1,0,4.7,0
		c0.3,0,0.3,0.1,0.3,0.3c0,0.7,0,1.4,0,2.1c0,0.2,0.1,0.3,0.3,0.3c1.6,0,3.1,0,4.7,0c0.3,0,0.3,0.1,0.3,0.3c0,0.7,0,1.3,0,2
		c0,0.3,0.1,0.3,0.3,0.3c0.7,0,1.3,0,2,0c0.2,0,0.3,0,0.3,0.3c0,0.7,0,1.4,0,2.1c0,0.2,0,0.2,0.2,0.2c0.7,0,1.4,0,2.2,0
		c0.2,0,0.3,0.1,0.3,0.3c0,0.8,0,1.6,0,2.4l0,0c-1.8,0-3.5,0-5.3,0c-0.8,0-1.5,0-2.3,0c-0.4,0-0.4-0.1-0.4-0.4c0-0.6,0-1.3,0-1.9
		c0-0.2-0.1-0.3-0.3-0.3c-1.5,0-3.1,0-4.7,0c-0.3,0-0.4-0.1-0.4-0.4c0-0.7,0-1.3,0-2c0-0.3-0.1-0.3-0.3-0.3c-0.7,0-1.4,0-2.1,0
		c-0.2,0-0.3-0.1-0.3-0.3c0-0.7,0-1.4,0-2c0-0.3-0.1-0.4-0.4-0.4c-0.7,0-1.3,0-2,0c-0.2,0-0.3-0.1-0.3-0.3c0-0.7,0-1.4,0-2.1
		c0-0.2-0.1-0.3-0.3-0.3c-0.7,0-1.4,0-2.1,0c-0.2,0-0.3,0-0.3-0.3C23.4,38.2,23.4,37.4,23.4,36.6z"/>
	<path class="st2" d="M39.4,49.9c1.8,0,3.5,0,5.3,0c0,1.7,0,3.3,0,5c0,0.2,0,0.3-0.3,0.3c-0.7,0-1.4,0-2.1,0c-0.2,0-0.3,0-0.3-0.3
		c0-0.7,0-1.4,0-2.1c0-0.2,0-0.3-0.3-0.3c-0.7,0-1.4,0-2.1,0c-0.2,0-0.3,0-0.3-0.3C39.4,51.5,39.4,50.7,39.4,49.9z"/>
	<path class="st1" d="M58,52.6c-0.8,0-1.6,0-2.4,0c-0.2,0-0.3-0.1-0.3-0.3c0-0.7,0-1.4,0-2.2c0-0.2,0-0.2,0.2-0.2c1.7,0,3.4,0,5.1,0
		c0,0.8,0,1.5,0,2.3c0,0.3-0.1,0.3-0.4,0.3C59.5,52.5,58.7,52.6,58,52.6z"/>
	<path class="st3" d="M38,36.6c-0.4,0-0.8,0-1.1,0c-0.1,0-0.2,0-0.2-0.2c0-0.8,0-1.5,0-2.3c0-0.1,0-0.2,0.2-0.2c0.8,0,1.5,0,2.3,0
		c0.1,0,0.2,0,0.2,0.2c0,0.8,0,1.5,0,2.3c0,0.1,0,0.2-0.2,0.2C38.8,36.6,38.4,36.6,38,36.6z"/>
</g>
<g>
	<path class="st2" d="M34.2,79.3v-1h1v1H34.2z M40.4,81.4v-4.2h-4.2v1h-1v-2.1h6.2v5.2H40.4L40.4,81.4z M35.2,83.4v-1h4.2v1H35.2z
		 M39.4,82.4v-1h1v1H39.4z"/>
	<path class="st2" d="M42.5,79.3v-1h1v1H42.5z M42.5,82.4v-1h3.1v1H42.5z M43.5,77.2v-1h1v1H43.5z M43.5,80.3v-1h1v1H43.5z
		 M44.6,78.2v-1h1v1H44.6z M45.6,81.4v-1h1v1H45.6z M46.7,80.3v-1h1v1H46.7z M47.7,79.3v-2.1h1v2.1H47.7z M48.7,76.2v-1h1v1H48.7z
		 M49.8,77.2v-1h1v1H49.8z M50.8,76.2v-1h1v1H50.8z M51.9,77.2v-1h1v1H51.9z"/>
	<path class="st2" d="M60.2,80.3v-1h-6.2v-1h7.3v2.1H60.2L60.2,80.3z M55,77.2v-1h5.2v1H55z M56,83.4v-1h2.1v1H56z M58.1,82.4v-1h1
		v1H58.1z M59.1,81.4v-1h1v1H59.1z"/>
	<path class="st2" d="M62.2,77.2v-1h1v1H62.2z M62.2,83.4v-1h2.1v1H62.2z M63.3,78.2v-1h1v1H63.3z M64.3,82.4v-1h1v1H64.3z
		 M65.4,81.4v-1h1v1H65.4z M66.4,80.3v-1h1v1H66.4z M67.4,79.3v-2.1h1v2.1H67.4z"/>
</g>
<g>
	<path class="st1" d="M20.6,70.4v-6.3h1.3v6.3H20.6z M23.1,67.9v-1.3H24l1.3-2.5h1.6l-1.3,2.5h1.3v3.8h-1.3v-2.5L23.1,67.9
		L23.1,67.9z"/>
	<path class="st1" d="M30.4,64.1v5h3.8v-5h1.3v6.3h-6.3v-6.3H30.4L30.4,64.1z"/>
	<path class="st1" d="M43.9,64.1v6.3h-6.3v-1.3h5v-5L43.9,64.1L43.9,64.1z"/>
	<path class="st1" d="M47.7,64.1v6.3h-1.3v-6.3H47.7z"/>
	<path class="st1" d="M55.2,67.9v-2.5h-3.8v5h-1.3v-6.3h6.3v5h-1.3l1.3,1.3h-1.6l-1.3-1.3h-0.9v-1.3L55.2,67.9L55.2,67.9z"/>
	<path class="st1" d="M63.8,67.9v-2.5H60v5h-1.3v-6.3H65v6.3h-1.3v-1.3h-2.5v-1.3H63.8L63.8,67.9z"/>
	<path class="st1" d="M73.6,64.1v6.3h-1.3v-5h-3.8v5h-1.3v-6.3H73.6z"/>
	<path class="st1" d="M82.1,65.4h-5v1.3h5v3.8h-6.3v-1.3h5v-1.3h-5v-3.8h6.3V65.4L82.1,65.4z"/>
</g>
</svg>
