<svg width="100" height="100" viewBox="0 0 100 100" fill="none" xmlns="http://www.w3.org/2000/svg">
<path d="M100 50C100 77.6142 77.6142 100 50 100C22.3858 100 0 77.6142 0 50C0 22.3858 22.3858 0 50 0C77.6142 0 100 22.3858 100 50Z" fill="#202225"/>
<path d="M77.8944 50.0002C77.8944 65.4059 65.4055 77.8947 49.9998 77.8947C34.5941 77.8947 22.1053 65.4059 22.1053 50.0002C22.1053 34.5945 34.5941 22.1057 49.9998 22.1057C65.4055 22.1057 77.8944 34.5945 77.8944 50.0002Z" fill="url(#paint0_linear_306_282)"/>
<path fill-rule="evenodd" clip-rule="evenodd" d="M92.8816 54.8761C92.6842 56.6117 91.0179 57.7403 89.3013 57.4164C87.5848 57.0925 86.4702 55.4384 86.6457 53.7004C87.0821 49.3779 86.7512 45.0036 85.6597 40.7813C84.5681 36.559 82.7376 32.5723 80.2608 29.0029C79.265 27.5677 79.4383 25.5807 80.7828 24.4654C82.1273 23.3502 84.1318 23.5298 85.1457 24.9523C88.2066 29.2472 90.4597 34.0745 91.7842 39.1979C93.1087 44.3214 93.4774 49.6358 92.8816 54.8761Z" fill="white"/>
<path fill-rule="evenodd" clip-rule="evenodd" d="M74.7086 14.6151C76.1408 15.6152 76.3396 17.6179 75.2374 18.973C74.1351 20.3282 72.1498 20.5206 70.7051 19.5386C68.5878 18.0995 66.3263 16.885 63.9571 15.9149C62.3406 15.2529 61.4044 13.4917 61.9253 11.8243C62.4461 10.1569 64.2255 9.21652 65.8502 9.85807C68.9782 11.0932 71.9512 12.6897 74.7086 14.6151Z" fill="white"/>
<path fill-rule="evenodd" clip-rule="evenodd" d="M51.4153 6.86523C53.1612 6.92257 54.4201 8.49288 54.2351 10.2299C54.0502 11.9669 52.4908 13.2108 50.7443 13.1754C43.6892 13.0326 36.7388 14.9208 30.7256 18.6137C29.2371 19.5278 27.2627 19.2439 26.2243 17.8393C25.1858 16.4346 25.4772 14.4431 26.9541 13.5103C34.2578 8.89719 42.7814 6.58168 51.4153 6.86523Z" fill="white"/>
<path fill-rule="evenodd" clip-rule="evenodd" d="M16.109 23.2793C17.1905 21.9075 19.2014 21.8252 20.4903 23.0043C21.7792 24.1834 21.856 26.1765 20.7918 27.5617C18.4846 30.565 16.6543 33.9065 15.3657 37.4677C14.7713 39.1103 13.0504 40.1187 11.3629 39.6674C9.67531 39.2161 8.66197 37.4773 9.23562 35.8273C10.8126 31.2914 13.1358 27.0503 16.109 23.2793Z" fill="white"/>
<path fill-rule="evenodd" clip-rule="evenodd" d="M6.84924 50.7826C6.81756 49.036 8.32172 47.6989 10.0659 47.7952C11.8101 47.8915 13.1318 49.3853 13.1854 51.1314C13.2533 53.3418 13.5202 55.5416 13.9828 57.7041C14.3482 59.4123 13.422 61.1788 11.7515 61.6894C10.0809 62.1999 8.30065 61.2612 7.91379 59.5578C7.25954 56.6769 6.90281 53.7364 6.84924 50.7826Z" fill="white"/>
<path fill-rule="evenodd" clip-rule="evenodd" d="M13.5278 73.0734C12.5939 71.5972 13.1851 69.6733 14.7258 68.85C16.2664 68.0267 18.1716 68.6172 19.124 70.0816C23.3368 76.5592 29.4984 81.5723 36.7585 84.3694C44.0185 87.1665 51.951 87.5834 59.4208 85.6069C61.1096 85.16 62.9185 86.0004 63.5085 87.6446C64.0985 89.2888 63.2461 91.112 61.5631 91.5801C52.6579 94.0568 43.1613 93.6154 34.4842 90.2724C25.8071 86.9293 18.4692 80.8848 13.5278 73.0734Z" fill="white"/>
<path fill-rule="evenodd" clip-rule="evenodd" d="M74.8544 85.2827C73.4263 86.2887 71.4754 85.7936 70.5767 84.2957C69.678 82.7978 70.1733 80.8657 71.5886 79.8418C76.2782 76.4493 80.103 71.9981 82.7511 66.8513C83.5503 65.298 85.3859 64.5176 87.002 65.1806C88.6181 65.8436 89.4011 67.6977 88.6216 69.261C85.4309 75.6591 80.6994 81.1654 74.8544 85.2827Z" fill="white"/>
<defs>
<linearGradient id="paint0_linear_306_282" x1="25.4719" y1="25.1516" x2="75.169" y2="71.1615" gradientUnits="userSpaceOnUse">
<stop stop-color="#FBA367"/>
<stop offset="1" stop-color="#EF6100"/>
</linearGradient>
</defs>
</svg>
