<?xml version="1.0" encoding="UTF-8" standalone="no"?><!DOCTYPE svg PUBLIC "-//W3C//DTD SVG 1.1//EN" "http://www.w3.org/Graphics/SVG/1.1/DTD/svg11.dtd"><svg width="100%" height="100%" viewBox="0 0 1697 1497" version="1.1" xmlns="http://www.w3.org/2000/svg" xmlns:xlink="http://www.w3.org/1999/xlink" xml:space="preserve" xmlns:serif="http://www.serif.com/" style="fill-rule:evenodd;clip-rule:evenodd;stroke-linejoin:round;stroke-miterlimit:2;"><g><g id="dv2"><g><circle cx="949.259" cy="747.402" r="747.402" style="fill:#000f18;"/><path d="M623.221,293.433c31.975,7.383 -61.882,65.077 -54.418,85.579c7.465,20.502 36.394,41.724 60.415,38.916c24.021,-2.808 70.7,-86.662 83.711,-55.762c16.448,39.06 -68.313,225.032 14.975,290.124c81.027,63.326 208.566,69.503 329.805,58.773c156.707,-13.869 307.214,-114.905 408.39,-130.021c53.614,-8.01 66.688,208.406 -52.028,341.194c-61.845,69.175 -138.997,149.835 -218.185,215.1c-98.747,81.386 -167.463,105.139 -193.496,189.116c-33.46,107.937 63.865,121.311 159.186,100.973c93.843,-20.022 184.889,-72.583 198.187,-59.784c18.013,17.335 -71.097,80.197 -229.264,112.298c-218.4,44.326 -562.841,20.992 -866.374,-330.06c-204.457,-236.466 -281.65,-604.485 -260.847,-697.528c27.472,-122.866 208.706,96.06 330.1,37.573c50.896,-24.522 93.532,-49.429 132.883,-98.76c53.64,-67.244 134.202,-102.986 156.96,-97.731Z" style="fill:url(#_Linear1);"/></g></g></g><defs><linearGradient id="_Linear1" x1="0" y1="0" x2="1" y2="0" gradientUnits="userSpaceOnUse" gradientTransform="matrix(899.594,1336.08,-1336.08,899.594,524.722,85.1228)"><stop offset="0" style="stop-color:#7d079c;stop-opacity:1"/><stop offset="0.23" style="stop-color:#6c19a2;stop-opacity:1"/><stop offset="0.52" style="stop-color:#4543af;stop-opacity:1"/><stop offset="0.76" style="stop-color:#3a68ab;stop-opacity:1"/><stop offset="1" style="stop-color:#19d4a1;stop-opacity:1"/></linearGradient></defs></svg>