<?xml version="1.0" encoding="UTF-8"?>
<svg width="80px" height="80px" viewBox="0 0 80 80" version="1.1" xmlns="http://www.w3.org/2000/svg" xmlns:xlink="http://www.w3.org/1999/xlink">
    <title>Group 7</title>
    <g id="symbols" stroke="none" stroke-width="1" fill="none" fill-rule="evenodd">
        <g id="Group-7">
            <circle id="Oval-Copy" fill="#E53935" cx="40" cy="40" r="40"></circle>
            <path d="M52.8899241,31.5925563 C52.8784455,32.5148925 53.240898,32.7714721 53.9169177,32.4955815 C54.1224515,32.4117204 54.3220434,32.2977451 54.4997586,32.1647288 C55.9403856,31.0853389 57.1063374,29.7700307 57.8664883,28.1268409 C58.0234069,27.7876156 58.1313054,27.4059872 58.1670915,27.034622 C58.2408244,26.2715002 57.8388047,25.9900728 57.134021,26.2744711 C56.927947,26.3576569 56.7283551,26.4687964 56.5455084,26.5956007 C55.0568064,27.6281311 53.9223194,28.9642357 53.1791838,30.6172836 C53.0164583,30.9791959 52.9497476,31.3843217 52.8899241,31.5925563 M45.6957017,44.8463789 C44.3678347,45.7082163 43.1018168,46.6470276 41.7315467,47.3947546 C38.8995829,48.9399041 35.7716073,49.471294 32.608926,49.8433344 C30.9576336,50.0377947 29.2983737,50.2079475 27.6665273,50.515573 C24.4091816,51.1298786 23.2001515,52.9503785 23.7725941,56.3189988 C23.9544955,56.1981363 24.1122245,56.1011762 24.2615808,55.9928726 C27.1726791,53.8774412 30.3837055,53.2990567 33.8579285,54.1529266 C34.3508315,54.2740592 34.832796,54.5010647 35.2695215,54.7629109 C35.4824826,54.8905255 35.7155649,55.22732 35.6907172,55.4402811 C35.6661396,55.6512166 35.3606748,55.8999637 35.1224609,56.0032708 C34.0945219,56.4493142 33.0109457,56.7782763 32.0125809,57.2792817 C30.1569701,58.2103957 28.728767,59.5729685 28.1994027,61.6684137 C27.7957625,63.2664995 28.0351917,64.8466248 28.4919035,66.3929897 C28.8415269,67.576767 29.2690696,68.7374522 29.6525886,69.9115065 C29.7850647,70.3170373 29.9273989,70.725404 29.9964053,71.1437638 C30.0826971,71.6685367 30.2316483,72.2569142 29.7229454,72.6521819 C29.1750804,73.0776989 28.4731326,73.1106491 27.939447,72.7627812 C26.7787619,72.0061414 25.5826957,71.2434247 24.6044522,70.2771999 C20.3973568,66.1218255 18.1177144,61.0720686 17.8527622,55.1367069 C17.6601924,50.8227933 18.6528855,46.7537107 20.3341571,42.8192649 C21.0074761,41.2434609 22.2188019,40.2307817 23.711015,39.480894 C24.8953325,38.8856293 26.0724927,38.2730792 27.2277762,37.6239328 C28.2812381,37.0319091 29.1683284,36.2370524 29.7849297,35.1814299 C29.9757439,34.8548986 30.1442762,34.5012238 30.2440722,34.1383662 C30.4864724,33.2565426 29.9797951,32.6306234 29.1012125,32.8687022 C28.2081804,33.1106973 27.3112321,33.4853036 26.5400078,33.9907654 C25.628475,34.5881908 24.8499584,35.388179 23.9503092,36.1542717 C24.0274182,35.8660923 24.0922383,35.6272032 24.1550327,35.3879089 C24.5261279,33.9768561 24.1694822,32.8069881 22.9365497,32.0419757 C22.0887566,31.5157174 21.1271232,31.1592068 20.1910127,30.7910826 C17.9371634,29.9052077 15.6552253,29.0895546 13.41461,28.1720799 C12.8089471,27.9240079 12.2566257,27.4699971 11.7760116,27.0100443 C11.081356,26.345098 11.2078903,25.6673227 12.0590594,25.2212793 C13.388547,24.5244631 14.8579379,24.4090022 16.314905,24.3177139 C20.4384095,24.0592437 24.5500303,24.3183891 28.6284308,24.8912369 C32.048232,25.3715809 35.2622293,24.7805025 38.3542837,23.4117178 C41.0029956,22.239284 43.5887779,20.9254613 46.2085909,19.6876672 C48.8816103,18.4248904 51.6248515,17.3769652 54.5987443,17.0835192 C57.6700023,16.7804851 60.6024372,17.3039076 63.3874064,18.6239422 C64.3849609,19.0968589 64.714058,19.9627476 64.6681438,21.0175599 C64.562541,23.4473689 63.7734912,25.6878491 62.722325,27.840417 C60.7142519,31.952713 58.0379915,35.5571164 54.4866595,38.481989 C54.3355476,38.6064977 54.1686358,38.8445765 54.182005,39.0160797 C54.3951011,41.7267759 53.7225924,44.2867652 52.8491414,46.802866 C51.7534114,49.9593354 50.3672063,52.9772518 48.2763525,55.6181313 C47.8901326,56.1059026 47.4286945,56.558293 46.927554,56.9258771 C46.0040024,57.6029772 45.1667426,57.3443719 44.9560772,56.2235241 C44.7340683,55.0431229 44.5926795,53.8031681 44.6996326,52.6147994 C44.9251526,50.1113926 45.3360851,47.6245959 45.6701788,45.1309122 C45.6848984,45.020988 45.690165,44.9097135 45.6957017,44.8463789" id="Fill-1-Copy-4" fill="#1F2937"></path>
        </g>
    </g>
</svg>