<svg width="100%" height="100%" viewBox="0 0 60 60" fill="none" xmlns="http://www.w3.org/2000/svg">
<path d="M49.4951 57.9743L32.352 40.8418C29.8045 38.2937 29.6379 34.3294 31.9795 31.9873C34.321 29.6451 38.2845 29.812 40.8318 32.3599L57.9747 49.4923C60.5222 52.0404 60.6889 56.0047 58.3473 58.3468C56.0057 60.689 52.0424 60.5223 49.4951 57.9743Z" fill="#00FDDC"/>
<path d="M53.872 36.3913C56.6709 37.1414 59.5975 35.475 59.8487 32.5876C60.2752 27.684 59.4905 22.7222 57.5268 18.1505C54.8685 11.9616 50.2045 6.84813 44.2863 3.63404C38.3681 0.419951 31.5405 -0.707574 24.9035 0.433146C18.2665 1.57387 12.2068 4.9164 7.70071 9.92214C3.19462 14.9279 0.504633 21.3053 0.0641938 28.0268C-0.376245 34.7482 1.45852 41.4223 5.27283 46.9735C9.08715 52.5247 14.6589 56.6298 21.0902 58.6273C25.841 60.1028 30.8565 60.3648 35.6875 59.4279C38.5321 58.8762 39.8831 55.7908 38.8447 53.085C37.8062 50.3792 34.7575 49.1067 31.8736 49.3882C29.3067 49.6387 26.6981 49.3788 24.2019 48.6036C20.0215 47.3052 16.3999 44.6369 13.9206 41.0286C11.4413 37.4203 10.2487 33.0822 10.535 28.7132C10.8213 24.3443 12.5698 20.1989 15.4987 16.9452C18.4277 13.6915 22.3665 11.5188 26.6805 10.7774C30.9946 10.0359 35.4325 10.7688 39.2794 12.8579C43.1262 14.9471 46.1578 18.2709 47.8857 22.2936C48.9174 24.6957 49.4485 27.2636 49.4677 29.8431C49.4893 32.7414 51.0731 35.6411 53.872 36.3913Z" fill="#F5F5F4"/>
</svg>
