<?xml version="1.0" encoding="UTF-8"?>
<svg width="100px" height="100px" viewBox="0 0 100 100" version="1.1" xmlns="http://www.w3.org/2000/svg" xmlns:xlink="http://www.w3.org/1999/xlink">
    <title>usk</title>
    <defs>
        <linearGradient x1="97.930916%" y1="2.06908405%" x2="4.14686793%" y2="95.8531321%" id="linearGradient-1">
            <stop stop-color="#282A2D" offset="0%"></stop>
            <stop stop-color="#354252" offset="100%"></stop>
        </linearGradient>
        <radialGradient cx="50%" cy="119.460446%" fx="50%" fy="119.460446%" r="121.762496%" gradientTransform="translate(0.500000,1.194604),scale(1.000000,0.901104),rotate(-91.442649),scale(1.000000,1.012515),translate(-0.500000,-1.194604)" id="radialGradient-2">
            <stop stop-color="#1E89DD" offset="0%"></stop>
            <stop stop-color="#60FBD0" offset="100%"></stop>
        </radialGradient>
    </defs>
    <g id="usk" stroke="none" stroke-width="1" fill="none" fill-rule="evenodd">
        <circle id="Oval-Copy" fill="url(#linearGradient-1)" cx="50" cy="50" r="50"></circle>
        <path d="M42.4794843,51.3453473 L42.4794843,51.9801665 C42.4794843,61.0780156 42.4794843,70.1760399 42.4794843,79.2738891 C42.4794843,79.9892869 42.4786085,79.9906883 41.7551528,79.9908634 C39.18925,79.9913889 36.6233472,79.9917393 34.0574444,79.9905131 C33.461338,79.9903379 33.4415436,79.9705436 33.4415436,79.3758385 C33.4406678,73.7188707 33.4411933,68.0617276 33.4406678,62.4047598 C33.4404926,61.7257975 33.408086,61.7032005 32.7531222,61.8447385 C29.0512363,62.6442183 25.3066088,63.0479872 21.5192395,63.074438 C21.1063618,63.0772407 20.9986317,62.9358778 21.0005586,62.5422689 C21.0142219,59.8887807 21.0140467,57.2352924 21.0009089,54.581629 C20.998982,54.1897718 21.1138941,54.0412269 21.5208161,54.0373731 C25.5630589,53.9984852 29.548196,53.4841836 33.4289313,52.355908 C35.4526803,51.7675091 37.4159954,50.9704817 39.4048853,50.2633169 C39.5338111,50.2174221 39.6487232,50.1331649 39.8669861,50.0138736 C39.6345343,49.884072 39.4984266,49.7912314 39.3498817,49.7274692 C36.2052144,48.3783032 32.9526418,47.3927919 29.5862081,46.7656803 C26.9272896,46.2706474 24.2482264,46.0213793 21.5490186,45.9681273 C21.1310609,45.9598943 20.9975807,45.8351726 21,45.4154632 C21.0154481,42.761975 21.0136964,40.1084868 21.0016096,37.4548234 C21,37.0601634 21.1265064,36.9089909 21.530976,36.9189757 C24.0681507,36.981862 26.5991946,37.1235753 29.1078165,37.5248917 C30.4158173,37.7340457 31.7173368,37.9841897 33.0188564,38.2308303 C33.3753291,38.2984462 33.4455726,38.1467483 33.4441712,37.8359952 C33.436814,36.042771 33.440843,34.2493717 33.4410181,32.4559724 C33.4410181,28.5193576 33.4406678,24.5827428 33.4413685,20.6463032 C33.4415436,20.013586 33.4436457,20.0121846 34.0733849,20.0120095 C36.6830805,20.0116591 39.2926008,20.0113088 41.9022963,20.0121846 C42.4763313,20.012535 42.4789588,20.0148122 42.4789588,20.603036 C42.4794843,27.2807244 42.4836884,33.9584129 42.4696748,40.6359262 C42.4687989,41.07035 42.6220734,41.2660158 43.0035956,41.4511714 C44.9040243,42.3729205 46.7930668,43.3191935 48.6691468,44.2891146 C49.0321008,44.4767226 49.2682311,44.4895101 49.5970269,44.2293813 C57.4136763,38.0432223 62.7668979,30.1859332 65.6118479,20.6301874 C65.7551376,20.1491683 65.9586862,19.9955434 66.4559963,20 C69.1383877,20.0247969 71.8209543,20.0113088 74.5035209,20.012535 C75.0868399,20.0127102 75.1407925,20.0810268 75.0006558,20.6445515 C72.1460714,32.1256002 66.249645,41.7500129 57.3591982,49.5461674 C56.8308828,50.0094943 56.828956,50.0072171 57.3676064,50.477726 C65.0390391,57.1804639 70.5252154,65.3455282 73.7455566,75.0160109 C74.2235979,76.4520616 74.5930332,77.9245479 74.9997799,79.3838964 C75.147449,79.9129124 75.0758041,79.9896372 74.5112284,79.9899876 C71.7848691,79.9920896 69.0586849,79.9829807 66.3323256,80 C65.915419,80.0024247 65.7521597,79.8421434 65.636547,79.4609716 C61.8831609,67.0921569 54.333647,57.7890075 43.0412573,51.5147375 C42.9272211,51.4515009 42.807229,51.3977234 42.6867115,51.3476245 C42.6502759,51.3325598 42.6024543,51.3453473 42.4794843,51.3453473" id="Fill-1" fill="url(#radialGradient-2)" fill-rule="nonzero"></path>
    </g>
</svg>