<?xml version="1.0" standalone="no"?>
<!DOCTYPE svg PUBLIC "-//W3C//DTD SVG 20010904//EN"
 "http://www.w3.org/TR/2001/REC-SVG-20010904/DTD/svg10.dtd">
<svg version="1.0" xmlns="http://www.w3.org/2000/svg"
 width="511.000000pt" height="511.000000pt" viewBox="0 0 511.000000 511.000000"
 preserveAspectRatio="xMidYMid meet">

<g transform="translate(0.000000,511.000000) scale(0.100000,-0.100000)"
fill="#000000" stroke="none">
<path d="M2320 4970 c-513 -54 -994 -259 -1383 -590 -340 -290 -627 -776 -740
-1255 -49 -208 -61 -322 -61 -570 0 -248 12 -362 61 -570 113 -479 400 -965
740 -1255 359 -306 795 -504 1273 -577 161 -24 529 -24 690 0 479 74 917 273
1276 580 340 291 625 774 737 1252 49 208 61 322 61 570 0 248 -12 362 -61
570 -112 478 -397 961 -737 1252 -356 305 -799 507 -1266 578 -124 19 -469 27
-590 15z m370 -135 c0 -11 11 -15 40 -15 22 0 40 -4 40 -10 0 -5 20 -10 45
-10 33 0 45 -4 45 -15 0 -9 9 -15 23 -15 12 0 31 -11 41 -25 10 -14 27 -25 37
-25 11 0 19 -4 19 -10 0 -5 7 -10 15 -10 8 0 15 -4 15 -10 0 -5 8 -10 17 -10
18 0 83 -65 83 -84 0 -6 9 -18 20 -26 20 -15 28 -60 10 -60 -5 0 -10 -5 -10
-11 0 -14 -25 -39 -39 -39 -6 0 -11 -7 -11 -16 0 -8 -4 -12 -10 -9 -6 4 -10
-20 -10 -65 0 -70 12 -100 39 -100 6 0 11 -5 11 -11 0 -14 25 -39 39 -39 6 0
11 -6 11 -13 0 -7 9 -19 20 -27 23 -16 26 -36 8 -44 -10 -5 -10 -7 0 -12 6 -3
12 -12 12 -20 0 -9 -4 -12 -10 -9 -5 3 -10 0 -10 -9 0 -8 5 -16 12 -18 16 -6
-22 -48 -44 -48 -10 0 -18 7 -18 15 0 8 -7 15 -15 15 -8 0 -15 5 -15 10 0 6
-30 10 -70 10 -56 0 -70 -3 -70 -15 0 -10 -11 -15 -35 -15 -19 0 -35 -4 -35
-10 0 -5 -11 -10 -25 -10 -14 0 -25 -4 -25 -10 0 -5 -15 -10 -34 -10 -21 0
-36 -6 -40 -15 -3 -8 -13 -15 -23 -15 -10 0 -26 -10 -36 -23 -22 -29 -50 -28
-78 4 -14 16 -23 20 -26 12 -5 -14 -33 -18 -33 -6 0 4 12 18 27 30 14 13 23
26 18 31 -4 4 -10 1 -12 -5 -5 -15 -33 -18 -33 -4 0 5 8 12 18 16 15 6 14 8
-8 17 -28 11 -66 3 -87 -17 -12 -13 -10 -19 17 -45 17 -16 37 -30 45 -30 8 0
15 -4 15 -10 0 -14 28 -12 33 3 2 7 8 8 13 3 5 -5 4 -11 -3 -13 -15 -5 -18
-53 -3 -53 6 0 10 5 10 10 0 17 22 11 41 -12 11 -11 22 -18 27 -13 4 4 1 10
-5 12 -16 6 -17 23 -2 23 13 0 39 -25 39 -38 0 -6 -6 -12 -12 -15 -7 -2 -10
-8 -6 -12 4 -4 15 0 24 10 9 9 26 14 36 12 11 -3 22 1 25 9 7 20 33 17 33 -3
1 -16 2 -16 16 2 15 20 15 20 26 1 11 -19 11 -19 24 -1 14 18 14 18 28 -1 14
-18 15 -18 21 -1 4 9 16 17 26 17 10 0 19 5 19 10 0 6 7 10 15 10 8 0 15 7 15
15 0 9 9 15 24 15 13 0 27 6 30 13 5 10 7 10 12 0 7 -15 54 -18 54 -4 0 5 -6
11 -12 14 -7 2 -10 7 -7 11 10 10 119 -99 119 -118 0 -9 -4 -16 -9 -16 -5 0
-13 -10 -16 -21 -7 -20 -59 -79 -70 -79 -11 0 -4 29 8 33 6 2 9 8 5 12 -8 9
-38 -18 -38 -34 0 -6 -7 -11 -15 -11 -18 0 -20 27 -3 32 10 4 9 9 -3 21 -26
26 -46 24 -73 -8 -22 -25 -26 -27 -32 -12 -10 28 -24 19 -24 -14 0 -21 -9 -40
-26 -55 -21 -20 -23 -25 -10 -30 36 -14 3 -105 -36 -104 -22 1 -48 27 -48 48
0 11 -4 24 -10 27 -5 3 -10 -1 -10 -9 0 -17 -26 -22 -32 -7 -5 13 -32 18 -38
6 -3 -6 5 -11 18 -13 19 -3 22 -9 22 -53 l0 -50 -47 3 -48 3 -3 44 c-2 25 -11
52 -23 64 -15 17 -19 18 -19 5 0 -9 6 -18 13 -21 6 -2 9 -8 4 -12 -4 -5 -13
-3 -19 3 -7 7 -27 12 -45 12 -20 0 -33 5 -33 13 0 7 -9 13 -20 13 -11 0 -20
-6 -20 -13 0 -8 -14 -13 -40 -13 -29 0 -40 4 -40 15 0 8 -4 15 -10 15 -5 0
-10 -5 -10 -11 0 -21 29 -39 64 -39 l36 0 0 -50 0 -50 -40 0 -40 0 0 46 c0 44
-16 74 -39 74 -6 0 -11 8 -11 17 0 14 -2 15 -12 4 -10 -11 -10 -14 0 -18 7 -3
12 -24 12 -54 l0 -49 -44 0 c-41 0 -45 2 -51 30 -7 32 1 69 16 71 5 1 14 2 19
3 6 0 10 6 9 11 0 12 -33 7 -37 -6 -2 -5 -10 -9 -18 -9 -17 0 -19 27 -2 32 9
3 8 10 -5 22 -10 10 -21 15 -25 12 -3 -4 0 -12 8 -17 11 -8 12 -12 3 -16 -7
-2 -13 -15 -13 -27 0 -21 -31 -56 -50 -56 -36 0 -68 90 -37 104 10 5 10 7 0
12 -7 3 -13 12 -13 20 0 8 -4 14 -10 14 -5 0 -10 16 -10 35 0 35 -22 50 -33
23 -4 -10 -8 -9 -17 2 -9 11 -13 12 -17 3 -2 -7 -16 -13 -29 -13 -15 0 -24 -6
-24 -15 0 -8 -7 -15 -15 -15 -8 0 -15 7 -15 15 0 8 7 15 15 15 8 0 15 4 15 9
0 5 10 11 23 13 12 2 20 7 17 13 -8 14 -40 13 -40 -2 0 -7 -6 -13 -14 -13 -8
0 -17 -6 -19 -12 -4 -10 -8 -10 -15 1 -9 12 -13 12 -26 2 -18 -15 -39 0 -50
37 -4 12 -12 22 -17 22 -5 0 -9 11 -9 25 0 14 5 25 11 25 6 0 31 21 56 46 24
25 47 43 51 39 4 -4 1 -10 -5 -12 -7 -3 -13 -9 -13 -14 0 -14 47 -11 54 4 5
10 7 10 12 0 3 -7 14 -13 25 -13 11 0 22 -7 25 -15 4 -8 13 -15 21 -15 8 0 11
-4 8 -10 -3 -6 5 -10 18 -10 14 0 28 -7 32 -17 6 -17 7 -17 21 1 14 20 14 20
29 0 13 -17 14 -17 15 -1 0 21 30 23 30 2 0 -8 5 -15 10 -15 6 0 10 7 10 15 0
8 7 15 15 15 8 0 15 -6 15 -12 0 -21 58 -13 79 10 21 25 37 28 45 10 5 -10 7
-10 12 0 7 14 34 16 34 2 0 -5 5 -10 10 -10 6 0 10 11 10 25 0 16 6 25 16 25
13 0 11 5 -7 25 -18 18 -25 21 -27 10 -2 -8 -10 -15 -18 -15 -8 0 -14 -6 -14
-13 0 -21 -37 -13 -58 11 -11 12 -29 22 -41 22 -12 0 -21 6 -21 15 0 10 -11
15 -35 15 -19 0 -35 5 -35 10 0 6 -11 10 -25 10 -14 0 -25 5 -25 10 0 6 -16
10 -35 10 -22 0 -38 6 -41 15 -5 11 -23 15 -71 15 -63 0 -93 -13 -93 -39 0
-19 -35 -12 -54 10 -14 17 -15 23 -5 30 10 6 10 11 -1 24 -12 14 -12 18 1 27
11 7 11 11 2 15 -19 7 -16 27 7 43 11 8 20 20 20 27 0 7 7 13 16 13 8 0 12 5
9 10 -3 6 1 10 9 10 9 0 16 5 16 11 0 14 25 39 39 39 7 0 11 26 11 66 0 59 -3
68 -30 96 -27 27 -31 28 -46 13 -13 -13 -14 -18 -3 -31 10 -13 10 -17 -2 -26
-11 -7 -11 -11 -1 -15 6 -2 12 -11 12 -18 0 -7 -6 -16 -12 -19 -10 -5 -10 -7
0 -12 6 -3 12 -12 12 -19 0 -7 -6 -16 -12 -19 -10 -5 -10 -7 0 -12 13 -6 17
-34 4 -34 -15 0 -46 44 -34 48 16 5 15 29 0 36 -10 5 -10 7 0 12 6 3 12 12 12
19 0 7 -6 16 -12 18 -10 4 -9 8 2 17 11 9 12 13 3 17 -7 2 -13 11 -13 18 0 7
6 16 13 19 10 5 10 7 0 12 -18 8 -16 34 2 34 8 0 14 -3 14 -7 -3 -17 2 -24 11
-18 6 4 3 16 -7 31 -16 25 -15 26 10 48 15 13 27 33 27 45 0 11 6 21 13 21 7
0 21 11 31 25 10 14 26 25 35 25 9 0 23 9 31 20 8 11 25 20 37 20 14 0 23 6
23 15 0 8 7 15 15 15 8 0 15 5 15 10 0 6 9 10 20 10 11 0 23 7 26 15 4 10 20
15 50 15 24 0 44 5 44 10 0 6 15 10 34 10 21 0 36 6 40 15 4 12 30 15 146 15
118 0 140 -2 140 -15z m488 -343 c2 -7 -3 -12 -12 -12 -9 0 -16 7 -16 16 0 17
22 14 28 -4z m-13 -28 c19 -15 19 -16 2 -29 -18 -13 -18 -14 0 -24 17 -9 17
-10 -1 -24 -19 -14 -19 -14 0 -26 19 -11 19 -11 0 -22 -18 -11 -18 -13 -2 -25
16 -12 16 -13 -1 -33 -9 -12 -21 -21 -25 -21 -13 0 -9 28 5 34 10 5 10 7 0 12
-7 3 -13 12 -13 19 0 7 6 16 13 19 10 5 10 7 0 12 -7 3 -13 12 -13 19 0 7 6
16 13 19 10 5 10 7 0 12 -7 3 -13 12 -13 19 0 7 6 16 13 19 10 5 10 7 0 12
-14 6 -18 24 -5 24 4 0 16 -8 27 -16z m-2405 -454 c0 -5 -4 -10 -10 -10 -5 0
-10 5 -10 10 0 6 5 10 10 10 6 0 10 -4 10 -10z m140 0 c0 -5 -4 -10 -10 -10
-5 0 -10 5 -10 10 0 6 5 10 10 10 6 0 10 -4 10 -10z m1630 0 c0 -5 -7 -10 -15
-10 -8 0 -15 5 -15 10 0 6 7 10 15 10 8 0 15 -4 15 -10z m1690 0 c0 -5 -4 -10
-9 -10 -6 0 -13 5 -16 10 -3 6 1 10 9 10 9 0 16 -4 16 -10z m140 0 c0 -5 -4
-10 -10 -10 -5 0 -10 5 -10 10 0 6 5 10 10 10 6 0 10 -4 10 -10z m-3410 -25
c0 -8 4 -15 9 -15 5 0 11 -9 14 -20 6 -23 -8 -26 -29 -6 -16 17 -19 56 -4 56
6 0 10 -7 10 -15z m3220 -10 c0 -16 -6 -25 -15 -25 -8 0 -15 -4 -15 -10 0 -5
-4 -10 -9 -10 -6 0 -9 9 -8 20 1 11 7 20 14 20 7 0 13 7 13 15 0 8 5 15 10 15
6 0 10 -11 10 -25z m-3440 -15 c0 -5 -9 -10 -20 -10 -11 0 -20 5 -20 10 0 6 9
10 20 10 11 0 20 -4 20 -10z m100 0 c0 -5 -4 -10 -10 -10 -5 0 -10 5 -10 10 0
6 5 10 10 10 6 0 10 -4 10 -10z m3460 0 c0 -5 -4 -10 -10 -10 -5 0 -10 5 -10
10 0 6 5 10 10 10 6 0 10 -4 10 -10z m120 0 c0 -5 -9 -10 -20 -10 -11 0 -20 5
-20 10 0 6 9 10 20 10 11 0 20 -4 20 -10z m-3630 -20 c0 -5 -4 -10 -10 -10 -5
0 -10 5 -10 10 0 6 5 10 10 10 6 0 10 -4 10 -10z m1720 2 c0 -13 -12 -22 -22
-16 -10 6 -1 24 13 24 5 0 9 -4 9 -8z m1840 -2 c0 -5 -4 -10 -10 -10 -5 0 -10
5 -10 10 0 6 5 10 10 10 6 0 10 -4 10 -10z m-3524 -32 c-18 -10 -39 -2 -31 12
3 4 15 6 26 3 19 -5 19 -7 5 -15z m3491 -4 c-2 -2 -12 -1 -22 3 -18 6 -18 7 1
13 17 7 33 -5 21 -16z m-3587 6 c-19 -13 -30 -13 -30 0 0 6 10 10 23 10 18 0
19 -2 7 -10z m172 -2 c-7 -7 -12 -20 -12 -30 0 -10 -4 -18 -10 -18 -5 0 -10 5
-10 10 0 6 -7 10 -15 10 -8 0 -15 5 -15 10 0 6 11 10 25 10 14 0 25 5 25 10 0
6 5 10 12 10 9 0 9 -3 0 -12z m114 -2 c14 -14 20 -46 8 -46 -11 0 -34 29 -34
44 0 20 7 20 26 2z m3114 -2 c0 -15 -23 -44 -34 -44 -11 0 -6 31 7 45 16 19
27 19 27 -1z m290 6 c0 -13 -11 -13 -30 0 -12 8 -11 10 8 10 12 0 22 -4 22
-10z m-3630 -20 c0 -5 -4 -10 -10 -10 -5 0 -10 5 -10 10 0 6 5 10 10 10 6 0
10 -4 10 -10z m170 0 c0 -5 -11 -10 -25 -10 -14 0 -25 5 -25 10 0 6 11 10 25
10 14 0 25 -4 25 -10z m3240 0 c0 -5 -9 -10 -20 -10 -11 0 -20 5 -20 10 0 6 9
10 20 10 11 0 20 -4 20 -10z m80 0 c0 -5 -7 -10 -15 -10 -8 0 -15 -4 -15 -10
0 -5 -4 -10 -10 -10 -5 0 -10 9 -10 20 0 15 7 20 25 20 14 0 25 -4 25 -10z
m70 0 c0 -5 -4 -10 -10 -10 -5 0 -10 5 -10 10 0 6 5 10 10 10 6 0 10 -4 10
-10z m-3287 -90 c9 0 17 -4 17 -10 0 -5 11 -10 25 -10 14 0 25 -4 25 -10 0 -5
-11 -10 -25 -10 -16 0 -25 -6 -25 -15 0 -9 -9 -15 -25 -15 -14 0 -25 5 -25 11
0 5 -4 7 -10 4 -6 -4 -10 11 -10 38 0 31 -5 47 -16 51 -8 3 -12 11 -8 17 4 7
16 0 33 -20 15 -17 34 -31 44 -31z m-298 40 c-3 -5 -15 -10 -26 -10 -10 0 -19
5 -19 10 0 6 12 10 26 10 14 0 23 -4 19 -10z m95 0 c0 -5 -9 -10 -20 -10 -11
0 -20 -4 -20 -10 0 -5 -7 -10 -15 -10 -8 0 -15 5 -15 10 0 6 7 10 15 10 8 0
15 5 15 10 0 6 9 10 20 10 11 0 20 -4 20 -10z m100 -19 c33 -31 32 -61 -1 -61
-14 0 -19 7 -19 25 0 20 -5 25 -25 25 -26 0 -35 -25 -12 -33 7 -2 8 -8 3 -13
-5 -5 -11 -4 -13 4 -5 14 -33 16 -33 2 0 -19 -16 -10 -17 9 -1 13 7 21 23 25
15 4 24 14 24 26 0 30 35 25 70 -9z m3170 19 c0 -5 -4 -10 -10 -10 -5 0 -10 5
-10 10 0 6 5 10 10 10 6 0 10 -4 10 -10z m100 -10 c0 -15 -7 -20 -25 -20 -20
0 -25 -5 -25 -25 0 -20 -5 -25 -25 -25 -34 0 -33 25 3 61 33 33 72 38 72 9z
m82 0 c19 -17 19 -20 5 -20 -9 0 -17 5 -17 10 0 6 -11 10 -25 10 -14 0 -25 5
-25 10 0 17 40 11 62 -10z m88 10 c0 -5 -11 -10 -25 -10 -14 0 -25 5 -25 10 0
6 11 10 25 10 14 0 25 -4 25 -10z m-301 -86 c-7 -14 -21 -24 -35 -24 -14 0
-25 -8 -29 -20 -3 -11 -11 -20 -16 -20 -5 0 -9 -7 -9 -15 0 -9 -9 -15 -24 -15
-13 0 -26 -6 -28 -12 -3 -9 -9 -8 -21 4 -22 22 -21 28 3 28 11 0 20 7 20 15 0
8 7 15 15 15 8 0 15 5 15 10 0 6 11 10 25 10 16 0 25 6 25 15 0 9 -9 15 -25
15 -14 0 -25 5 -25 10 0 6 11 10 25 10 14 0 25 5 25 10 0 6 9 10 20 10 11 0
24 8 27 17 5 14 8 12 16 -11 7 -20 5 -35 -4 -52z m155 50 c9 -3 16 -15 16 -25
0 -21 -16 -26 -23 -6 -4 9 -8 8 -16 -3 -5 -8 -14 -11 -18 -6 -4 5 -2 11 5 13
6 3 12 11 12 19 0 16 2 16 24 8z m-1164 -34 c0 -5 -11 -10 -25 -10 -14 0 -25
5 -25 10 0 6 11 10 25 10 14 0 25 -4 25 -10z m-1924 -32 c-18 -10 -39 -2 -31
12 3 4 15 6 26 3 19 -5 19 -7 5 -15z m814 6 c0 -9 -5 -14 -12 -12 -18 6 -21
28 -4 28 9 0 16 -7 16 -16z m2003 -5 c-6 -6 -18 -6 -28 -3 -18 7 -18 8 1 14
23 9 39 1 27 -11z m-2847 -23 c8 -8 14 -19 14 -25 0 -6 11 -11 25 -11 14 0 25
-4 25 -10 0 -5 11 -10 25 -10 14 0 25 5 25 10 0 6 12 10 26 10 14 0 23 -4 19
-10 -3 -5 -13 -10 -21 -10 -8 0 -25 -9 -36 -20 -21 -19 -23 -19 -32 -3 -14 27
-16 29 -27 13 -8 -11 -12 -12 -16 -2 -2 6 -16 12 -29 12 -14 0 -24 6 -24 14 0
8 -7 16 -15 20 -8 3 -15 12 -15 21 0 19 37 20 56 1z m84 4 c0 -5 7 -10 15 -10
8 0 15 -4 15 -10 0 -5 -9 -10 -20 -10 -11 0 -20 5 -20 10 0 6 -7 10 -15 10 -8
0 -15 5 -15 10 0 6 9 10 20 10 11 0 20 -4 20 -10z m2720 0 c0 -5 -7 -10 -15
-10 -8 0 -15 -4 -15 -10 0 -5 -9 -10 -20 -10 -23 0 -25 5 -7 25 14 16 57 20
57 5z m-80 -50 c0 -5 -6 -10 -14 -10 -8 0 -18 5 -21 10 -3 6 3 10 14 10 12 0
21 -4 21 -10z m-2515 -20 c4 -6 -5 -10 -19 -10 -14 0 -26 5 -26 10 0 6 9 10
19 10 11 0 23 -4 26 -10z m2475 0 c0 -5 -11 -10 -25 -10 -14 0 -25 5 -25 10 0
6 11 10 25 10 14 0 25 -4 25 -10z m90 -10 c0 -23 -10 -26 -28 -8 -18 18 -15
28 8 28 13 0 20 -7 20 -20z m-2596 -35 c15 -17 28 -24 39 -19 18 7 23 24 7 24
-5 0 -10 5 -10 10 0 17 35 11 58 -10 12 -11 26 -20 32 -20 5 0 10 -5 10 -11 0
-30 63 -54 72 -27 3 8 12 5 27 -9 22 -20 22 -22 4 -33 -13 -8 -14 -13 -5 -16
6 -3 12 -15 11 -27 0 -12 -3 -16 -6 -9 -2 6 -16 12 -30 12 -30 0 -53 21 -53
49 0 22 -14 28 -25 11 -12 -19 -63 -11 -70 10 -7 21 -25 28 -25 10 0 -5 -4
-10 -10 -10 -5 0 -10 7 -10 15 0 9 -9 15 -25 15 -14 0 -25 5 -25 10 0 6 -6 10
-13 10 -7 0 -13 9 -14 20 -2 29 35 26 61 -5z m2456 15 c0 -5 -7 -10 -15 -10
-8 0 -15 -4 -15 -10 0 -5 4 -10 9 -10 5 0 16 -3 25 -6 11 -4 16 -1 16 10 0 9
7 16 15 16 8 0 15 5 15 10 0 6 11 10 25 10 14 0 25 -4 25 -8 0 -18 -38 -52
-59 -52 -12 0 -21 -6 -21 -15 0 -8 -4 -15 -10 -15 -5 0 -10 5 -10 10 0 6 -7
10 -15 10 -8 0 -15 -9 -15 -20 0 -16 -7 -20 -35 -20 -19 0 -35 5 -35 10 0 6
-4 10 -10 10 -5 0 -10 -6 -10 -13 0 -23 -36 -57 -59 -57 -11 0 -21 -4 -21 -10
0 -5 -4 -10 -10 -10 -14 0 -12 37 3 44 10 5 10 7 0 12 -18 8 -16 34 1 34 8 0
17 -6 20 -12 5 -10 7 -10 12 0 3 6 15 12 26 12 21 0 48 22 48 39 0 6 6 11 13
11 7 0 19 9 27 20 15 20 60 28 60 10z m-1110 -80 l0 -50 -40 0 -40 0 0 50 0
50 40 0 40 0 0 -50z m940 10 c0 -5 -4 -10 -9 -10 -6 0 -13 5 -16 10 -3 6 1 10
9 10 9 0 16 -4 16 -10z m-2010 -50 c0 -5 9 -10 21 -10 11 0 17 -4 14 -10 -3
-5 3 -10 14 -10 11 0 26 -7 35 -15 8 -8 19 -15 25 -15 6 0 11 -4 11 -10 0 -5
7 -10 15 -10 8 0 15 -5 15 -11 0 -5 5 -7 10 -4 6 3 10 1 10 -4 0 -6 12 -11 26
-11 14 0 23 -4 19 -10 -3 -5 1 -10 10 -10 9 0 23 -6 30 -12 37 -34 47 -38 83
-38 33 0 41 -4 46 -22 9 -36 7 -48 -9 -48 -8 0 -15 -4 -15 -10 0 -5 -9 -10
-19 -10 -11 0 -23 5 -26 10 -3 6 -13 10 -22 10 -9 0 -30 15 -48 34 -17 19 -40
36 -51 38 -11 2 -20 13 -22 26 -4 24 -27 30 -35 10 -3 -9 -13 -3 -28 15 -14
15 -32 27 -42 27 -9 0 -17 5 -17 10 0 6 -11 10 -25 10 -22 0 -25 4 -25 35 0
19 -4 35 -10 35 -5 0 -10 5 -10 10 0 6 5 10 10 10 6 0 10 -4 10 -10z m1960 0
c0 -5 -4 -10 -10 -10 -5 0 -12 -16 -16 -35 -4 -25 -11 -35 -25 -35 -11 0 -19
-4 -19 -10 0 -5 -11 -10 -25 -10 -16 0 -25 -6 -25 -15 0 -8 -6 -15 -14 -15 -8
0 -17 -6 -19 -12 -4 -10 -8 -9 -16 2 -11 16 -26 7 -26 -18 0 -9 -9 -18 -19
-20 -11 -2 -34 -19 -51 -38 -18 -19 -42 -34 -54 -34 -11 0 -21 -4 -21 -10 0
-5 -8 -10 -17 -10 -31 1 -53 26 -53 59 0 30 1 31 45 31 25 0 53 6 61 13 8 6
21 18 29 25 7 6 18 12 24 12 6 0 11 5 11 10 0 6 11 10 25 10 14 0 25 4 25 9 0
5 10 13 22 17 12 3 32 17 45 30 13 13 30 24 38 24 8 0 15 5 15 10 0 6 11 10
25 10 14 0 25 5 25 10 0 6 5 10 10 10 6 0 10 -4 10 -10z m-965 -70 c-3 -5 -17
-10 -31 -10 -13 0 -24 5 -24 10 0 6 14 10 31 10 17 0 28 -4 24 -10z m0 -60 c0
-18 -7 -26 -23 -28 -24 -4 -38 18 -28 44 3 9 15 14 28 12 16 -2 23 -10 23 -28z
m-75 0 c0 -11 -4 -20 -10 -20 -5 0 -10 5 -10 10 0 6 -7 10 -15 10 -8 0 -15 5
-15 10 0 6 11 10 25 10 18 0 25 -5 25 -20z m132 0 c-12 -11 -23 -20 -25 -20
-3 0 -7 9 -10 20 -4 17 0 20 26 20 l31 0 -22 -20z m106 -61 c2 -5 19 -9 37 -9
20 0 35 -6 39 -15 4 -12 24 -15 86 -15 47 0 80 -4 80 -10 0 -5 18 -10 39 -10
22 0 41 -5 43 -12 2 -6 18 -11 36 -10 22 0 32 -4 32 -14 0 -8 10 -14 25 -14
14 0 25 -4 25 -10 0 -5 9 -10 20 -10 11 0 23 -7 26 -15 5 -13 37 -15 204 -15
l197 0 19 25 c23 31 53 32 79 2 17 -20 23 -22 43 -11 19 10 29 9 50 -2 20 -10
76 -13 223 -13 l196 1 13 24 c8 15 22 24 37 24 13 0 23 5 23 10 0 6 11 10 25
10 16 0 25 6 25 15 0 10 10 15 31 15 35 0 36 -23 1 -28 -12 -2 -22 -8 -22 -13
0 -5 -7 -9 -15 -9 -20 0 -19 -6 5 -30 17 -17 21 -18 26 -5 8 20 54 20 54 0 0
-9 -9 -15 -25 -15 -14 0 -25 -4 -25 -10 0 -5 11 -10 25 -10 16 0 25 -6 25 -15
0 -9 -9 -15 -25 -15 -14 0 -25 -4 -25 -10 0 -5 11 -10 25 -10 16 0 25 -6 25
-15 0 -9 -9 -15 -25 -15 -18 0 -25 -5 -25 -20 0 -15 -7 -20 -25 -20 -26 0 -34
15 -12 23 7 2 8 8 3 13 -5 5 -11 4 -13 -3 -5 -15 -53 -18 -53 -3 0 6 -9 10
-20 10 -11 0 -23 7 -26 15 -7 18 -24 20 -24 2 0 -18 -481 -18 -487 1 -6 17
-23 15 -23 -3 0 -10 -11 -15 -35 -15 -24 0 -35 5 -35 15 0 9 -9 15 -25 15 -14
0 -25 -4 -25 -10 0 -14 -27 -12 -33 3 -4 9 -8 8 -16 -3 -8 -12 -13 -12 -22 -3
-9 9 -16 10 -26 1 -10 -8 -17 -8 -25 0 -9 9 -15 9 -26 0 -10 -9 -16 -8 -24 3
-7 11 -11 11 -15 2 -2 -7 -11 -13 -18 -13 -7 0 -16 6 -19 13 -5 10 -7 10 -12
0 -3 -7 -12 -13 -19 -13 -7 0 -16 6 -19 13 -5 10 -7 10 -12 0 -3 -7 -12 -13
-20 -13 -8 0 -14 6 -14 13 -1 7 -6 5 -14 -5 -17 -23 -72 -24 -80 -2 -5 13 -9
14 -21 4 -9 -7 -19 -10 -22 -6 -4 4 -1 11 6 16 12 7 11 11 -3 25 -9 10 -20 14
-24 11 -3 -4 0 -11 8 -17 13 -8 13 -10 0 -20 -11 -8 -12 -12 -2 -16 14 -6 16
-33 2 -33 -5 0 -12 -11 -16 -25 -10 -42 -24 -28 -24 24 0 30 5 52 13 55 10 5
10 7 0 12 -7 3 -13 12 -13 19 0 7 6 15 13 18 6 2 8 8 4 13 -4 5 -13 2 -18 -6
-8 -11 -12 -12 -16 -2 -6 14 -33 16 -33 2 0 -5 7 -10 15 -10 8 0 15 -6 15 -14
0 -8 6 -16 13 -19 6 -2 9 -8 5 -12 -4 -4 -22 7 -40 25 -21 21 -28 35 -20 38 6
2 12 10 12 18 0 9 -4 12 -10 9 -5 -3 -10 1 -10 9 0 10 9 16 25 16 39 0 29 17
-14 24 -22 3 -41 12 -43 18 -3 9 -12 8 -32 -6 -20 -13 -42 -17 -77 -14 -34 2
-49 -1 -49 -9 0 -7 -11 -13 -24 -13 -13 0 -26 -7 -30 -15 -3 -10 -21 -16 -53
-17 l-48 -2 48 -3 c30 -3 50 -10 54 -19 4 -10 22 -14 62 -14 48 0 59 3 75 25
10 14 27 25 37 25 15 0 19 -8 19 -36 0 -53 -17 -64 -98 -64 -44 0 -72 4 -74
11 -2 7 -27 12 -58 12 -30 0 -57 3 -60 7 -3 5 -14 10 -25 12 -14 2 -21 -3 -23
-19 -3 -19 1 -23 22 -23 14 0 26 -4 26 -10 0 -5 20 -10 45 -10 31 0 47 -5 51
-15 10 -24 164 -21 192 4 12 10 22 25 22 34 0 22 19 31 26 13 3 -9 10 -16 16
-16 17 0 38 -28 38 -50 0 -23 -21 -50 -39 -50 -6 0 -11 -4 -11 -10 0 -14 -27
-12 -34 3 -5 10 -7 10 -12 0 -7 -16 -124 -18 -124 -3 0 6 -11 10 -25 10 -14 0
-25 4 -25 10 0 5 -16 12 -35 16 -19 3 -35 10 -35 15 0 5 -16 9 -35 9 -19 0
-35 5 -35 10 0 6 -7 10 -15 10 -8 0 -15 -9 -15 -20 0 -11 7 -20 15 -20 8 0 15
-4 15 -10 0 -5 9 -10 20 -10 11 0 23 -7 26 -15 4 -8 18 -15 34 -15 16 0 30 -7
34 -15 3 -8 17 -15 31 -15 14 0 25 -4 25 -10 0 -5 16 -10 35 -10 19 0 35 -4
35 -10 0 -5 23 -10 51 -10 31 0 48 4 44 10 -3 6 1 10 9 10 10 0 16 9 16 25 0
20 5 25 25 25 24 0 25 -3 25 -60 0 -33 -4 -60 -10 -60 -5 0 -10 -7 -10 -15 0
-12 -14 -15 -64 -15 -40 0 -66 4 -68 12 -2 6 -18 11 -36 10 -22 0 -32 4 -32
14 0 8 -10 14 -25 14 -14 0 -25 5 -25 10 0 6 -8 10 -19 10 -10 0 -27 11 -37
25 -10 14 -29 25 -41 25 -13 0 -23 4 -23 9 0 5 -11 12 -25 15 -14 4 -25 11
-25 16 0 18 -18 10 -23 -11 -3 -12 0 -22 9 -26 8 -3 14 -13 14 -23 0 -11 10
-20 25 -24 14 -4 25 -11 25 -16 0 -6 7 -10 16 -10 8 0 12 -4 9 -10 -4 -6 5
-10 19 -10 16 0 26 -6 26 -15 0 -9 9 -15 23 -15 12 0 29 -9 37 -20 8 -11 20
-20 27 -20 7 0 13 -7 13 -15 0 -9 10 -15 26 -15 14 0 23 -4 19 -10 -3 -6 5
-10 18 -10 14 0 27 -7 31 -15 3 -8 14 -15 25 -15 37 0 51 12 51 42 0 30 19 58
39 58 7 0 11 -23 11 -58 0 -75 -18 -92 -95 -92 -43 0 -55 3 -55 16 0 11 -6 14
-20 9 -13 -4 -22 -1 -26 9 -3 9 -15 16 -26 16 -19 0 -48 21 -48 35 0 10 -28
35 -39 35 -6 0 -11 7 -11 15 0 9 -10 15 -26 15 -14 0 -23 4 -19 10 4 6 -5 10
-20 10 -14 0 -28 7 -31 15 -4 8 -15 15 -25 15 -42 0 -17 -42 86 -145 58 -58
105 -109 105 -115 0 -5 7 -10 15 -10 8 0 15 -4 15 -10 0 -6 27 -10 60 -10 54
0 60 2 60 21 0 22 22 49 39 49 6 0 11 -21 11 -50 0 -39 -4 -50 -16 -50 -8 0
-13 -4 -10 -9 8 -13 -20 -17 -96 -16 -65 2 -98 17 -98 44 0 6 -6 10 -12 9 -7
-2 -12 3 -10 10 1 6 -3 12 -9 12 -14 0 -39 25 -39 39 0 6 -5 11 -11 11 -14 0
-39 25 -39 39 0 24 -19 9 -25 -19 -6 -27 1 -37 87 -122 87 -87 95 -92 133 -91
22 1 41 6 43 12 6 18 52 13 52 -5 0 -8 -4 -12 -10 -9 -5 3 -10 1 -10 -4 0 -29
-35 -51 -82 -51 -48 0 -48 0 -163 116 -86 86 -117 111 -121 100 -8 -21 -54
-21 -54 0 0 9 -52 -36 -115 -100 -114 -116 -114 -116 -163 -116 -47 0 -82 22
-82 51 0 5 -4 7 -10 4 -5 -3 -10 1 -10 9 0 19 46 22 52 5 6 -17 88 -20 88 -3
0 8 5 14 11 14 14 0 39 25 39 39 0 6 5 11 11 11 14 0 39 25 39 39 0 6 5 11 10
11 25 0 60 50 60 85 0 19 -4 35 -10 35 -5 0 -10 -7 -10 -15 0 -8 -5 -15 -11
-15 -11 0 -39 -25 -39 -35 0 -8 -27 -35 -35 -35 -10 0 -35 -28 -35 -39 0 -6
-5 -11 -11 -11 -6 0 -16 -6 -24 -13 -19 -19 -149 -15 -169 6 -15 14 -24 107
-11 107 13 0 45 -37 45 -52 0 -15 9 -18 55 -18 l55 0 125 125 c123 124 149
165 105 165 -11 0 -23 -7 -26 -15 -4 -8 -17 -15 -31 -15 -13 0 -21 -4 -18 -10
4 -6 -5 -10 -19 -10 -16 0 -26 -6 -26 -15 0 -8 -5 -15 -11 -15 -12 0 -39 -25
-39 -36 0 -11 -34 -33 -51 -34 -9 0 -20 -7 -23 -16 -4 -10 -13 -13 -25 -9 -12
3 -21 0 -25 -10 -8 -22 -99 -21 -126 2 -16 14 -20 30 -20 75 0 35 4 58 11 58
20 0 39 -28 39 -58 0 -30 14 -42 51 -42 10 0 19 4 19 10 0 5 11 12 25 16 14 3
25 10 25 15 0 5 9 9 20 9 11 0 23 7 26 15 4 8 11 15 18 15 6 0 18 9 26 20 8
11 23 20 33 20 9 0 20 7 23 15 4 8 15 15 25 15 10 0 19 5 19 10 0 6 5 10 11
10 10 0 18 6 51 37 28 26 38 43 38 63 0 11 -4 20 -10 20 -5 0 -10 -4 -10 -9 0
-5 -11 -12 -25 -15 -14 -4 -25 -11 -25 -16 0 -6 -10 -10 -23 -10 -12 0 -31
-11 -41 -25 -10 -14 -27 -25 -37 -25 -11 0 -19 -4 -19 -10 0 -5 -11 -10 -25
-10 -16 0 -25 -6 -25 -16 0 -12 -6 -15 -24 -10 -16 4 -30 0 -40 -9 -21 -21
-136 -21 -136 0 0 8 -4 15 -10 15 -6 0 -10 27 -10 60 0 57 1 60 25 60 19 0 25
-5 25 -21 0 -11 6 -27 14 -35 17 -16 106 -20 106 -4 0 6 16 10 35 10 19 0 35
5 35 10 0 6 11 10 25 10 16 0 25 6 25 15 0 10 10 15 34 15 21 0 36 6 40 15 3
8 15 15 26 15 11 0 20 5 20 10 0 6 7 10 15 10 8 0 15 9 15 20 0 11 -7 20 -15
20 -8 0 -15 -4 -15 -10 0 -5 -16 -10 -35 -10 -19 0 -35 -4 -35 -9 0 -5 -16
-12 -35 -15 -19 -4 -35 -11 -35 -16 0 -6 -11 -10 -25 -10 -14 0 -25 -4 -25
-10 0 -6 -29 -10 -66 -10 -41 0 -63 4 -59 10 3 6 1 10 -4 10 -6 0 -11 -4 -11
-10 0 -5 -7 -10 -15 -10 -8 0 -15 5 -15 10 0 6 -5 10 -11 10 -18 0 -39 27 -39
50 0 22 21 50 38 50 6 0 13 7 16 16 3 8 10 13 15 9 6 -3 8 -12 5 -20 -3 -7 3
-22 14 -33 16 -16 35 -20 111 -21 77 -2 91 0 91 13 0 12 11 16 50 16 28 0 50
4 50 9 0 5 10 11 23 13 14 2 22 10 22 22 0 25 -19 31 -37 13 -8 -9 -35 -14
-68 -14 -31 0 -56 -5 -58 -12 -2 -7 -30 -11 -74 -11 -87 0 -106 15 -100 83 3
25 29 21 56 -8 19 -21 32 -25 79 -25 39 0 56 4 61 15 4 10 20 15 52 15 58 0
54 9 -5 12 -25 1 -45 7 -48 15 -3 7 -16 13 -29 13 -13 0 -24 5 -24 10 0 6 -27
10 -60 10 -33 0 -60 4 -60 9 0 5 -9 11 -20 14 -11 3 -20 1 -20 -4 0 -5 -18
-12 -40 -15 -44 -7 -55 -24 -15 -24 29 0 33 -15 8 -25 -17 -6 -17 -7 0 -19 21
-16 22 -26 2 -26 -8 0 -15 -5 -15 -11 0 -16 -30 -43 -38 -34 -4 4 -1 10 6 12
6 3 12 11 12 18 0 7 6 15 13 18 6 2 8 8 4 13 -4 5 -12 2 -18 -6 -8 -13 -10
-13 -18 0 -6 8 -14 11 -18 6 -4 -5 -2 -11 5 -13 6 -3 12 -11 12 -19 0 -17 -27
-19 -32 -2 -3 9 -10 7 -24 -6 -13 -14 -15 -21 -6 -24 17 -5 15 -22 -3 -22 -8
0 -15 5 -15 10 0 6 -4 10 -10 10 -5 0 -10 -7 -10 -15 0 -21 -66 -20 -74 1 -5
13 -9 14 -21 4 -12 -10 -18 -10 -30 0 -10 9 -15 9 -15 1 0 -15 -27 -14 -34 2
-5 10 -7 10 -12 0 -3 -7 -12 -13 -19 -13 -7 0 -16 6 -19 13 -5 10 -7 10 -12 0
-3 -7 -12 -13 -19 -13 -7 0 -16 6 -18 13 -4 9 -8 8 -16 -3 -8 -12 -13 -12 -22
-3 -9 9 -16 10 -26 1 -10 -8 -17 -8 -25 0 -9 9 -15 9 -25 0 -10 -8 -17 -8 -25
0 -17 17 -48 15 -48 -3 0 -10 -11 -15 -35 -15 -24 0 -35 5 -35 15 0 18 -12 19
-29 3 -9 -10 -72 -13 -246 -13 -199 0 -236 2 -241 15 -4 13 -7 12 -15 -2 -6
-10 -19 -18 -29 -18 -11 0 -20 -4 -20 -10 0 -5 -11 -10 -25 -10 -14 0 -25 -4
-25 -10 0 -5 -11 -10 -25 -10 -18 0 -25 5 -25 20 0 15 -7 20 -25 20 -16 0 -25
6 -25 15 0 9 9 15 25 15 14 0 25 5 25 10 0 6 -11 10 -25 10 -16 0 -25 6 -25
15 0 9 9 15 25 15 14 0 25 5 25 10 0 6 -11 10 -25 10 -16 0 -25 6 -25 15 0 21
40 19 56 -2 13 -17 13 -17 14 0 0 9 7 17 15 17 8 0 15 5 15 10 0 6 -7 10 -15
10 -8 0 -15 4 -15 9 0 5 -10 11 -22 13 -12 2 -23 9 -26 16 -6 18 45 15 52 -3
3 -8 15 -15 26 -15 11 0 20 -4 20 -10 0 -5 10 -10 21 -10 12 0 32 -11 44 -25
23 -24 24 -24 217 -24 134 0 202 4 219 12 33 17 44 15 67 -10 20 -24 42 -30
42 -13 0 6 -7 10 -15 10 -21 0 -19 12 5 33 23 20 61 23 57 5 -1 -7 4 -12 11
-11 6 2 12 -4 12 -12 0 -23 405 -23 414 0 3 8 15 15 26 15 11 0 20 5 20 10 0
6 9 10 20 10 11 0 23 6 26 14 3 9 18 14 37 14 17 -1 33 4 35 10 2 7 19 12 38
12 19 0 34 5 34 10 0 6 34 10 81 10 58 0 85 4 95 15 9 8 29 15 45 15 16 0 29
4 29 10 0 18 372 18 378 -1z m-2070 -71 c-6 -18 -28 -21 -28 -4 0 9 7 16 16
16 9 0 14 -5 12 -12z m3792 -4 c0 -17 -22 -14 -28 4 -2 7 3 12 12 12 9 0 16
-7 16 -16z m-3890 -69 c0 -9 -9 -15 -25 -15 -16 0 -25 6 -25 15 0 9 9 15 25
15 16 0 25 -6 25 -15z m70 0 c0 -9 -9 -15 -25 -15 -16 0 -25 6 -25 15 0 9 9
15 25 15 16 0 25 -6 25 -15z m3870 0 c0 -9 -9 -15 -25 -15 -16 0 -25 6 -25 15
0 9 9 15 25 15 16 0 25 -6 25 -15z m70 0 c0 -9 -9 -15 -25 -15 -16 0 -25 6
-25 15 0 9 9 15 25 15 16 0 25 -6 25 -15z m-4017 -50 c-4 -15 -66 -12 -71 3
-3 10 6 13 34 10 22 -2 38 -7 37 -13z m77 0 c0 -9 -9 -15 -25 -15 -16 0 -25 6
-25 15 0 9 9 15 25 15 16 0 25 -6 25 -15z m3870 0 c0 -9 -9 -15 -25 -15 -16 0
-25 6 -25 15 0 9 9 15 25 15 16 0 25 -6 25 -15z m95 5 c3 -6 -1 -13 -9 -16
-22 -8 -68 4 -61 16 8 13 62 13 70 0z m-2615 -30 c0 -5 7 -10 16 -10 12 0 14
-10 12 -47 -3 -49 -28 -75 -28 -29 0 14 -4 26 -10 26 -14 0 -12 27 3 34 10 5
10 7 0 12 -15 7 -17 24 -3 24 6 0 10 -4 10 -10z m-1422 -22 c-7 -20 -48 -23
-48 -4 0 11 9 16 26 16 16 0 24 -5 22 -12z m72 -3 c0 -9 -9 -15 -25 -15 -16 0
-25 6 -25 15 0 9 9 15 25 15 16 0 25 -6 25 -15z m3870 0 c0 -9 -9 -15 -25 -15
-16 0 -25 6 -25 15 0 9 9 15 25 15 16 0 25 -6 25 -15z m70 0 c0 -9 -9 -15 -25
-15 -16 0 -25 6 -25 15 0 9 9 15 25 15 16 0 25 -6 25 -15z m-3960 -45 c0 -5
-14 -10 -31 -10 -17 0 -28 4 -24 10 3 6 17 10 31 10 13 0 24 -4 24 -10z m70 0
c0 -5 -13 -10 -30 -10 -16 0 -30 5 -30 10 0 6 14 10 30 10 17 0 30 -4 30 -10z
m3770 0 c0 -5 -11 -10 -25 -10 -14 0 -25 5 -25 10 0 6 11 10 25 10 14 0 25 -4
25 -10z m70 0 c0 -5 -11 -10 -25 -10 -14 0 -25 5 -25 10 0 6 11 10 25 10 14 0
25 -4 25 -10z m-1960 -494 c0 -13 3 -31 6 -40 5 -12 -1 -16 -24 -16 -30 0 -31
1 -27 38 2 20 4 38 4 40 1 1 10 2 21 2 14 0 20 -7 20 -24z m-70 -66 c0 -15 97
-13 103 3 2 6 8 9 12 5 8 -8 -50 -68 -67 -68 -11 0 -68 55 -68 65 0 3 5 5 10
5 6 0 10 -4 10 -10z m5 -97 c6 -17 7 -17 16 0 13 22 45 22 53 0 6 -15 8 -15
19 2 8 9 22 16 32 14 23 -5 22 -23 -2 -28 -10 -2 -28 -14 -40 -27 -28 -31 -45
-30 -69 1 -10 14 -26 25 -36 25 -19 0 -31 14 -21 24 13 12 41 6 48 -11z m-1
-99 c3 -8 10 -12 16 -9 6 4 8 11 5 16 -4 5 5 9 19 9 13 0 27 -6 30 -12 5 -10
7 -10 12 0 7 14 50 16 58 3 3 -5 -5 -12 -19 -15 -14 -4 -25 -11 -25 -16 0 -6
-7 -10 -15 -10 -8 0 -15 -4 -15 -10 0 -19 -41 -10 -66 15 -14 14 -31 25 -39
25 -8 0 -15 5 -15 10 0 16 47 11 54 -6z m-124 -69 c0 -8 5 -15 10 -15 6 0 10
-4 10 -10 0 -5 -9 -10 -20 -10 -11 0 -20 -4 -20 -10 0 -5 5 -10 10 -10 14 0
12 -28 -2 -33 -7 -2 -10 -8 -6 -12 5 -5 16 2 27 13 17 21 41 30 41 16 0 -4 -8
-13 -17 -20 -17 -13 -17 -13 0 -14 21 0 23 -30 1 -30 -8 0 -12 -4 -9 -10 3 -5
0 -10 -9 -10 -8 0 -16 6 -19 13 -2 7 -8 8 -13 3 -5 -5 -4 -11 4 -13 6 -3 12
-11 12 -18 0 -7 -6 -16 -12 -19 -10 -5 -10 -7 0 -12 6 -3 12 -12 12 -19 0 -7
-6 -16 -12 -18 -10 -4 -9 -8 2 -17 11 -9 12 -13 3 -17 -7 -2 -13 -11 -13 -18
0 -7 6 -16 13 -18 9 -4 8 -8 -3 -16 -8 -5 -11 -13 -8 -17 4 -3 15 2 25 12 13
12 14 19 5 22 -12 4 -17 32 -6 32 4 0 24 -18 45 -40 41 -42 85 -53 95 -25 4 8
15 15 25 15 10 0 19 -7 19 -15 0 -20 39 -19 69 1 19 14 25 14 32 3 4 -7 11
-10 16 -6 4 5 1 12 -7 17 -12 7 -9 14 15 36 25 23 27 27 12 36 -10 5 -15 14
-11 19 4 6 15 1 27 -12 14 -15 17 -24 9 -27 -7 -2 -12 -10 -12 -17 0 -7 -6
-15 -12 -17 -9 -3 -8 -9 5 -22 16 -17 18 -17 34 0 13 13 14 19 5 22 -17 5 -15
32 2 32 8 0 16 -6 18 -12 3 -9 9 -8 22 5 17 16 17 18 0 34 -13 13 -19 14 -22
5 -5 -16 -20 -15 -38 2 -16 17 -19 36 -4 36 6 0 10 -4 10 -10 0 -14 27 -12 34
3 5 10 7 10 12 0 3 -7 17 -13 30 -13 17 0 24 6 24 20 0 11 -4 20 -10 20 -5 0
-10 -4 -10 -10 0 -14 -27 -12 -34 3 -5 10 -7 10 -12 0 -3 -7 -10 -13 -16 -13
-13 0 -38 26 -38 39 0 17 17 13 24 -5 3 -8 11 -12 17 -9 7 5 2 15 -12 28 -15
14 -24 17 -27 9 -5 -16 -20 -15 -38 2 -17 18 -18 32 -1 40 10 5 10 7 0 12 -7
3 -13 10 -13 15 0 16 22 10 41 -12 l18 -21 22 21 c19 18 20 21 6 21 -9 0 -17
-4 -17 -10 0 -5 -4 -10 -10 -10 -5 0 -10 7 -10 15 0 8 5 15 10 15 6 0 10 5 10
10 0 6 -9 10 -19 10 -11 0 -23 5 -26 10 -3 6 1 10 9 10 9 0 16 7 16 15 0 10
11 15 35 15 24 0 35 -5 35 -15 0 -9 9 -15 25 -15 14 0 25 -4 25 -10 0 -5 13
-10 30 -10 45 0 70 -27 70 -76 0 -28 -5 -44 -15 -48 -9 -3 -15 -19 -15 -41 0
-22 -4 -34 -10 -30 -5 3 -10 -1 -10 -9 0 -9 -5 -16 -11 -16 -14 0 -39 -25 -39
-39 0 -6 -7 -11 -16 -11 -8 0 -13 -4 -10 -9 3 -5 -1 -11 -9 -15 -12 -4 -8 -12
16 -37 17 -17 33 -28 37 -24 4 4 1 10 -5 12 -26 9 -12 23 22 23 28 0 35 -4 35
-20 0 -11 -4 -20 -10 -20 -5 0 -10 -7 -10 -15 0 -8 -5 -15 -11 -15 -14 0 -39
-25 -39 -39 0 -6 -8 -11 -17 -11 -13 0 -14 -3 -6 -11 9 -9 16 -8 27 4 9 9 16
20 16 26 0 6 6 11 14 11 8 0 16 5 18 10 2 6 13 12 26 15 26 5 72 -36 72 -65 0
-13 5 -17 20 -13 11 3 20 0 20 -6 0 -6 -4 -11 -10 -11 -5 0 -10 -7 -10 -15 0
-8 -7 -15 -15 -15 -8 0 -15 8 -15 17 0 12 -3 14 -11 6 -8 -8 -6 -17 7 -31 l18
-21 25 26 c26 25 26 25 29 4 2 -12 10 -25 18 -28 8 -3 14 -14 14 -24 0 -21 26
-26 33 -6 2 7 8 8 13 3 5 -5 4 -11 -3 -13 -20 -7 -15 -33 5 -33 11 0 24 -10
30 -22 6 -13 11 -17 11 -10 1 17 31 15 31 -3 0 -10 11 -15 35 -15 19 0 35 -4
35 -10 0 -5 7 -10 15 -10 8 0 15 -4 15 -10 0 -5 -15 -10 -33 -10 -40 0 -67
-28 -67 -71 0 -23 -4 -30 -17 -27 -12 2 -20 17 -25 48 -4 25 -12 46 -18 48 -5
2 -10 15 -10 28 0 13 -4 24 -10 24 -5 0 -10 9 -10 20 0 11 -7 20 -15 20 -8 0
-15 -9 -15 -20 0 -11 -2 -20 -5 -20 -3 0 -15 9 -27 20 l-22 20 27 0 c17 0 27
5 27 15 0 9 -10 15 -26 15 -14 0 -23 4 -20 9 6 9 -53 22 -66 14 -5 -2 -8 -78
-8 -169 0 -167 6 -194 39 -194 6 0 11 -16 11 -35 0 -31 -3 -35 -25 -35 -14 0
-25 5 -25 10 0 6 -9 10 -21 10 -22 0 -49 -22 -49 -39 0 -18 -42 -13 -56 7 -16
20 -19 82 -4 82 6 0 10 11 10 24 0 13 6 27 13 30 10 5 10 7 0 12 -7 3 -13 12
-13 19 0 7 6 16 13 19 10 5 10 7 0 12 -7 3 -13 12 -13 20 0 9 5 12 10 9 6 -3
10 0 10 9 0 8 -6 17 -12 20 -10 5 -10 7 0 12 6 3 12 12 12 19 0 7 -6 16 -12
19 -10 5 -10 7 0 12 6 3 12 12 12 20 0 9 -4 12 -10 9 -5 -3 -10 0 -10 9 0 8 6
17 13 20 10 5 10 7 0 12 -7 3 -13 12 -13 19 0 7 6 15 13 18 7 2 -2 18 -25 40
-28 26 -38 44 -38 66 0 21 -5 31 -15 31 -8 0 -15 -5 -15 -11 0 -5 -5 -7 -12
-3 -9 6 -9 9 0 12 7 2 12 10 12 18 0 9 -4 12 -10 9 -6 -4 -10 5 -10 19 0 31
-11 33 -30 5 -22 -31 -49 -43 -66 -29 -8 7 -25 9 -39 6 -18 -5 -27 -2 -31 9
-8 19 -40 20 -47 1 -4 -11 -16 -13 -41 -9 -24 4 -36 2 -36 -6 0 -19 -20 -12
-50 19 -34 35 -40 37 -40 11 0 -10 -11 -27 -25 -37 -18 -13 -25 -28 -25 -51 0
-18 -5 -33 -11 -33 -14 0 -39 -25 -39 -39 0 -6 -8 -11 -17 -11 -17 -1 -17 -1
0 -14 9 -7 17 -18 17 -25 0 -6 -8 -11 -17 -11 -16 -1 -16 -2 2 -16 20 -15 20
-15 1 -26 -19 -11 -19 -11 0 -25 19 -14 19 -14 0 -25 -19 -11 -19 -11 0 -25
19 -14 19 -14 0 -25 -19 -11 -19 -11 -1 -24 18 -14 18 -14 -1 -29 -17 -13 -17
-14 -1 -15 9 0 17 -7 17 -15 0 -8 -8 -15 -17 -15 -17 -1 -17 -1 0 -14 9 -7 17
-23 17 -35 0 -11 5 -21 10 -21 6 0 10 -16 10 -35 0 -19 -4 -35 -10 -35 -5 0
-10 -7 -10 -15 0 -9 -9 -15 -25 -15 -14 0 -25 5 -25 11 0 16 -31 38 -52 39
-10 0 -18 -4 -18 -10 0 -5 11 -10 25 -10 14 0 25 -6 25 -13 0 -7 9 -19 20 -27
11 -8 20 -19 20 -25 0 -6 -9 -17 -20 -25 -11 -8 -20 -20 -20 -27 0 -7 -7 -13
-15 -13 -17 0 -17 -2 -9 -23 5 -14 8 -13 25 1 10 9 19 24 19 34 0 13 8 18 25
18 22 0 25 -4 25 -39 0 -22 -5 -42 -12 -44 -10 -4 -9 -8 2 -16 13 -10 12 -13
-4 -23 -19 -11 -19 -11 -1 -24 18 -14 18 -14 -1 -29 -17 -13 -17 -14 -1 -15
21 0 23 -30 2 -30 -8 0 -15 -4 -15 -10 0 -5 7 -10 15 -10 21 0 19 -30 -2 -30
-16 -1 -16 -2 2 -16 20 -15 20 -15 1 -26 -19 -11 -19 -11 0 -25 19 -14 19 -14
0 -25 -19 -11 -19 -11 0 -25 19 -14 19 -14 0 -25 -19 -11 -19 -11 -1 -24 18
-14 18 -14 -1 -29 -17 -13 -17 -14 -1 -15 9 0 17 -5 17 -11 0 -7 -8 -18 -17
-25 -17 -13 -17 -13 0 -14 9 0 17 -7 17 -15 0 -8 -8 -15 -17 -15 -16 -1 -16
-2 1 -15 20 -15 20 -15 0 -29 -18 -14 -18 -15 -1 -21 22 -9 23 -55 1 -55 -8 0
-12 -5 -9 -10 4 -6 -5 -10 -19 -10 -32 0 -34 -17 -3 -22 16 -2 21 -9 19 -23
-5 -26 -13 -34 -19 -17 -8 21 -23 13 -23 -13 0 -16 -6 -25 -15 -25 -18 0 -21
46 -2 53 6 2 8 8 4 13 -4 5 -12 2 -17 -6 -8 -13 -11 -12 -23 4 -10 13 -16 15
-21 7 -4 -6 0 -14 8 -17 21 -8 21 -54 1 -54 -9 0 -15 9 -15 21 0 23 -22 49
-42 49 -9 -1 -7 -5 5 -14 20 -15 24 -60 5 -54 -7 3 -14 14 -16 26 -2 12 -8 22
-13 22 -5 0 -9 11 -9 25 0 23 3 25 50 25 28 0 50 5 50 10 0 6 -7 10 -15 10 -9
0 -15 9 -15 24 0 13 7 26 15 30 23 8 23 541 0 550 -21 7 -19 43 3 55 16 9 16
10 0 16 -22 9 -24 58 -3 75 18 15 11 30 -16 30 -15 0 -19 7 -19 31 0 31 19 59
40 59 8 0 10 50 6 183 -3 100 -5 195 -6 211 l-1 29 -19 -21 c-24 -25 -26 -47
-4 -38 10 4 14 1 11 -6 -2 -7 -14 -13 -27 -13 -13 0 -25 -6 -28 -13 -2 -6 -12
-12 -23 -12 -10 0 -19 -7 -19 -15 0 -8 9 -15 20 -15 24 0 25 -6 6 -26 -20 -19
-26 -18 -26 6 0 11 -7 20 -15 20 -8 0 -15 6 -15 14 0 8 -6 16 -12 19 -7 2 -9
8 -5 13 4 5 12 2 18 -6 8 -13 10 -13 19 0 5 8 10 21 10 28 0 7 5 10 10 7 9 -5
15 15 11 38 0 4 3 7 9 7 5 0 10 -4 10 -10 0 -5 7 -10 15 -10 8 0 15 7 15 15 0
8 -4 15 -10 15 -5 0 -10 5 -10 11 0 6 9 9 20 6 17 -4 20 0 20 24 0 16 5 29 11
29 6 0 17 6 25 14 15 15 54 10 66 -8 4 -6 11 -7 15 -2 4 5 2 11 -4 13 -7 3
-13 11 -13 19 0 8 -6 14 -14 14 -9 0 -12 7 -9 20 4 15 14 20 39 20 38 0 42 -7
17 -26 -12 -9 -14 -13 -5 -14 13 0 25 10 50 42 12 15 7 24 -41 72 -37 38 -57
67 -61 91 -4 19 -11 35 -16 35 -6 0 -10 19 -10 43 0 50 24 77 70 77 17 0 30 5
30 10 0 6 9 10 20 10 11 0 23 7 26 15 4 9 19 15 40 15 24 0 34 -5 34 -15z
m190 -22 c0 -7 5 -13 10 -13 6 0 10 5 10 10 0 6 15 10 33 10 31 -1 31 -1 12
-16 -19 -14 -19 -16 -2 -25 25 -15 24 -98 -3 -129 -20 -23 -21 -23 -34 -4 -14
18 -15 18 -21 2 -4 -10 -16 -18 -26 -18 -10 0 -19 -4 -19 -10 0 -5 9 -10 20
-10 11 0 20 5 20 10 0 15 19 12 36 -4 19 -20 18 -25 -12 -51 -21 -18 -23 -23
-10 -28 20 -8 21 -27 1 -27 -8 0 -15 5 -15 10 0 6 -9 10 -20 10 -11 0 -20 -4
-20 -10 0 -5 -7 -10 -15 -10 -8 0 -15 5 -15 10 0 6 5 10 10 10 17 0 11 25 -10
40 -26 19 -25 31 5 54 13 10 22 23 18 29 -4 6 -11 3 -19 -7 -12 -17 -14 -16
-33 3 -28 28 -30 115 -3 130 16 9 16 10 0 16 -10 4 -18 11 -18 16 0 14 48 11
54 -3 4 -10 7 -9 15 2 12 19 51 21 51 3z m-174 -230 c-10 -10 -19 5 -10 18 6
11 8 11 12 0 2 -7 1 -15 -2 -18z m394 -13 c0 -5 -4 -10 -10 -10 -5 0 -10 5
-10 10 0 6 5 10 10 10 6 0 10 -4 10 -10z m-50 -50 c0 -5 -4 -10 -10 -10 -5 0
-10 5 -10 10 0 6 5 10 10 10 6 0 10 -4 10 -10z m-310 -165 c0 -22 66 -20 74 1
7 19 19 12 22 -12 4 -23 -32 -54 -62 -54 -34 0 -94 58 -73 71 21 13 39 11 39
-6z m209 -15 c21 0 31 5 31 15 0 17 18 19 39 6 21 -13 -39 -71 -73 -71 -28 0
-66 31 -66 53 0 23 14 29 26 13 6 -9 25 -16 43 -16z m-289 10 c0 -5 -4 -10
-10 -10 -5 0 -10 5 -10 10 0 6 5 10 10 10 6 0 10 -4 10 -10z m-360 -178 c0
-11 -10 -24 -22 -30 -13 -6 -17 -11 -10 -11 17 -1 15 -28 -3 -35 -10 -4 -15
-20 -15 -51 0 -42 -2 -46 -22 -43 -19 2 -22 8 -20 31 5 37 -26 67 -68 67 -16
0 -30 5 -30 10 0 6 7 10 15 10 8 0 15 5 15 10 0 6 14 10 30 10 18 0 33 6 36
15 7 18 34 20 35 3 0 -7 5 -3 11 10 13 27 48 30 48 4z m-170 -170 l0 -49 -32
5 c-33 5 -58 23 -58 41 0 21 35 49 63 50 26 1 27 -1 27 -47z m1510 39 c0 -5 9
-13 20 -16 44 -14 16 -55 -47 -68 -21 -5 -23 -2 -23 44 0 46 2 49 25 49 14 0
25 -4 25 -9z m-1600 -85 c0 -24 16 -36 51 -36 12 0 19 -7 19 -20 0 -11 -7 -20
-15 -20 -8 0 -15 -4 -15 -10 0 -5 -9 -10 -20 -10 -11 0 -20 5 -20 10 0 6 5 10
10 10 15 0 12 19 -4 36 -17 16 -36 19 -36 4 0 -5 -10 -10 -22 -9 -13 0 -17 3
-10 6 6 2 12 15 12 28 0 22 11 33 38 34 6 1 12 -10 12 -23z m1681 14 c5 0 9
-11 9 -24 0 -13 6 -27 13 -29 6 -3 2 -6 -10 -6 -13 -1 -23 4 -23 9 0 15 -19
12 -36 -4 -16 -17 -19 -36 -4 -36 6 0 10 -4 10 -10 0 -5 -9 -10 -20 -10 -11 0
-20 5 -20 10 0 6 -7 10 -15 10 -8 0 -15 9 -15 20 0 13 7 20 19 20 35 0 51 12
51 37 0 19 4 24 16 19 9 -3 20 -6 25 -6z m-1761 -80 c0 -5 -4 -10 -10 -10 -5
0 -10 5 -10 10 0 6 5 10 10 10 6 0 10 -4 10 -10z m1820 6 c0 -3 -4 -8 -10 -11
-5 -3 -10 -1 -10 4 0 6 5 11 10 11 6 0 10 -2 10 -4z m-1840 -50 c0 -3 -4 -8
-10 -11 -5 -3 -10 -1 -10 4 0 6 5 11 10 11 6 0 10 -2 10 -4z m1860 -6 c0 -5
-4 -10 -10 -10 -5 0 -10 5 -10 10 0 6 5 10 10 10 6 0 10 -4 10 -10z m-1910
-20 c0 -5 -4 -10 -10 -10 -5 0 -10 5 -10 10 0 6 5 10 10 10 6 0 10 -4 10 -10z
m1960 0 c0 -5 -4 -10 -10 -10 -5 0 -10 5 -10 10 0 6 5 10 10 10 6 0 10 -4 10
-10z m-580 -25 c0 -8 5 -15 10 -15 15 0 12 -67 -2 -74 -10 -5 -10 -7 0 -12 14
-7 17 -64 2 -64 -6 0 -10 -98 -10 -275 0 -177 4 -275 10 -275 6 0 10 -11 10
-25 0 -14 -4 -25 -10 -25 -5 0 -10 -4 -10 -10 0 -5 23 -10 50 -10 46 0 50 -2
50 -24 0 -13 6 -26 14 -29 9 -4 12 -14 9 -26 -7 -29 -21 -26 -30 6 l-6 28 -10
-28 c-10 -31 -27 -36 -27 -8 0 30 -17 34 -24 6 -4 -14 -11 -25 -16 -25 -15 0
-12 48 3 53 6 2 9 8 5 12 -11 11 -38 -21 -38 -44 0 -12 -6 -21 -15 -21 -9 0
-15 9 -15 25 0 14 -4 25 -10 25 -5 0 -10 -4 -10 -10 0 -19 -26 -10 -27 10 -1
13 6 22 23 26 13 3 24 10 24 15 0 5 7 9 15 9 8 0 15 5 15 10 0 6 -7 10 -15 10
-8 0 -15 -4 -15 -10 0 -15 -39 -12 -56 4 -17 18 -18 52 -1 60 10 5 10 7 0 12
-7 3 -13 12 -13 19 0 7 6 16 13 19 10 5 10 7 0 12 -7 3 -13 12 -13 19 0 7 6
16 13 19 10 5 10 7 0 12 -7 3 -13 12 -13 19 0 7 6 16 13 19 10 5 10 7 0 12 -7
3 -13 12 -13 20 0 9 5 12 10 9 6 -3 10 0 10 9 0 8 -6 17 -12 20 -10 5 -10 7 0
12 6 3 12 12 12 19 0 7 -6 16 -12 19 -10 5 -10 7 0 12 6 3 12 12 12 20 0 9 -4
12 -10 9 -5 -3 -10 0 -10 9 0 8 6 17 13 20 10 5 10 7 0 12 -7 3 -13 12 -13 19
0 7 6 16 13 19 10 5 10 7 0 12 -7 3 -13 12 -13 19 0 7 6 16 13 19 10 5 10 7 0
12 -7 3 -13 12 -13 20 0 9 5 12 10 9 6 -3 10 0 10 9 0 8 -6 17 -12 20 -10 5
-10 7 0 12 6 3 12 12 12 20 0 9 -4 12 -10 9 -6 -4 -10 10 -10 34 0 34 3 41 20
41 22 0 27 15 9 26 -7 4 -2 15 15 29 14 12 26 27 26 34 0 6 11 11 25 11 16 0
25 -6 25 -15z m-1410 -25 c0 -5 -2 -10 -4 -10 -3 0 -8 5 -11 10 -3 6 -1 10 4
10 6 0 11 -4 11 -10z m2010 0 c0 -5 -4 -10 -10 -10 -5 0 -10 5 -10 10 0 6 5
10 10 10 6 0 10 -4 10 -10z m-2030 -20 c0 -5 -10 -10 -22 -10 -19 0 -20 2 -8
10 19 13 30 13 30 0z m2070 0 c12 -8 11 -10 -7 -10 -13 0 -23 5 -23 10 0 13
11 13 30 0z m-2120 -40 c0 -11 -4 -20 -10 -20 -5 0 -10 9 -10 20 0 11 5 20 10
20 6 0 10 -9 10 -20z m120 10 c0 -5 -2 -10 -4 -10 -3 0 -8 5 -11 10 -3 6 -1
10 4 10 6 0 11 -4 11 -10z m2036 -10 c0 -11 -4 -20 -8 -20 -4 0 -8 9 -8 20 0
11 4 20 8 20 4 0 8 -9 8 -20z m-2056 -10 c0 -5 -4 -10 -10 -10 -5 0 -10 5 -10
10 0 6 5 10 10 10 6 0 10 -4 10 -10z m1960 0 c0 -5 -4 -10 -10 -10 -5 0 -10 5
-10 10 0 6 5 10 10 10 6 0 10 -4 10 -10z m-2080 -24 c0 -3 -4 -8 -10 -11 -5
-3 -10 -1 -10 4 0 6 5 11 10 11 6 0 10 -2 10 -4z m2200 -6 c0 -5 -4 -10 -10
-10 -5 0 -10 5 -10 10 0 6 5 10 10 10 6 0 10 -4 10 -10z m-2250 -20 c0 -5 -4
-10 -10 -10 -5 0 -10 5 -10 10 0 6 5 10 10 10 6 0 10 -4 10 -10z m120 0 c0 -5
-4 -10 -10 -10 -5 0 -10 5 -10 10 0 6 5 10 10 10 6 0 10 -4 10 -10z m2060 0
c0 -5 -4 -10 -10 -10 -5 0 -10 5 -10 10 0 6 5 10 10 10 6 0 10 -4 10 -10z
m120 0 c0 -5 -4 -10 -10 -10 -5 0 -10 5 -10 10 0 6 5 10 10 10 6 0 10 -4 10
-10z m-2330 -50 c0 -5 -4 -10 -10 -10 -5 0 -10 5 -10 10 0 6 5 10 10 10 6 0
10 -4 10 -10z m2350 0 c0 -5 -4 -10 -10 -10 -5 0 -10 5 -10 10 0 6 5 10 10 10
6 0 10 -4 10 -10z m-2610 -20 c0 -5 -10 -10 -22 -9 -22 0 -22 1 -3 9 11 5 21
9 23 9 1 1 2 -3 2 -9z m220 -13 c0 -16 -36 -47 -55 -47 -8 0 -15 9 -15 20 0
13 7 20 20 20 11 0 23 7 26 15 7 17 24 11 24 -8z m2440 8 c0 -9 9 -15 25 -15
18 0 25 -5 25 -20 0 -14 -7 -20 -24 -20 -13 0 -26 6 -29 13 -4 10 -7 10 -18 0
-11 -11 -10 -13 4 -13 11 0 17 -8 17 -25 0 -30 -22 -33 -48 -7 -17 17 -17 19
5 37 13 11 23 30 23 43 0 12 5 22 10 22 6 0 10 -7 10 -15z m240 -1 c0 -2 -9
-4 -20 -4 -11 0 -20 4 -20 9 0 5 9 7 20 4 11 -3 20 -7 20 -9z m-2880 -34 c0
-11 -4 -20 -9 -20 -6 0 -9 9 -8 20 1 11 5 20 9 20 4 0 8 -9 8 -20z m50 10 c0
-5 -2 -10 -4 -10 -3 0 -8 5 -11 10 -3 6 -1 10 4 10 6 0 11 -4 11 -10z m240 0
c0 -5 -2 -10 -4 -10 -3 0 -8 5 -11 10 -3 6 -1 10 4 10 6 0 11 -4 11 -10z
m2250 0 c0 -5 -2 -10 -4 -10 -3 0 -8 5 -11 10 -3 6 -1 10 4 10 6 0 11 -4 11
-10z m293 -10 c3 -12 0 -20 -7 -20 -6 0 -12 9 -12 20 0 11 3 20 7 20 4 0 9 -9
12 -20z m-2758 -10 c3 -5 1 -10 -4 -10 -6 0 -11 5 -11 10 0 6 2 10 4 10 3 0 8
-4 11 -10z m154 -9 c18 -18 18 -19 0 -35 -11 -9 -25 -16 -33 -16 -23 0 -28 31
-9 51 23 22 20 22 42 0z m2531 9 c0 -5 -4 -10 -10 -10 -5 0 -10 5 -10 10 0 6
5 10 10 10 6 0 10 -4 10 -10z m-2730 -24 c0 -3 -4 -8 -10 -11 -5 -3 -10 -1
-10 4 0 6 5 11 10 11 6 0 10 -2 10 -4z m2780 -6 c0 -5 -2 -10 -4 -10 -3 0 -8
5 -11 10 -3 6 -1 10 4 10 6 0 11 -4 11 -10z m-2730 -20 c0 -5 -4 -10 -10 -10
-5 0 -10 5 -10 10 0 6 5 10 10 10 6 0 10 -4 10 -10z m40 0 c0 -5 -4 -10 -10
-10 -5 0 -10 5 -10 10 0 6 5 10 10 10 6 0 10 -4 10 -10z m2590 0 c0 -5 -4 -10
-10 -10 -5 0 -10 5 -10 10 0 6 5 10 10 10 6 0 10 -4 10 -10z m50 0 c0 -5 -4
-10 -10 -10 -5 0 -10 5 -10 10 0 6 5 10 10 10 6 0 10 -4 10 -10z m-2610 -50
c0 -5 -4 -10 -10 -10 -5 0 -10 5 -10 10 0 6 5 10 10 10 6 0 10 -4 10 -10z
m2540 0 c0 -5 -4 -10 -10 -10 -5 0 -10 5 -10 10 0 6 5 10 10 10 6 0 10 -4 10
-10z m-1830 -479 c0 -17 -12 -41 -21 -41 -5 0 -9 11 -9 25 0 16 6 25 15 25 8
0 15 -4 15 -9z m40 -16 c0 -28 -15 -34 -24 -9 -10 25 -7 34 9 34 9 0 15 -9 15
-25z m1090 -1 c0 -31 -23 -28 -28 4 -2 15 2 22 12 22 11 0 16 -9 16 -26z"/>
<path d="M2525 4130 c3 -5 15 -10 25 -10 10 0 22 5 25 10 4 6 -7 10 -25 10
-18 0 -29 -4 -25 -10z"/>
<path d="M2460 4060 c0 -5 9 -10 20 -10 11 0 20 5 20 10 0 6 -9 10 -20 10 -11
0 -20 -4 -20 -10z"/>
<path d="M2600 4060 c0 -5 9 -10 20 -10 11 0 20 5 20 10 0 6 -9 10 -20 10 -11
0 -20 -4 -20 -10z"/>
<path d="M2405 3870 c-3 -5 1 -10 10 -10 9 0 13 5 10 10 -3 6 -8 10 -10 10 -2
0 -7 -4 -10 -10z"/>
<path d="M2455 3870 c-3 -5 -1 -10 4 -10 6 0 11 5 11 10 0 6 -2 10 -4 10 -3 0
-8 -4 -11 -10z"/>
<path d="M2530 3865 c0 -8 -5 -15 -11 -15 -14 0 -39 -25 -39 -39 0 -6 -5 -11
-11 -11 -6 0 -17 -7 -25 -15 -13 -13 -13 -17 -2 -29 23 -22 53 -27 74 -11 23
17 51 19 56 3 6 -17 64 -14 82 5 20 20 20 27 0 27 -8 0 -12 5 -9 10 3 6 -1 10
-9 10 -9 0 -16 5 -16 11 0 6 -6 17 -14 25 -8 8 -19 14 -25 14 -6 0 -11 7 -11
15 0 8 -9 15 -20 15 -11 0 -20 -7 -20 -15z"/>
<path d="M2625 3870 c-3 -5 -1 -10 4 -10 6 0 11 5 11 10 0 6 -2 10 -4 10 -3 0
-8 -4 -11 -10z"/>
<path d="M2380 3840 c0 -5 5 -10 10 -10 6 0 10 5 10 10 0 6 -4 10 -10 10 -5 0
-10 -4 -10 -10z"/>
<path d="M2430 3840 c0 -5 5 -10 10 -10 6 0 10 5 10 10 0 6 -4 10 -10 10 -5 0
-10 -4 -10 -10z"/>
<path d="M2650 3840 c0 -5 5 -10 10 -10 6 0 10 5 10 10 0 6 -4 10 -10 10 -5 0
-10 -4 -10 -10z"/>
<path d="M2190 3700 c0 -5 5 -10 11 -10 5 0 7 5 4 10 -3 6 -8 10 -11 10 -2 0
-4 -4 -4 -10z"/>
<path d="M2235 3701 c-6 -11 9 -23 19 -14 9 9 7 23 -3 23 -6 0 -12 -4 -16 -9z"/>
<path d="M2840 3701 c0 -6 5 -13 10 -16 6 -3 10 1 10 9 0 9 -4 16 -10 16 -5 0
-10 -4 -10 -9z"/>
<path d="M2890 3700 c0 -5 5 -10 10 -10 6 0 10 5 10 10 0 6 -4 10 -10 10 -5 0
-10 -4 -10 -10z"/>
<path d="M2815 3670 c3 -5 10 -10 16 -10 5 0 9 5 9 10 0 6 -7 10 -16 10 -8 0
-12 -4 -9 -10z"/>
<path d="M2790 3650 c0 -5 5 -10 10 -10 6 0 10 5 10 10 0 6 -4 10 -10 10 -5 0
-10 -4 -10 -10z"/>
<path d="M2696 3631 c-4 -5 -2 -12 3 -15 5 -4 12 -2 15 3 4 5 2 12 -3 15 -5 4
-12 2 -15 -3z"/>
<path d="M1510 3530 c0 -5 5 -10 10 -10 6 0 10 5 10 10 0 6 -4 10 -10 10 -5 0
-10 -4 -10 -10z"/>
<path d="M2403 3293 c-13 -2 -23 -8 -23 -13 0 -4 -20 -7 -45 -7 -30 2 -45 -2
-45 -10 0 -7 9 -13 20 -13 11 0 20 -4 20 -10 0 -5 23 -10 50 -10 38 0 50 -4
50 -15 0 -8 3 -15 6 -15 3 0 12 7 20 15 9 8 23 15 33 15 14 0 17 6 13 25 -3
19 0 25 12 25 10 0 15 4 12 8 -5 8 -88 12 -123 5z"/>
<path d="M2574 3288 c-3 -4 2 -8 12 -8 12 0 15 -6 12 -25 -4 -20 0 -25 23 -30
16 -4 29 -11 29 -16 0 -5 5 -9 10 -9 6 0 10 7 10 15 0 11 12 15 45 15 25 0 45
5 45 10 0 6 11 10 25 10 14 0 25 6 25 13 0 8 -14 12 -42 11 -24 -1 -46 3 -50
9 -8 13 -137 17 -144 5z"/>
<path d="M765 3170 c-3 -5 -1 -10 4 -10 6 0 11 5 11 10 0 6 -2 10 -4 10 -3 0
-8 -4 -11 -10z"/>
<path d="M1970 3170 c0 -5 5 -10 10 -10 6 0 10 5 10 10 0 6 -4 10 -10 10 -5 0
-10 -4 -10 -10z"/>
<path d="M3106 3171 c-4 -5 -2 -12 3 -15 5 -4 12 -2 15 3 4 5 2 12 -3 15 -5 4
-12 2 -15 -3z"/>
<path d="M4315 3170 c-3 -5 1 -10 10 -10 9 0 13 5 10 10 -3 6 -8 10 -10 10 -2
0 -7 -4 -10 -10z"/>
<path d="M740 3140 c0 -5 5 -10 11 -10 5 0 7 5 4 10 -3 6 -8 10 -11 10 -2 0
-4 -4 -4 -10z"/>
<path d="M1950 3140 c0 -5 5 -10 11 -10 5 0 7 5 4 10 -3 6 -8 10 -11 10 -2 0
-4 -4 -4 -10z"/>
<path d="M3130 3140 c0 -5 5 -10 10 -10 6 0 10 5 10 10 0 6 -4 10 -10 10 -5 0
-10 -4 -10 -10z"/>
<path d="M3710 3140 c0 -5 5 -10 10 -10 6 0 10 5 10 10 0 6 -4 10 -10 10 -5 0
-10 -4 -10 -10z"/>
<path d="M4290 3140 c0 -5 5 -10 10 -10 6 0 10 5 10 10 0 6 -4 10 -10 10 -5 0
-10 -4 -10 -10z"/>
<path d="M4340 3140 c0 -5 5 -10 10 -10 6 0 10 5 10 10 0 6 -4 10 -10 10 -5 0
-10 -4 -10 -10z"/>
<path d="M826 3121 c-19 -7 -19 -8 2 -13 15 -4 22 -2 22 8 0 8 -1 14 -2 13 -2
0 -12 -4 -22 -8z"/>
<path d="M942 3121 c-11 -7 -10 -10 3 -15 22 -8 253 -8 284 1 23 6 23 7 5 14
-26 10 -276 11 -292 0z"/>
<path d="M3865 3121 c-17 -7 -15 -10 15 -16 53 -10 285 -2 283 10 -3 12 -270
18 -298 6z"/>
<path d="M4245 3120 c-8 -13 8 -18 29 -10 19 6 19 7 -2 12 -12 4 -24 2 -27 -2z"/>
<path d="M4318 3113 c7 -3 16 -2 19 1 4 3 -2 6 -13 5 -11 0 -14 -3 -6 -6z"/>
<path d="M740 3089 c0 -5 5 -7 10 -4 6 3 10 8 10 11 0 2 -4 4 -10 4 -5 0 -10
-5 -10 -11z"/>
<path d="M4295 3090 c3 -5 8 -10 11 -10 2 0 4 5 4 10 0 6 -5 10 -11 10 -5 0
-7 -4 -4 -10z"/>
<path d="M4340 3090 c0 -5 5 -10 10 -10 6 0 10 5 10 10 0 6 -4 10 -10 10 -5 0
-10 -4 -10 -10z"/>
<path d="M715 3070 c-3 -5 -1 -10 4 -10 6 0 11 5 11 10 0 6 -2 10 -4 10 -3 0
-8 -4 -11 -10z"/>
<path d="M760 3070 c0 -5 5 -10 10 -10 6 0 10 5 10 10 0 6 -4 10 -10 10 -5 0
-10 -4 -10 -10z"/>
<path d="M4320 3070 c0 -5 5 -10 11 -10 5 0 7 5 4 10 -3 6 -8 10 -11 10 -2 0
-4 -4 -4 -10z"/>
<path d="M4370 3070 c0 -5 5 -10 11 -10 5 0 7 5 4 10 -3 6 -8 10 -11 10 -2 0
-4 -4 -4 -10z"/>
<path d="M740 3039 c0 -5 5 -7 10 -4 6 3 10 8 10 11 0 2 -4 4 -10 4 -5 0 -10
-5 -10 -11z"/>
<path d="M2271 2114 c-7 -8 -10 -18 -6 -22 4 -4 10 -1 12 6 6 16 30 16 35 0 3
-9 10 -8 22 5 10 10 15 21 12 25 -4 3 -12 0 -17 -8 -8 -11 -12 -12 -16 -2 -6
16 -25 15 -42 -4z"/>
<path d="M2781 2114 c-18 -21 -6 -30 14 -11 8 9 15 18 15 21 0 11 -15 5 -29
-10z"/>
<path d="M2820 2100 c0 -5 5 -10 10 -10 14 0 12 -28 -2 -32 -8 -3 -5 -12 10
-28 17 -18 22 -20 22 -8 0 9 -6 19 -12 22 -10 5 -10 7 0 12 16 8 15 22 -2 40
-17 16 -26 18 -26 4z"/>
<path d="M2235 2081 c-3 -5 3 -15 12 -21 13 -8 14 -13 6 -16 -7 -3 -13 -13
-13 -22 1 -15 3 -14 15 2 15 19 15 19 28 1 8 -10 16 -14 19 -9 3 5 -9 24 -27
42 -19 18 -36 28 -40 23z"/>
<path d="M2286 2081 c-4 -5 -2 -12 3 -15 5 -4 12 -2 15 3 4 5 2 12 -3 15 -5 4
-12 2 -15 -3z"/>
<path d="M2327 2070 c-17 -20 -16 -21 3 -42 16 -18 20 -19 20 -6 0 9 -6 19
-12 21 -10 4 -10 8 1 15 7 5 12 15 10 21 -3 7 -11 3 -22 -9z"/>
<path d="M2746 2081 c-4 -5 -2 -12 3 -15 5 -4 12 -2 15 3 4 5 2 12 -3 15 -5 4
-12 2 -15 -3z"/>
<path d="M2787 2070 c-17 -20 -16 -21 3 -42 16 -18 20 -19 20 -6 0 9 -6 19
-12 21 -10 4 -10 8 1 15 7 5 12 15 10 21 -3 7 -11 3 -22 -9z"/>
<path d="M2260 1990 c0 -14 7 -20 24 -20 13 0 27 6 29 13 4 9 8 8 16 -3 5 -8
13 -11 17 -8 3 4 -2 15 -12 25 -12 13 -19 14 -22 5 -4 -14 -32 -16 -32 -2 0 6
-4 10 -10 10 -5 0 -10 -9 -10 -20z"/>
<path d="M2302 1944 c-11 -12 -10 -17 2 -30 15 -14 17 -14 32 0 14 14 14 18 0
31 -18 18 -18 18 -34 -1z m28 -14 c0 -5 -4 -10 -10 -10 -5 0 -10 5 -10 10 0 6
5 10 10 10 6 0 10 -4 10 -10z"/>
<path d="M2330 1880 c0 -5 5 -10 10 -10 6 0 10 5 10 10 0 6 -4 10 -10 10 -5 0
-10 -4 -10 -10z"/>
<path d="M2405 1860 c-3 -5 1 -10 9 -10 9 0 16 5 16 10 0 6 -4 10 -9 10 -6 0
-13 -4 -16 -10z"/>
<path d="M2310 1834 c0 -10 31 -36 37 -31 3 3 -2 13 -10 22 -16 15 -27 19 -27
9z"/>
<path d="M2380 1830 c0 -5 5 -10 10 -10 6 0 10 5 10 10 0 6 -4 10 -10 10 -5 0
-10 -4 -10 -10z"/>
<path d="M2430 1830 c0 -5 5 -10 10 -10 6 0 10 5 10 10 0 6 -4 10 -10 10 -5 0
-10 -4 -10 -10z"/>
<path d="M2650 1830 c0 -5 5 -10 10 -10 6 0 10 5 10 10 0 6 -4 10 -10 10 -5 0
-10 -4 -10 -10z"/>
<path d="M2695 1830 c3 -5 8 -10 11 -10 2 0 4 5 4 10 0 6 -5 10 -11 10 -5 0
-7 -4 -4 -10z"/>
<path d="M2770 1830 c0 -5 5 -10 10 -10 6 0 10 5 10 10 0 6 -4 10 -10 10 -5 0
-10 -4 -10 -10z"/>
<path d="M2530 1810 c0 -5 9 -10 20 -10 11 0 20 5 20 10 0 6 -9 10 -20 10 -11
0 -20 -4 -20 -10z"/>
<path d="M2750 1804 c0 -8 5 -12 10 -9 6 4 8 11 5 16 -9 14 -15 11 -15 -7z"/>
<path d="M2236 1741 c-4 -5 -2 -12 3 -15 5 -4 12 -2 15 3 4 5 2 12 -3 15 -5 4
-12 2 -15 -3z"/>
<path d="M2260 1710 c0 -5 5 -10 10 -10 6 0 10 5 10 10 0 6 -4 10 -10 10 -5 0
-10 -4 -10 -10z"/>
<path d="M2190 979 c0 -5 5 -7 10 -4 6 3 10 8 10 11 0 2 -4 4 -10 4 -5 0 -10
-5 -10 -11z"/>
<path d="M2160 695 c0 -163 4 -255 10 -255 6 0 10 6 10 14 0 8 8 22 17 32 13
13 14 19 5 22 -16 5 -16 29 1 36 10 5 10 7 0 12 -7 3 -13 12 -13 19 0 7 6 16
13 18 9 4 9 8 -2 15 -13 9 -13 13 -1 27 12 14 12 18 -1 26 -12 8 -12 10 0 18
13 8 13 12 1 26 -12 14 -12 18 1 27 11 7 11 11 2 15 -7 2 -13 11 -13 18 0 7 6
16 13 19 10 5 10 7 0 12 -7 3 -13 12 -13 19 0 7 6 16 13 19 10 5 10 7 0 12 -7
3 -13 12 -13 19 0 7 6 16 13 19 10 5 10 7 0 12 -15 7 -17 34 -3 34 6 0 10 5
10 10 0 6 -11 10 -25 10 l-25 0 0 -255z"/>
<path d="M2160 380 c0 -5 4 -10 9 -10 6 0 13 5 16 10 3 6 -1 10 -9 10 -9 0
-16 -4 -16 -10z"/>
<path d="M2480 2124 c0 -17 34 -34 70 -34 40 0 80 23 65 38 -4 4 -10 1 -12 -5
-6 -16 -103 -18 -103 -3 0 6 -4 10 -10 10 -5 0 -10 -3 -10 -6z"/>
<path d="M2500 1950 c0 -5 5 -10 10 -10 6 0 10 5 10 10 0 6 -4 10 -10 10 -5 0
-10 -4 -10 -10z"/>
<path d="M2575 1950 c3 -5 10 -10 16 -10 5 0 9 5 9 10 0 6 -7 10 -16 10 -8 0
-12 -4 -9 -10z"/>
<path d="M2530 1930 c0 -5 9 -10 20 -10 11 0 20 5 20 10 0 6 -9 10 -20 10 -11
0 -20 -4 -20 -10z"/>
<path d="M2890 1044 c0 -14 4 -23 9 -19 6 3 14 -2 19 -11 8 -14 10 -14 15 5 3
14 0 21 -9 21 -8 0 -14 7 -14 15 0 8 -4 15 -10 15 -5 0 -10 -12 -10 -26z"/>
<path d="M2890 980 c0 -5 5 -10 10 -10 6 0 10 5 10 10 0 6 -4 10 -10 10 -5 0
-10 -4 -10 -10z"/>
<path d="M2890 934 c0 -8 5 -12 10 -9 6 3 10 0 10 -9 0 -8 -6 -17 -12 -20 -10
-5 -10 -7 0 -12 6 -3 12 -12 12 -19 0 -7 -6 -16 -12 -19 -10 -5 -10 -7 0 -12
6 -3 12 -12 12 -19 0 -7 -6 -16 -12 -19 -10 -5 -10 -7 0 -12 6 -3 12 -12 12
-19 0 -7 -6 -16 -12 -18 -10 -4 -9 -8 2 -17 11 -9 12 -13 3 -17 -7 -2 -13 -11
-13 -18 0 -7 6 -16 13 -19 10 -5 10 -7 0 -12 -7 -3 -13 -12 -13 -20 0 -9 5
-12 10 -9 6 3 10 0 10 -9 0 -8 -6 -17 -12 -20 -10 -5 -10 -7 0 -12 6 -3 12
-12 12 -19 0 -7 -6 -16 -12 -19 -10 -5 -10 -7 0 -12 6 -3 12 -12 12 -19 0 -7
-6 -16 -12 -18 -10 -4 -10 -8 -2 -14 6 -4 14 -18 18 -31 18 -55 24 5 25 238
l2 250 -26 0 c-16 0 -25 -6 -25 -16z"/>
<path d="M2915 330 c4 -6 11 -8 16 -5 14 9 11 15 -7 15 -8 0 -12 -5 -9 -10z"/>
<path d="M3010 330 c0 -5 5 -10 10 -10 6 0 10 5 10 10 0 6 -4 10 -10 10 -5 0
-10 -4 -10 -10z"/>
</g>
</svg>
