<svg xmlns="http://www.w3.org/2000/svg" xmlns:xlink="http://www.w3.org/1999/xlink" width="500" zoomAndPan="magnify" viewBox="0 0 375 374.999991" height="500" preserveAspectRatio="xMidYMid meet" version="1.0"><defs><filter x="0%" y="0%" width="100%" height="100%" id="id1"><feColorMatrix values="0 0 0 0 1 0 0 0 0 1 0 0 0 0 1 0 0 0 1 0" color-interpolation-filters="sRGB"/></filter><clipPath id="id2"><path d="M 7.015625 10.753906 L 368.515625 10.753906 L 368.515625 364.753906 L 7.015625 364.753906 Z M 7.015625 10.753906 " clip-rule="nonzero"/></clipPath><clipPath id="id3"><path d="M 6.253906 8 L 368.503906 8 L 368.503906 366 L 6.253906 366 Z M 6.253906 8 " clip-rule="nonzero"/></clipPath><mask id="id4"><g filter="url(#id1)"><rect x="-37.5" width="450" fill="#000000" y="-37.499999" height="449.999989" fill-opacity="0.698"/></g></mask><clipPath id="id5"><path d="M 0.253906 1 L 362 1 L 362 357.761719 L 0.253906 357.761719 Z M 0.253906 1 " clip-rule="nonzero"/></clipPath><clipPath id="id6"><rect x="0" width="363" y="0" height="358"/></clipPath><clipPath id="id7"><path d="M 303 193 L 328 193 L 328 242 L 303 242 Z M 303 193 " clip-rule="nonzero"/></clipPath><clipPath id="id8"><path d="M 12.140625 128.105469 L 323.546875 28.332031 L 392.199219 242.601562 L 80.792969 342.375 Z M 12.140625 128.105469 " clip-rule="nonzero"/></clipPath><clipPath id="id9"><path d="M 323.210938 28.4375 L 11.804688 128.210938 L 80.457031 342.480469 L 391.863281 242.707031 Z M 323.210938 28.4375 " clip-rule="nonzero"/></clipPath><clipPath id="id10"><path d="M 323.210938 28.4375 L 11.804688 128.210938 L 80.457031 342.480469 L 391.863281 242.707031 Z M 323.210938 28.4375 " clip-rule="nonzero"/></clipPath><clipPath id="id11"><path d="M 18 105 L 353 105 L 353 286 L 18 286 Z M 18 105 " clip-rule="nonzero"/></clipPath><clipPath id="id12"><path d="M 12.140625 128.105469 L 323.546875 28.332031 L 392.199219 242.601562 L 80.792969 342.375 Z M 12.140625 128.105469 " clip-rule="nonzero"/></clipPath><clipPath id="id13"><path d="M 323.210938 28.4375 L 11.804688 128.210938 L 80.457031 342.480469 L 391.863281 242.707031 Z M 323.210938 28.4375 " clip-rule="nonzero"/></clipPath><clipPath id="id14"><path d="M 323.210938 28.4375 L 11.804688 128.210938 L 80.457031 342.480469 L 391.863281 242.707031 Z M 323.210938 28.4375 " clip-rule="nonzero"/></clipPath></defs><g clip-path="url(#id2)"><path fill="#ffffff" d="M 187.765625 10.753906 C 87.941406 10.753906 7.015625 90 7.015625 187.753906 C 7.015625 285.507812 87.941406 364.753906 187.765625 364.753906 C 287.589844 364.753906 368.515625 285.507812 368.515625 187.753906 C 368.515625 90 287.589844 10.753906 187.765625 10.753906 " fill-opacity="1" fill-rule="nonzero"/></g><g clip-path="url(#id3)"><g mask="url(#id4)"><g transform="matrix(1, 0, 0, 1, 6, 8)"><g clip-path="url(#id6)"><g clip-path="url(#id5)"><path fill="#3aafaf" d="M 329.25 232.453125 C 326.015625 239.386719 322.628906 246.472656 319.550781 253.097656 C 316.011719 260.1875 311.082031 265.734375 306.003906 270.664062 C 300.769531 275.59375 295.6875 280.371094 290.609375 286.070312 C 284.449219 293.3125 276.597656 299.011719 268.285156 303.636719 C 259.972656 308.410156 251.351562 312.417969 242.574219 316.886719 C 226.410156 325.050781 208.398438 330.753906 189.613281 332.757812 C 170.832031 334.605469 151.433594 333.0625 133.578125 326.59375 C 125.261719 323.664062 117.257812 320.121094 109.558594 316.117188 C 102.015625 311.957031 94.78125 307.488281 88.007812 302.402344 C 81.234375 297.472656 74.921875 291.773438 69.070312 285.917969 C 63.21875 280.0625 57.832031 273.746094 53.214844 267.121094 C 48.441406 260.492188 44.128906 253.558594 40.589844 246.164062 C 37.046875 238.921875 33.96875 231.375 31.507812 223.667969 C 29.195312 215.964844 27.503906 207.953125 26.425781 200.09375 C 25.347656 192.082031 25.195312 183.917969 25.347656 175.90625 C 26.117188 157.109375 30.121094 137.539062 37.511719 119.203125 C 44.746094 101.023438 55.367188 84.074219 67.683594 69.59375 C 72.148438 64.355469 78.460938 58.191406 85.851562 52.179688 C 93.242188 46.171875 102.015625 40.625 111.097656 35.847656 C 129.265625 26.140625 148.507812 20.75 160.210938 16.898438 C 144.199219 19.824219 128.34375 24.753906 113.101562 31.535156 C 105.558594 34.925781 98.320312 38.929688 91.238281 43.398438 C 84.3125 47.867188 77.539062 52.644531 71.535156 58.035156 C 96.472656 32.613281 131.265625 15.820312 167.601562 12.429688 C 185.765625 10.582031 204.242188 11.8125 222.097656 15.972656 C 239.957031 19.980469 256.890625 27.222656 272.441406 36.621094 C 243.652344 18.4375 209.9375 9.503906 176.527344 10.582031 C 143.121094 11.503906 110.328125 22.289062 83.078125 41.550781 C 55.832031 60.808594 34.125 87.925781 21.34375 119.203125 C 8.566406 150.484375 4.71875 185.765625 10.414062 219.972656 C 5.488281 200.402344 4.101562 179.449219 6.410156 158.496094 C 8.566406 137.539062 14.878906 116.738281 24.886719 97.480469 C 34.738281 78.375 48.441406 60.964844 64.757812 46.632812 C 81.078125 32.304688 100.015625 21.058594 120.335938 13.816406 C 140.65625 6.421875 162.058594 3.03125 183.304688 3.492188 C 204.546875 3.957031 225.484375 8.117188 244.730469 15.664062 C 263.972656 23.214844 281.679688 34 297.074219 46.941406 C 312.46875 59.886719 325.707031 74.984375 336.175781 91.472656 C 342.644531 101.332031 348.957031 113.195312 353.421875 122.441406 C 345.722656 104.105469 335.101562 86.539062 322.320312 70.824219 C 309.390625 55.109375 293.839844 41.242188 276.445312 29.996094 C 258.738281 19.054688 239.1875 10.734375 218.402344 5.957031 C 197.773438 1.183594 176.066406 0.101562 154.667969 2.722656 C 133.269531 5.496094 112.332031 12.277344 93.085938 22.597656 C 73.996094 32.921875 56.601562 47.097656 42.4375 63.738281 C 28.582031 80.378906 17.496094 99.636719 10.414062 120.128906 C 6.875 130.296875 4.257812 140.777344 2.5625 151.40625 C 0.871094 161.882812 0.253906 172.515625 0.5625 182.992188 C 0.871094 202.253906 4.71875 221.667969 11.339844 240 C 18.265625 258.335938 27.964844 275.902344 40.742188 291.308594 C 65.835938 322.433594 102.476562 344.929688 142.660156 353.09375 C 164.367188 358.023438 187.152344 358.949219 209.320312 355.867188 C 232.105469 352.632812 254.429688 344.929688 274.597656 333.371094 C 294.765625 321.816406 312.46875 306.410156 326.632812 288.226562 C 332.945312 280.214844 339.871094 270.046875 345.570312 258.644531 C 351.417969 247.242188 356.039062 234.609375 358.808594 222.4375 C 361.578125 210.265625 362.503906 198.554688 361.734375 189.003906 C 361.578125 186.691406 361.273438 184.378906 360.964844 182.375 C 360.65625 180.375 360.347656 178.371094 359.730469 176.675781 C 358.65625 173.285156 357.421875 170.511719 356.039062 168.816406 C 355.882812 171.898438 355.882812 174.980469 355.730469 178.214844 C 355.574219 181.296875 355.421875 184.535156 355.269531 187.769531 C 354.960938 191.003906 354.652344 194.085938 354.191406 197.167969 C 353.574219 200.25 353.113281 203.175781 352.34375 206.105469 C 352.34375 203.792969 352.1875 201.328125 352.035156 198.863281 C 352.035156 197.628906 351.878906 196.398438 351.878906 195.011719 C 351.878906 193.777344 351.726562 192.390625 351.726562 191.160156 C 351.574219 192.390625 351.417969 193.625 351.265625 194.855469 C 351.109375 196.089844 350.804688 197.320312 350.496094 198.554688 C 350.035156 201.019531 349.726562 203.484375 349.570312 205.796875 C 349.726562 203.949219 349.726562 201.945312 349.570312 200.25 C 349.417969 198.554688 349.261719 197.167969 348.800781 196.398438 C 347.570312 202.097656 347.570312 210.574219 346.800781 215.195312 C 346.644531 216.582031 346.492188 220.433594 345.722656 224.441406 C 345.414062 226.441406 345.105469 228.445312 344.644531 230.140625 C 344.183594 231.835938 343.722656 233.222656 343.257812 233.992188 C 344.800781 224.441406 346.183594 212.574219 344.953125 204.71875 C 344.183594 207.800781 343.722656 210.882812 342.488281 213.65625 C 342.488281 212.730469 342.644531 211.496094 342.644531 210.265625 C 342.796875 209.03125 342.796875 207.644531 342.953125 206.414062 C 343.105469 203.792969 343.257812 201.480469 342.644531 200.402344 C 341.257812 207.953125 340.335938 214.734375 337.71875 222.28125 C 337.101562 223.824219 336.640625 225.363281 336.175781 226.75 C 335.5625 228.136719 335.101562 229.679688 334.484375 231.066406 C 333.40625 233.992188 332.175781 236.613281 331.25 239.695312 C 333.558594 232.605469 336.175781 223.054688 335.871094 217.660156 C 335.101562 219.199219 334.484375 220.742188 334.023438 222.4375 L 333.253906 224.902344 C 332.945312 225.671875 332.789062 226.597656 332.484375 227.367188 C 332.484375 226.90625 332.328125 226.597656 332.175781 226.441406 C 331.714844 227.828125 330.636719 229.679688 330.171875 231.21875 C 329.867188 231.066406 329.402344 231.375 329.25 230.910156 C 329.402344 231.066406 329.710938 231.21875 329.867188 231.21875 " fill-opacity="1" fill-rule="nonzero"/></g><path fill="#3aafaf" d="M 354.035156 229.988281 C 353.421875 231.988281 352.652344 234.148438 351.726562 236.457031 C 350.804688 238.769531 350.035156 241.082031 348.957031 243.390625 C 347.878906 245.703125 346.953125 248.011719 345.722656 250.015625 C 344.644531 252.019531 343.566406 254.023438 342.488281 255.5625 " fill-opacity="1" fill-rule="nonzero"/></g></g></g></g><g clip-path="url(#id7)"><g clip-path="url(#id8)"><g clip-path="url(#id9)"><g clip-path="url(#id10)"><path fill="#292627" d="M 324.484375 202.878906 C 333.445312 234.722656 316.996094 241.898438 316.996094 241.898438 C 310.03125 232.710938 305.644531 224.824219 303.109375 219.601562 C 310.042969 212.085938 316.558594 203.304688 322.019531 193.101562 C 322.75 196.285156 323.542969 199.542969 324.484375 202.878906 " fill-opacity="1" fill-rule="nonzero"/></g></g></g></g><g clip-path="url(#id11)"><g clip-path="url(#id12)"><g clip-path="url(#id13)"><g clip-path="url(#id14)"><path fill="#292627" d="M 290.269531 141.210938 C 294.46875 139.863281 303.28125 134.617188 302.164062 131.125 C 301.042969 127.628906 291.738281 128.1875 284.160156 130.613281 C 276.585938 133.039062 272.042969 136.355469 272.71875 138.464844 C 273.421875 140.667969 282.695312 143.636719 290.269531 141.210938 Z M 40.136719 163.816406 C 16.03125 141.414062 18.398438 126.082031 18.398438 126.082031 C 26.554688 141.300781 50.382812 133.761719 58.117188 147.773438 C 58.117188 147.773438 63.679688 142.945312 70.613281 139.898438 C 81.945312 134.925781 93.5625 139.472656 100.519531 129.472656 C 101.683594 154.113281 71 162.332031 66.421875 172.644531 C 61.785156 183.101562 70.921875 236.160156 127.40625 215.621094 C 163.023438 202.671875 183.109375 184.097656 205.945312 155.308594 C 206.875 156.675781 207.769531 158.140625 208.628906 159.710938 C 208.871094 160.160156 208.8125 160.714844 208.484375 161.109375 C 195.515625 176.785156 187.578125 189.371094 184.539062 194.460938 C 184.40625 194.683594 184.71875 194.902344 184.882812 194.703125 C 189.253906 189.246094 201.128906 174.648438 212.910156 161.964844 C 213.332031 161.511719 213.429688 160.84375 213.152344 160.289062 C 213.007812 159.996094 212.863281 159.707031 212.714844 159.421875 C 204.464844 143.394531 192.144531 137.976562 185.394531 135.703125 C 183.730469 135.144531 183.59375 132.828125 185.195312 132.105469 C 204.707031 123.308594 225.382812 139.046875 237.207031 137.828125 C 238.367188 137.707031 239.425781 137.113281 240.191406 136.230469 C 249.949219 124.945312 266.90625 116.605469 270.613281 114.859375 C 270.703125 114.820312 270.65625 114.683594 270.558594 114.703125 C 267.011719 115.578125 252.0625 119.914062 237.269531 133.707031 C 235.996094 133.140625 233.953125 132.320312 231.3125 131.542969 C 248.546875 117.953125 270.03125 106.5 291.347656 105.8125 C 316.332031 105.007812 344.605469 115.730469 351.367188 120.082031 C 352.894531 121.066406 352.179688 122.820312 350.5625 123.648438 C 334.523438 131.875 276.425781 164.222656 268.023438 231.929688 C 267.511719 236.019531 268.300781 240.320312 268.605469 244.75 C 271.128906 281.367188 250.511719 285.234375 250.511719 285.234375 C 241.398438 266.46875 241.277344 259.503906 241.277344 259.5 C 241.289062 260.246094 237.917969 262.378906 237.410156 262.773438 C 233.769531 265.597656 229.847656 268.0625 225.789062 270.226562 C 208.242188 279.570312 186.867188 283.652344 167.804688 277.226562 C 152.808594 272.167969 139.15625 263.128906 123.882812 258.960938 C 120.730469 258.101562 116.941406 257.226562 113.785156 258.558594 C 108.128906 260.953125 109.671875 274.003906 115.511719 280.386719 C 114.328125 279.089844 108.964844 278.542969 107.183594 277.957031 C 104.34375 277.019531 101.542969 275.976562 98.785156 274.820312 C 93.347656 272.539062 88.09375 269.816406 83.140625 266.617188 C 73.289062 260.246094 64.71875 251.9375 58.457031 241.992188 C 50.027344 228.59375 46.6875 213.601562 46.269531 197.945312 C 46.101562 191.738281 45.867188 185.511719 45.117188 179.34375 C 44.546875 174.628906 43.96875 168.644531 40.957031 164.738281 C 40.707031 164.410156 40.441406 164.097656 40.136719 163.816406 " fill-opacity="1" fill-rule="nonzero"/></g></g></g></g></svg>